{
  "accessors": [
    {
      "bufferView": 3,
      "componentType": 5126,
      "count": 1728,
      "max": [
        0.28748801350593567,
        0.5694846510887146,
        0.48132434487342834
      ],
      "min": [
        -0.28748801350593567,
        7.692407234571874e-05,
        -0.6309056282043457
      ],
      "type": "VEC3"
    },
    {
      "bufferView": 3,
      "byteOffset": 20736,
      "componentType": 5126,
      "count": 1728,
      "max": [
        0.9998366236686707,
        1.0,
        0.9995912909507751
      ],
      "min": [
        -0.9998367428779602,
        -0.9999898076057434,
        -0.9965107440948486
      ],
      "type": "VEC3"
    },
    {
      "bufferView": 4,
      "componentType": 5126,
      "count": 1728,
      "max": [
        0.9988449811935425,
        0.9995582103729248,
        0.9999964237213135,
        1.0
      ],
      "min": [
        -0.9959705471992493,
        -0.9989386796951294,
        -0.9988324642181396,
        -1.0
      ],
      "type": "VEC4"
    },
    {
      "bufferView": 2,
      "componentType": 5126,
      "count": 1728,
      "max": [
        0.9987919926643372,
        0.9702780246734619
      ],
      "min": [
        0.0015140000032261014,
        0.0014990000054240227
      ],
      "type": "VEC2"
    },
    {
      "bufferView": 2,
      "byteOffset": 13824,
      "componentType": 5126,
      "count": 1728,
      "max": [
        0.9987919926643372,
        0.9702780246734619
      ],
      "min": [
        0.0015140000032261014,
        0.0014990000054240227
      ],
      "type": "VEC2"
    },
    {
      "bufferView": 2,
      "byteOffset": 27648,
      "componentType": 5126,
      "count": 1728,
      "max": [
        0.9987919926643372,
        0.9702780246734619
      ],
      "min": [
        0.0015140000032261014,
        0.0014990000054240227
      ],
      "type": "VEC2"
    },
    {
      "bufferView": 1,
      "componentType": 5125,
      "count": 9156,
      "type": "SCALAR"
    },
    {
      "bufferView": 5,
      "componentType": 5126,
      "count": 29,
      "max": [
        100.0,
        0.6699033379554749,
        0.999998927116394,
        0.0,
        0.9999998211860657,
        100.0,
        0.999488353729248,
        0.0,
        0.47687140107154846,
        0.9999998211860657,
        100.0,
        0.0,
        0.2598969638347626,
        0.1848527193069458,
        0.22886863350868225,
        1.0
      ],
      "min": [
        -1.7283679198953905e-07,
        -0.6699040532112122,
        -0.4273872673511505,
        0.0,
        -0.616330623626709,
        -0.8962309956550598,
        -0.9924771785736084,
        0.0,
        -0.904818594455719,
        -0.999488353729248,
        -0.8907617330551147,
        0.0,
        -0.3488735556602478,
        -0.5532146096229553,
        -0.42469197511672974,
        1.0
      ],
      "type": "MAT4"
    },
    {
      "bufferView": 0,
      "componentType": 5123,
      "count": 1728,
      "type": "VEC4"
    },
    {
      "bufferView": 4,
      "byteOffset": 27648,
      "componentType": 5126,
      "count": 1728,
      "max": [
        1.0,
        0.4948599338531494,
        0.29272446036338806,
        0.10820088535547256
      ],
      "min": [
        0.38244298100471497,
        0.0,
        0.0,
        0.0
      ],
      "type": "VEC4"
    },
    {
      "bufferView": 6,
      "componentType": 5126,
      "count": 244,
      "max": [
        4.166666507720947
      ],
      "min": [
        0.0
      ],
      "type": "SCALAR"
    },
    {
      "bufferView": 7,
      "componentType": 5126,
      "count": 244,
      "max": [
        7.4505748237641e-09,
        0.18506883084774017,
        2.303929616531697e-18
      ],
      "min": [
        7.4505748237641e-09,
        0.18506883084774017,
        -2.791820594150174e-18
      ],
      "type": "VEC3"
    },
    {
      "bufferView": 6,
      "byteOffset": 976,
      "componentType": 5126,
      "count": 244,
      "max": [
        4.166666507720947
      ],
      "min": [
        0.0
      ],
      "type": "SCALAR"
    },
    {
      "bufferView": 8,
      "componentType": 5126,
      "count": 244,
      "max": [
        0.03637782484292984,
        0.0070185051299631596,
        0.21101164817810059,
        0.9796024560928345
      ],
      "min": [
        -0.04812334105372429,
        -0.010287190787494183,
        0.1997382491827011,
        0.9762443900108337
      ],
      "type": "VEC4"
    },
    {
      "bufferView": 6,
      "byteOffset": 1952,
      "componentType": 5126,
      "count": 249,
      "max": [
        4.166666507720947
      ],
      "min": [
        0.0
      ],
      "type": "SCALAR"
    },
    {
      "bufferView": 8,
      "byteOffset": 3904,
      "componentType": 5126,
      "count": 249,
      "max": [
        0.02487850748002529,
        0.012737255543470383,
        -0.7187953591346741,
        0.6950483918190002
      ],
      "min": [
        -0.033517930656671524,
        -0.009467847645282745,
        -0.7324474453926086,
        0.6808226108551025
      ],
      "type": "VEC4"
    },
    {
      "bufferView": 6,
      "byteOffset": 2948,
      "componentType": 5126,
      "count": 126,
      "max": [
        4.166666507720947
      ],
      "min": [
        0.0
      ],
      "type": "SCALAR"
    },
    {
      "bufferView": 8,
      "byteOffset": 7888,
      "componentType": 5126,
      "count": 126,
      "max": [
        -0.2615993916988373,
        -0.009982659481465816,
        0.08031073212623596,
        0.9617776870727539
      ],
      "min": [
        -0.2615993916988373,
        -0.009982659481465816,
        0.08031073212623596,
        0.9617776870727539
      ],
      "type": "VEC4"
    },
    {
      "bufferView": 6,
      "byteOffset": 3452,
      "componentType": 5126,
      "count": 247,
      "max": [
        4.166666507720947
      ],
      "min": [
        0.0
      ],
      "type": "SCALAR"
    },
    {
      "bufferView": 8,
      "byteOffset": 9904,
      "componentType": 5126,
      "count": 247,
      "max": [
        -0.27316880226135254,
        0.023170538246631622,
        0.322806715965271,
        0.933329701423645
      ],
      "min": [
        -0.29717692732810974,
        -0.0038696432020515203,
        0.23190361261367798,
        0.9007546305656433
      ],
      "type": "VEC4"
    },
    {
      "bufferView": 6,
      "byteOffset": 4440,
      "componentType": 5126,
      "count": 251,
      "max": [
        4.166666507720947
      ],
      "min": [
        0.0
      ],
      "type": "SCALAR"
    },
    {
      "bufferView": 8,
      "byteOffset": 13856,
      "componentType": 5126,
      "count": 251,
      "max": [
        0.05623457580804825,
        0.0018917340785264969,
        0.34402406215667725,
        0.989861786365509
      ],
      "min": [
        0.03513050079345703,
        -0.0009268696885555983,
        0.13760778307914734,
        0.9377700686454773
      ],
      "type": "VEC4"
    },
    {
      "bufferView": 6,
      "byteOffset": 5444,
      "componentType": 5126,
      "count": 228,
      "max": [
        4.166666507720947
      ],
      "min": [
        0.0
      ],
      "type": "SCALAR"
    },
    {
      "bufferView": 8,
      "byteOffset": 17872,
      "componentType": 5126,
      "count": 228,
      "max": [
        0.7942159175872803,
        -0.19404420256614685,
        0.2303893119096756,
        0.5570908188819885
      ],
      "min": [
        0.7898521423339844,
        -0.2664700746536255,
        0.15625225007534027,
        0.5016289949417114
      ],
      "type": "VEC4"
    },
    {
      "bufferView": 6,
      "byteOffset": 6356,
      "componentType": 5126,
      "count": 126,
      "max": [
        4.166666507720947
      ],
      "min": [
        0.0
      ],
      "type": "SCALAR"
    },
    {
      "bufferView": 8,
      "byteOffset": 21520,
      "componentType": 5126,
      "count": 126,
      "max": [
        -0.33094653487205505,
        -1.9054398592288635e-07,
        -0.03320121765136719,
        0.9430652260780334
      ],
      "min": [
        -0.33094653487205505,
        -1.9054398592288635e-07,
        -0.03320121765136719,
        0.9430652260780334
      ],
      "type": "VEC4"
    },
    {
      "bufferView": 6,
      "byteOffset": 6860,
      "componentType": 5126,
      "count": 248,
      "max": [
        4.166666507720947
      ],
      "min": [
        0.0
      ],
      "type": "SCALAR"
    },
    {
      "bufferView": 8,
      "byteOffset": 23536,
      "componentType": 5126,
      "count": 248,
      "max": [
        -0.4964592158794403,
        -0.06045118346810341,
        0.039874229580163956,
        0.8641658425331116
      ],
      "min": [
        -0.6042315363883972,
        -0.07370664924383163,
        0.0027276796754449606,
        0.7942352294921875
      ],
      "type": "VEC4"
    },
    {
      "bufferView": 6,
      "byteOffset": 7852,
      "componentType": 5126,
      "count": 251,
      "max": [
        4.166666507720947
      ],
      "min": [
        0.0
      ],
      "type": "SCALAR"
    },
    {
      "bufferView": 8,
      "byteOffset": 27504,
      "componentType": 5126,
      "count": 251,
      "max": [
        -0.08885499835014343,
        -0.003362385556101799,
        0.0136491097509861,
        0.9960282444953918
      ],
      "min": [
        -0.3072701692581177,
        -0.004459691699594259,
        -0.014154966920614243,
        0.9515573382377625
      ],
      "type": "VEC4"
    },
    {
      "bufferView": 6,
      "byteOffset": 8856,
      "componentType": 5126,
      "count": 190,
      "max": [
        4.166666507720947
      ],
      "min": [
        0.0
      ],
      "type": "SCALAR"
    },
    {
      "bufferView": 8,
      "byteOffset": 31520,
      "componentType": 5126,
      "count": 190,
      "max": [
        0.6990790367126465,
        -0.030488407239317894,
        0.6856746077537537,
        0.259167343378067
      ],
      "min": [
        0.677270770072937,
        -0.09266013652086258,
        0.680141806602478,
        0.2136840969324112
      ],
      "type": "VEC4"
    },
    {
      "bufferView": 6,
      "byteOffset": 9616,
      "componentType": 5126,
      "count": 126,
      "max": [
        4.166666507720947
      ],
      "min": [
        0.0
      ],
      "type": "SCALAR"
    },
    {
      "bufferView": 8,
      "byteOffset": 34560,
      "componentType": 5126,
      "count": 126,
      "max": [
        -0.26159948110580444,
        0.009982633404433727,
        -0.08031076937913895,
        0.9617776274681091
      ],
      "min": [
        -0.26159948110580444,
        0.009982633404433727,
        -0.08031076937913895,
        0.9617776274681091
      ],
      "type": "VEC4"
    },
    {
      "bufferView": 6,
      "byteOffset": 10120,
      "componentType": 5126,
      "count": 243,
      "max": [
        4.166666507720947
      ],
      "min": [
        0.0
      ],
      "type": "SCALAR"
    },
    {
      "bufferView": 8,
      "byteOffset": 36576,
      "componentType": 5126,
      "count": 243,
      "max": [
        -0.2824201285839081,
        0.011262370273470879,
        -0.24170845746994019,
        0.9281835556030273
      ],
      "min": [
        -0.2983405590057373,
        -0.013228235766291618,
        -0.3228098154067993,
        0.9007537364959717
      ],
      "type": "VEC4"
    },
    {
      "bufferView": 6,
      "byteOffset": 11092,
      "componentType": 5126,
      "count": 248,
      "max": [
        4.166666507720947
      ],
      "min": [
        0.0
      ],
      "type": "SCALAR"
    },
    {
      "bufferView": 8,
      "byteOffset": 40464,
      "componentType": 5126,
      "count": 248,
      "max": [
        0.05864241346716881,
        0.0006215282483026385,
        -0.13760003447532654,
        0.9898629188537598
      ],
      "min": [
        0.0351283997297287,
        -0.0018955070991069078,
        -0.33282995223999023,
        0.941637396812439
      ],
      "type": "VEC4"
    },
    {
      "bufferView": 6,
      "byteOffset": 12084,
      "componentType": 5126,
      "count": 223,
      "max": [
        4.166666507720947
      ],
      "min": [
        0.0
      ],
      "type": "SCALAR"
    },
    {
      "bufferView": 8,
      "byteOffset": 44432,
      "componentType": 5126,
      "count": 223,
      "max": [
        0.2303919494152069,
        -0.5016268491744995,
        0.7959477305412292,
        0.2664735019207001
      ],
      "min": [
        0.15645383298397064,
        -0.556846559047699,
        0.7901151180267334,
        0.19593730568885803
      ],
      "type": "VEC4"
    },
    {
      "bufferView": 6,
      "byteOffset": 12976,
      "componentType": 5126,
      "count": 126,
      "max": [
        4.166666507720947
      ],
      "min": [
        0.0
      ],
      "type": "SCALAR"
    },
    {
      "bufferView": 8,
      "byteOffset": 48000,
      "componentType": 5126,
      "count": 126,
      "max": [
        -0.33094650506973267,
        8.893796632492013e-08,
        0.03320113942027092,
        0.9430652856826782
      ],
      "min": [
        -0.33094650506973267,
        8.893796632492013e-08,
        0.03320113942027092,
        0.9430652856826782
      ],
      "type": "VEC4"
    },
    {
      "bufferView": 6,
      "byteOffset": 13480,
      "componentType": 5126,
      "count": 244,
      "max": [
        4.166666507720947
      ],
      "min": [
        0.0
      ],
      "type": "SCALAR"
    },
    {
      "bufferView": 8,
      "byteOffset": 50016,
      "componentType": 5126,
      "count": 244,
      "max": [
        -0.5088969469070435,
        0.07030805945396423,
        0.010391567833721638,
        0.8582508563995361
      ],
      "min": [
        -0.6042281985282898,
        0.06045610085129738,
        -0.026367362588644028,
        0.7942376732826233
      ],
      "type": "VEC4"
    },
    {
      "bufferView": 6,
      "byteOffset": 14456,
      "componentType": 5126,
      "count": 250,
      "max": [
        4.166666507720947
      ],
      "min": [
        0.0
      ],
      "type": "SCALAR"
    },
    {
      "bufferView": 8,
      "byteOffset": 53920,
      "componentType": 5126,
      "count": 250,
      "max": [
        -0.0888645350933075,
        0.004129870794713497,
        0.0029377553146332502,
        0.9960273504257202
      ],
      "min": [
        -0.296141654253006,
        0.002938535064458847,
        -0.02622394636273384,
        0.9549416303634644
      ],
      "type": "VEC4"
    },
    {
      "bufferView": 6,
      "byteOffset": 15456,
      "componentType": 5126,
      "count": 203,
      "max": [
        4.166666507720947
      ],
      "min": [
        0.0
      ],
      "type": "SCALAR"
    },
    {
      "bufferView": 8,
      "byteOffset": 57920,
      "componentType": 5126,
      "count": 203,
      "max": [
        0.6889799237251282,
        -0.20202386379241943,
        0.6962479948997498,
        0.09265659004449844
      ],
      "min": [
        0.6806061863899231,
        -0.2591641843318939,
        0.6772717237472534,
        0.033919867128133774
      ],
      "type": "VEC4"
    },
    {
      "bufferView": 6,
      "byteOffset": 16268,
      "componentType": 5126,
      "count": 246,
      "max": [
        4.166666507720947
      ],
      "min": [
        0.0
      ],
      "type": "SCALAR"
    },
    {
      "bufferView": 8,
      "byteOffset": 61168,
      "componentType": 5126,
      "count": 246,
      "max": [
        -0.03463968634605408,
        0.04403126612305641,
        0.035329826176166534,
        0.9993996024131775
      ],
      "min": [
        -0.034715138375759125,
        -0.03935360908508301,
        -0.03157928213477135,
        0.9978035688400269
      ],
      "type": "VEC4"
    },
    {
      "bufferView": 6,
      "byteOffset": 17252,
      "componentType": 5126,
      "count": 246,
      "max": [
        4.166666507720947
      ],
      "min": [
        0.0
      ],
      "type": "SCALAR"
    },
    {
      "bufferView": 8,
      "byteOffset": 65104,
      "componentType": 5126,
      "count": 246,
      "max": [
        0.46227097511291504,
        0.024487363174557686,
        0.05086509883403778,
        0.8867387175559998
      ],
      "min": [
        0.4616239666938782,
        -0.021885767579078674,
        -0.04546450078487396,
        0.8852775692939758
      ],
      "type": "VEC4"
    },
    {
      "bufferView": 6,
      "byteOffset": 18236,
      "componentType": 5126,
      "count": 246,
      "max": [
        4.166666507720947
      ],
      "min": [
        0.0
      ],
      "type": "SCALAR"
    },
    {
      "bufferView": 8,
      "byteOffset": 69040,
      "componentType": 5126,
      "count": 246,
      "max": [
        -0.5077517628669739,
        0.02703825756907463,
        0.04766479507088661,
        0.860973060131073
      ],
      "min": [
        -0.5086504817008972,
        -0.030249694362282753,
        -0.042601216584444046,
        0.8596517443656921
      ],
      "type": "VEC4"
    },
    {
      "bufferView": 6,
      "byteOffset": 19220,
      "componentType": 5126,
      "count": 246,
      "max": [
        4.166666507720947
      ],
      "min": [
        0.0
      ],
      "type": "SCALAR"
    },
    {
      "bufferView": 7,
      "byteOffset": 2928,
      "componentType": 5126,
      "count": 246,
      "max": [
        -9.767089480944291e-15,
        0.18347863852977753,
        -7.4505646097122735e-09
      ],
      "min": [
        -9.773513378816268e-15,
        0.18347863852977753,
        -7.4505646097122735e-09
      ],
      "type": "VEC3"
    },
    {
      "bufferView": 6,
      "byteOffset": 20204,
      "componentType": 5126,
      "count": 246,
      "max": [
        4.166666507720947
      ],
      "min": [
        0.0
      ],
      "type": "SCALAR"
    },
    {
      "bufferView": 8,
      "byteOffset": 72976,
      "componentType": 5126,
      "count": 246,
      "max": [
        0.13136599957942963,
        0.008215866982936859,
        0.055697981268167496,
        0.9913570284843445
      ],
      "min": [
        0.13113588094711304,
        -0.009200876578688622,
        -0.04978431761264801,
        0.9897557497024536
      ],
      "type": "VEC4"
    },
    {
      "bufferView": 6,
      "byteOffset": 21188,
      "componentType": 5126,
      "count": 126,
      "max": [
        4.166666507720947
      ],
      "min": [
        0.0
      ],
      "type": "SCALAR"
    },
    {
      "bufferView": 8,
      "byteOffset": 76912,
      "componentType": 5126,
      "count": 126,
      "max": [
        0.7060536742210388,
        0.03859125077724457,
        0.7060521841049194,
        -0.038591332733631134
      ],
      "min": [
        0.7060536742210388,
        0.03859125077724457,
        0.7060521841049194,
        -0.038591332733631134
      ],
      "type": "VEC4"
    },
    {
      "bufferView": 6,
      "byteOffset": 21692,
      "componentType": 5126,
      "count": 214,
      "max": [
        4.166666507720947
      ],
      "min": [
        0.0
      ],
      "type": "SCALAR"
    },
    {
      "bufferView": 7,
      "byteOffset": 5880,
      "componentType": 5126,
      "count": 214,
      "max": [
        0.0,
        0.006380915641784668,
        0.27601325511932373
      ],
      "min": [
        0.0,
        6.617444900424222e-24,
        0.26952069997787476
      ],
      "type": "VEC3"
    },
    {
      "bufferView": 6,
      "byteOffset": 22548,
      "componentType": 5126,
      "count": 214,
      "max": [
        4.166666507720947
      ],
      "min": [
        0.0
      ],
      "type": "SCALAR"
    },
    {
      "bufferView": 8,
      "byteOffset": 78928,
      "componentType": 5126,
      "count": 214,
      "max": [
        0.6963880658149719,
        0.1443854570388794,
        0.6967135071754456,
        0.14208973944187164
      ],
      "min": [
        0.6922087669372559,
        0.12265325337648392,
        0.6926834583282471,
        0.12078987807035446
      ],
      "type": "VEC4"
    },
    {
      "bufferView": 6,
      "byteOffset": 23404,
      "componentType": 5126,
      "count": 18,
      "max": [
        0.6666666865348816
      ],
      "min": [
        0.0
      ],
      "type": "SCALAR"
    },
    {
      "bufferView": 7,
      "byteOffset": 8448,
      "componentType": 5126,
      "count": 18,
      "max": [
        -4.6798959374427795e-08,
        0.18506881594657898,
        1.3877787807814457e-17
      ],
      "min": [
        -4.6798959374427795e-08,
        0.18506881594657898,
        -6.938893903907228e-18
      ],
      "type": "VEC3"
    },
    {
      "bufferView": 6,
      "byteOffset": 23476,
      "componentType": 5126,
      "count": 21,
      "max": [
        0.6666666865348816
      ],
      "min": [
        0.0
      ],
      "type": "SCALAR"
    },
    {
      "bufferView": 8,
      "byteOffset": 82352,
      "componentType": 5126,
      "count": 21,
      "max": [
        8.057308065190227e-08,
        1.1860168314115072e-07,
        0.20094537734985352,
        0.9796024560928345
      ],
      "min": [
        8.057308065190227e-08,
        1.1860168314115072e-07,
        0.20094537734985352,
        0.9796024560928345
      ],
      "type": "VEC4"
    },
    {
      "bufferView": 6,
      "byteOffset": 23560,
      "componentType": 5126,
      "count": 41,
      "max": [
        0.6666666865348816
      ],
      "min": [
        0.0
      ],
      "type": "SCALAR"
    },
    {
      "bufferView": 8,
      "byteOffset": 82688,
      "componentType": 5126,
      "count": 41,
      "max": [
        -0.011583324521780014,
        0.033934127539396286,
        -0.7182896137237549,
        0.6948196291923523
      ],
      "min": [
        -0.03351794183254242,
        0.01273725088685751,
        -0.7189779281616211,
        0.6941073536872864
      ],
      "type": "VEC4"
    },
    {
      "bufferView": 6,
      "byteOffset": 23724,
      "componentType": 5126,
      "count": 36,
      "max": [
        0.6666666865348816
      ],
      "min": [
        0.0
      ],
      "type": "SCALAR"
    },
    {
      "bufferView": 8,
      "byteOffset": 83344,
      "componentType": 5126,
      "count": 36,
      "max": [
        0.7981093525886536,
        0.03050771728157997,
        0.14941993355751038,
        0.999896228313446
      ],
      "min": [
        -0.5075220465660095,
        -0.019382169470191002,
        -0.2230868637561798,
        0.5588586926460266
      ],
      "type": "VEC4"
    },
    {
      "bufferView": 6,
      "byteOffset": 23868,
      "componentType": 5126,
      "count": 1,
      "max": [
        0.0
      ],
      "min": [
        0.0
      ],
      "type": "SCALAR"
    },
    {
      "bufferView": 7,
      "byteOffset": 8664,
      "componentType": 5126,
      "count": 1,
      "max": [
        0.9999987483024597,
        0.9999991059303284,
        0.9999995231628418
      ],
      "min": [
        0.9999987483024597,
        0.9999991059303284,
        0.9999995231628418
      ],
      "type": "VEC3"
    },
    {
      "bufferView": 6,
      "byteOffset": 23872,
      "componentType": 5126,
      "count": 41,
      "max": [
        0.6666666865348816
      ],
      "min": [
        0.0
      ],
      "type": "SCALAR"
    },
    {
      "bufferView": 8,
      "byteOffset": 83920,
      "componentType": 5126,
      "count": 41,
      "max": [
        0.47208371758461,
        0.12275293469429016,
        0.5300300717353821,
        0.9603708982467651
      ],
      "min": [
        -0.2703605890274048,
        -0.37920430302619934,
        0.19415521621704102,
        0.651933491230011
      ],
      "type": "VEC4"
    },
    {
      "bufferView": 6,
      "byteOffset": 24036,
      "componentType": 5126,
      "count": 1,
      "max": [
        0.0
      ],
      "min": [
        0.0
      ],
      "type": "SCALAR"
    },
    {
      "bufferView": 7,
      "byteOffset": 8676,
      "componentType": 5126,
      "count": 1,
      "max": [
        0.9999977946281433,
        1.0000016689300537,
        0.9999998807907104
      ],
      "min": [
        0.9999977946281433,
        1.0000016689300537,
        0.9999998807907104
      ],
      "type": "VEC3"
    },
    {
      "bufferView": 6,
      "byteOffset": 24040,
      "componentType": 5126,
      "count": 41,
      "max": [
        0.6666666865348816
      ],
      "min": [
        0.0
      ],
      "type": "SCALAR"
    },
    {
      "bufferView": 8,
      "byteOffset": 84576,
      "componentType": 5126,
      "count": 41,
      "max": [
        0.1012243926525116,
        0.000728049548342824,
        0.6655693650245667,
        0.9996567368507385
      ],
      "min": [
        -0.703734278678894,
        -0.027047593146562576,
        0.002818503649905324,
        0.6493818759918213
      ],
      "type": "VEC4"
    },
    {
      "bufferView": 6,
      "byteOffset": 24204,
      "componentType": 5126,
      "count": 1,
      "max": [
        0.0
      ],
      "min": [
        0.0
      ],
      "type": "SCALAR"
    },
    {
      "bufferView": 7,
      "byteOffset": 8688,
      "componentType": 5126,
      "count": 1,
      "max": [
        0.9999992251396179,
        1.0000020265579224,
        1.0000004768371582
      ],
      "min": [
        0.9999992251396179,
        1.0000020265579224,
        1.0000004768371582
      ],
      "type": "VEC3"
    },
    {
      "bufferView": 6,
      "byteOffset": 24208,
      "componentType": 5126,
      "count": 41,
      "max": [
        0.6666666865348816
      ],
      "min": [
        0.0
      ],
      "type": "SCALAR"
    },
    {
      "bufferView": 8,
      "byteOffset": 85232,
      "componentType": 5126,
      "count": 41,
      "max": [
        0.9057150483131409,
        0.19030879437923431,
        0.06688283383846283,
        0.7747371196746826
      ],
      "min": [
        0.5583966374397278,
        -0.29063892364501953,
        -0.22055500745773315,
        0.35105907917022705
      ],
      "type": "VEC4"
    },
    {
      "bufferView": 6,
      "byteOffset": 24372,
      "componentType": 5126,
      "count": 41,
      "max": [
        0.6666666865348816
      ],
      "min": [
        0.0
      ],
      "type": "SCALAR"
    },
    {
      "bufferView": 8,
      "byteOffset": 85888,
      "componentType": 5126,
      "count": 41,
      "max": [
        0.6466342210769653,
        -9.316651272683885e-08,
        0.06487123668193817,
        0.9999999403953552
      ],
      "min": [
        -0.6948692798614502,
        -5.376720946514979e-05,
        -0.06965526193380356,
        0.7157546877861023
      ],
      "type": "VEC4"
    },
    {
      "bufferView": 6,
      "byteOffset": 24536,
      "componentType": 5126,
      "count": 1,
      "max": [
        0.0
      ],
      "min": [
        0.0
      ],
      "type": "SCALAR"
    },
    {
      "bufferView": 7,
      "byteOffset": 8700,
      "componentType": 5126,
      "count": 1,
      "max": [
        1.0000030994415283,
        1.0000005960464478,
        1.0000003576278687
      ],
      "min": [
        1.0000030994415283,
        1.0000005960464478,
        1.0000003576278687
      ],
      "type": "VEC3"
    },
    {
      "bufferView": 6,
      "byteOffset": 24540,
      "componentType": 5126,
      "count": 41,
      "max": [
        0.6666666865348816
      ],
      "min": [
        0.0
      ],
      "type": "SCALAR"
    },
    {
      "bufferView": 8,
      "byteOffset": 86544,
      "componentType": 5126,
      "count": 41,
      "max": [
        0.3248555660247803,
        0.6462993025779724,
        0.625819206237793,
        0.9551512598991394
      ],
      "min": [
        -0.8073632717132568,
        -0.21033161878585815,
        -0.1774570345878601,
        0.4851521849632263
      ],
      "type": "VEC4"
    },
    {
      "bufferView": 6,
      "byteOffset": 24704,
      "componentType": 5126,
      "count": 41,
      "max": [
        0.6666666865348816
      ],
      "min": [
        0.0
      ],
      "type": "SCALAR"
    },
    {
      "bufferView": 8,
      "byteOffset": 87200,
      "componentType": 5126,
      "count": 41,
      "max": [
        0.6342751383781433,
        0.001657467451877892,
        0.42982593178749084,
        0.9999955892562866
      ],
      "min": [
        -0.05137389898300171,
        -0.0267703365534544,
        -0.8483919501304626,
        0.5285628437995911
      ],
      "type": "VEC4"
    },
    {
      "bufferView": 6,
      "byteOffset": 24868,
      "componentType": 5126,
      "count": 1,
      "max": [
        0.0
      ],
      "min": [
        0.0
      ],
      "type": "SCALAR"
    },
    {
      "bufferView": 7,
      "byteOffset": 8712,
      "componentType": 5126,
      "count": 1,
      "max": [
        0.9999982118606567,
        0.9999973773956299,
        1.0
      ],
      "min": [
        0.9999982118606567,
        0.9999973773956299,
        1.0
      ],
      "type": "VEC3"
    },
    {
      "bufferView": 6,
      "byteOffset": 24872,
      "componentType": 5126,
      "count": 41,
      "max": [
        0.6666666865348816
      ],
      "min": [
        0.0
      ],
      "type": "SCALAR"
    },
    {
      "bufferView": 8,
      "byteOffset": 87856,
      "componentType": 5126,
      "count": 41,
      "max": [
        0.703246533870697,
        0.7091631293296814,
        0.7121264338493347,
        0.6308143138885498
      ],
      "min": [
        -0.5806868672370911,
        -0.7229115962982178,
        -0.5245190262794495,
        -0.47800713777542114
      ],
      "type": "VEC4"
    },
    {
      "bufferView": 6,
      "byteOffset": 25036,
      "componentType": 5126,
      "count": 32,
      "max": [
        0.6666666865348816
      ],
      "min": [
        0.0
      ],
      "type": "SCALAR"
    },
    {
      "bufferView": 7,
      "byteOffset": 8724,
      "componentType": 5126,
      "count": 32,
      "max": [
        -5.122274160385132e-09,
        0.09821920841932297,
        5.551115123125783e-17
      ],
      "min": [
        -5.122274160385132e-09,
        0.09821920841932297,
        -2.7755575615628914e-17
      ],
      "type": "VEC3"
    },
    {
      "bufferView": 6,
      "byteOffset": 25164,
      "componentType": 5126,
      "count": 36,
      "max": [
        0.6666666865348816
      ],
      "min": [
        0.0
      ],
      "type": "SCALAR"
    },
    {
      "bufferView": 8,
      "byteOffset": 88512,
      "componentType": 5126,
      "count": 36,
      "max": [
        0.733896017074585,
        0.021561605855822563,
        0.20430095493793488,
        0.9971330761909485
      ],
      "min": [
        -0.5645400881767273,
        -0.02805514633655548,
        -0.16535726189613342,
        0.6472021341323853
      ],
      "type": "VEC4"
    },
    {
      "bufferView": 6,
      "byteOffset": 25308,
      "componentType": 5126,
      "count": 1,
      "max": [
        0.0
      ],
      "min": [
        0.0
      ],
      "type": "SCALAR"
    },
    {
      "bufferView": 7,
      "byteOffset": 9108,
      "componentType": 5126,
      "count": 1,
      "max": [
        0.9999982118606567,
        1.0000003576278687,
        1.0000011920928955
      ],
      "min": [
        0.9999982118606567,
        1.0000003576278687,
        1.0000011920928955
      ],
      "type": "VEC3"
    },
    {
      "bufferView": 6,
      "byteOffset": 25312,
      "componentType": 5126,
      "count": 41,
      "max": [
        0.6666666865348816
      ],
      "min": [
        0.0
      ],
      "type": "SCALAR"
    },
    {
      "bufferView": 8,
      "byteOffset": 89088,
      "componentType": 5126,
      "count": 41,
      "max": [
        0.4161298871040344,
        0.3260248005390167,
        0.030070578679442406,
        0.9870488047599792
      ],
      "min": [
        -0.3420843780040741,
        -0.15083537995815277,
        -0.219781294465065,
        0.8575513362884521
      ],
      "type": "VEC4"
    },
    {
      "bufferView": 6,
      "byteOffset": 25476,
      "componentType": 5126,
      "count": 1,
      "max": [
        0.0
      ],
      "min": [
        0.0
      ],
      "type": "SCALAR"
    },
    {
      "bufferView": 7,
      "byteOffset": 9120,
      "componentType": 5126,
      "count": 1,
      "max": [
        1.0000008344650269,
        1.0,
        1.000000238418579
      ],
      "min": [
        1.0000008344650269,
        1.0,
        1.000000238418579
      ],
      "type": "VEC3"
    },
    {
      "bufferView": 6,
      "byteOffset": 25480,
      "componentType": 5126,
      "count": 41,
      "max": [
        0.6666666865348816
      ],
      "min": [
        0.0
      ],
      "type": "SCALAR"
    },
    {
      "bufferView": 8,
      "byteOffset": 89744,
      "componentType": 5126,
      "count": 41,
      "max": [
        0.48883214592933655,
        0.03121134079992771,
        0.8591471910476685,
        0.9996289610862732
      ],
      "min": [
        -0.48709484934806824,
        -0.029339034110307693,
        -0.8466817140579224,
        -0.4914202392101288
      ],
      "type": "VEC4"
    },
    {
      "bufferView": 6,
      "byteOffset": 25644,
      "componentType": 5126,
      "count": 41,
      "max": [
        0.6666666865348816
      ],
      "min": [
        0.0
      ],
      "type": "SCALAR"
    },
    {
      "bufferView": 8,
      "byteOffset": 90400,
      "componentType": 5126,
      "count": 41,
      "max": [
        0.11510318517684937,
        0.7093822956085205,
        0.8426501154899597,
        0.3182859420776367
      ],
      "min": [
        -0.31427261233329773,
        -0.6658896803855896,
        -0.6339461207389832,
        -0.4814551770687103
      ],
      "type": "VEC4"
    },
    {
      "bufferView": 6,
      "byteOffset": 25808,
      "componentType": 5126,
      "count": 40,
      "max": [
        0.6666666865348816
      ],
      "min": [
        0.0
      ],
      "type": "SCALAR"
    },
    {
      "bufferView": 8,
      "byteOffset": 91056,
      "componentType": 5126,
      "count": 40,
      "max": [
        0.5593085289001465,
        2.805023359542247e-05,
        0.06520736962556839,
        0.9995680451393127
      ],
      "min": [
        -0.6499829888343811,
        4.6783437568365116e-08,
        -0.0561106875538826,
        0.7571460008621216
      ],
      "type": "VEC4"
    },
    {
      "bufferView": 6,
      "byteOffset": 25968,
      "componentType": 5126,
      "count": 35,
      "max": [
        0.6666666865348816
      ],
      "min": [
        0.0
      ],
      "type": "SCALAR"
    },
    {
      "bufferView": 7,
      "byteOffset": 9132,
      "componentType": 5126,
      "count": 35,
      "max": [
        2.7755575615628914e-17,
        0.08691374957561493,
        7.450580596923828e-09
      ],
      "min": [
        -2.7755575615628914e-17,
        0.08691374957561493,
        7.450580596923828e-09
      ],
      "type": "VEC3"
    },
    {
      "bufferView": 6,
      "byteOffset": 26108,
      "componentType": 5126,
      "count": 41,
      "max": [
        0.6666666865348816
      ],
      "min": [
        0.0
      ],
      "type": "SCALAR"
    },
    {
      "bufferView": 8,
      "byteOffset": 91696,
      "componentType": 5126,
      "count": 41,
      "max": [
        0.12664282321929932,
        0.6037874817848206,
        0.6353951692581177,
        0.9926191568374634
      ],
      "min": [
        -0.6245178580284119,
        -0.6053409576416016,
        -0.6048906445503235,
        -0.4793258607387543
      ],
      "type": "VEC4"
    },
    {
      "bufferView": 6,
      "byteOffset": 26272,
      "componentType": 5126,
      "count": 41,
      "max": [
        0.6666666865348816
      ],
      "min": [
        0.0
      ],
      "type": "SCALAR"
    },
    {
      "bufferView": 8,
      "byteOffset": 92352,
      "componentType": 5126,
      "count": 41,
      "max": [
        0.7948136329650879,
        0.07994504272937775,
        0.9055429100990295,
        0.9999916553497314
      ],
      "min": [
        -0.5431020855903625,
        -0.005534054711461067,
        -0.7047127485275269,
        0.33603838086128235
      ],
      "type": "VEC4"
    },
    {
      "bufferView": 6,
      "byteOffset": 26436,
      "componentType": 5126,
      "count": 41,
      "max": [
        0.6666666865348816
      ],
      "min": [
        0.0
      ],
      "type": "SCALAR"
    },
    {
      "bufferView": 8,
      "byteOffset": 93008,
      "componentType": 5126,
      "count": 41,
      "max": [
        0.7287336587905884,
        0.706701397895813,
        0.7934132218360901,
        0.8509035110473633
      ],
      "min": [
        -0.16590826213359833,
        -0.7110064029693604,
        -0.5706033706665039,
        -0.3840043842792511
      ],
      "type": "VEC4"
    },
    {
      "bufferView": 6,
      "byteOffset": 26600,
      "componentType": 5126,
      "count": 41,
      "max": [
        0.6666666865348816
      ],
      "min": [
        0.0
      ],
      "type": "SCALAR"
    },
    {
      "bufferView": 8,
      "byteOffset": 93664,
      "componentType": 5126,
      "count": 41,
      "max": [
        -0.02660311572253704,
        0.11006154865026474,
        0.08408672362565994,
        0.9994696974754333
      ],
      "min": [
        -0.03469480946660042,
        -0.044029757380485535,
        -0.035331495106220245,
        0.9900041222572327
      ],
      "type": "VEC4"
    },
    {
      "bufferView": 6,
      "byteOffset": 26764,
      "componentType": 5126,
      "count": 40,
      "max": [
        0.6666666865348816
      ],
      "min": [
        0.0
      ],
      "type": "SCALAR"
    },
    {
      "bufferView": 7,
      "byteOffset": 9552,
      "componentType": 5126,
      "count": 40,
      "max": [
        4.163336342344337e-17,
        0.19089029729366302,
        -1.30385160446167e-08
      ],
      "min": [
        -2.7755575615628914e-17,
        0.19089029729366302,
        -1.30385160446167e-08
      ],
      "type": "VEC3"
    },
    {
      "bufferView": 6,
      "byteOffset": 26924,
      "componentType": 5126,
      "count": 41,
      "max": [
        0.6666666865348816
      ],
      "min": [
        0.0
      ],
      "type": "SCALAR"
    },
    {
      "bufferView": 8,
      "byteOffset": 94320,
      "componentType": 5126,
      "count": 41,
      "max": [
        0.4654601514339447,
        0.06380227953195572,
        0.12296193838119507,
        0.8858612179756165
      ],
      "min": [
        0.4622860848903656,
        -0.024531809613108635,
        -0.0508447028696537,
        0.8747169375419617
      ],
      "type": "VEC4"
    },
    {
      "bufferView": 6,
      "byteOffset": 27088,
      "componentType": 5126,
      "count": 40,
      "max": [
        0.6666666865348816
      ],
      "min": [
        0.0
      ],
      "type": "SCALAR"
    },
    {
      "bufferView": 7,
      "byteOffset": 10032,
      "componentType": 5126,
      "count": 40,
      "max": [
        4.163336342344337e-17,
        0.19089029729366302,
        -1.30385160446167e-08
      ],
      "min": [
        -2.7755575615628914e-17,
        0.19089029729366302,
        -1.30385160446167e-08
      ],
      "type": "VEC3"
    },
    {
      "bufferView": 6,
      "byteOffset": 27248,
      "componentType": 5126,
      "count": 41,
      "max": [
        0.6666666865348816
      ],
      "min": [
        0.0
      ],
      "type": "SCALAR"
    },
    {
      "bufferView": 8,
      "byteOffset": 94976,
      "componentType": 5126,
      "count": 41,
      "max": [
        -0.4973115921020508,
        0.030238153412938118,
        0.11913522332906723,
        0.8623151779174805
      ],
      "min": [
        -0.5077458620071411,
        -0.07069200277328491,
        -0.047671400010585785,
        0.8564406633377075
      ],
      "type": "VEC4"
    },
    {
      "bufferView": 6,
      "byteOffset": 27412,
      "componentType": 5126,
      "count": 41,
      "max": [
        0.6666666865348816
      ],
      "min": [
        0.0
      ],
      "type": "SCALAR"
    },
    {
      "bufferView": 8,
      "byteOffset": 95632,
      "componentType": 5126,
      "count": 41,
      "max": [
        0.1369129717350006,
        0.009201060980558395,
        0.13742320239543915,
        0.9910784959793091
      ],
      "min": [
        0.13113583624362946,
        -0.017680808901786804,
        -0.05569831281900406,
        0.9808528423309326
      ],
      "type": "VEC4"
    },
    {
      "bufferView": 6,
      "byteOffset": 27576,
      "componentType": 5126,
      "count": 34,
      "max": [
        0.6666666865348816
      ],
      "min": [
        0.0
      ],
      "type": "SCALAR"
    },
    {
      "bufferView": 8,
      "byteOffset": 96288,
      "componentType": 5126,
      "count": 34,
      "max": [
        0.7060536742210388,
        0.08233854174613953,
        0.7060521841049194,
        -0.038591332733631134
      ],
      "min": [
        0.7022972106933594,
        0.03859125077724457,
        0.70229572057724,
        -0.08233871310949326
      ],
      "type": "VEC4"
    },
    {
      "bufferView": 6,
      "byteOffset": 27712,
      "componentType": 5126,
      "count": 41,
      "max": [
        0.6666666865348816
      ],
      "min": [
        0.0
      ],
      "type": "SCALAR"
    },
    {
      "bufferView": 7,
      "byteOffset": 10512,
      "componentType": 5126,
      "count": 41,
      "max": [
        0.009074154309928417,
        0.02206956408917904,
        0.23820433020591736
      ],
      "min": [
        -0.04537069797515869,
        0.01361121516674757,
        0.23157458007335663
      ],
      "type": "VEC3"
    },
    {
      "bufferView": 6,
      "byteOffset": 27876,
      "componentType": 5126,
      "count": 41,
      "max": [
        0.6666666865348816
      ],
      "min": [
        0.0
      ],
      "type": "SCALAR"
    },
    {
      "bufferView": 8,
      "byteOffset": 96832,
      "componentType": 5126,
      "count": 41,
      "max": [
        0.7758750319480896,
        0.15726426243782043,
        0.7304253578186035,
        0.16954460740089417
      ],
      "min": [
        0.6600731015205383,
        0.05290862172842026,
        0.6053703427314758,
        0.07778341323137283
      ],
      "type": "VEC4"
    },
    {
      "bufferView": 6,
      "byteOffset": 28040,
      "componentType": 5126,
      "count": 41,
      "max": [
        0.6666666865348816
      ],
      "min": [
        0.0
      ],
      "type": "SCALAR"
    },
    {
      "bufferView": 7,
      "byteOffset": 11004,
      "componentType": 5126,
      "count": 41,
      "max": [
        0.22152957320213318,
        -0.057704512029886246,
        0.23809358477592468
      ],
      "min": [
        0.21769927442073822,
        -0.254815012216568,
        0.09871217608451843
      ],
      "type": "VEC3"
    },
    {
      "bufferView": 6,
      "byteOffset": 28204,
      "componentType": 5126,
      "count": 41,
      "max": [
        0.6666666865348816
      ],
      "min": [
        0.0
      ],
      "type": "SCALAR"
    },
    {
      "bufferView": 8,
      "byteOffset": 97488,
      "componentType": 5126,
      "count": 41,
      "max": [
        0.9902181029319763,
        0.08639775961637497,
        0.10538361966609955,
        0.6595756411552429
      ],
      "min": [
        -0.8394674062728882,
        -0.10799911618232727,
        -0.13776163756847382,
        -0.4855159819126129
      ],
      "type": "VEC4"
    },
    {
      "bufferView": 6,
      "byteOffset": 28368,
      "componentType": 5126,
      "count": 41,
      "max": [
        0.6666666865348816
      ],
      "min": [
        0.0
      ],
      "type": "SCALAR"
    },
    {
      "bufferView": 7,
      "byteOffset": 11496,
      "componentType": 5126,
      "count": 41,
      "max": [
        -0.21694326400756836,
        -0.057704512029886246,
        0.21686241030693054
      ],
      "min": [
        -0.2200455367565155,
        -0.28758272528648376,
        0.09820230305194855
      ],
      "type": "VEC3"
    },
    {
      "bufferView": 6,
      "byteOffset": 28532,
      "componentType": 5126,
      "count": 41,
      "max": [
        0.6666666865348816
      ],
      "min": [
        0.0
      ],
      "type": "SCALAR"
    },
    {
      "bufferView": 8,
      "byteOffset": 98144,
      "componentType": 5126,
      "count": 41,
      "max": [
        0.9902075529098511,
        0.11247309297323227,
        0.13878153264522552,
        0.6978975534439087
      ],
      "min": [
        -0.8493984341621399,
        -0.08786681294441223,
        -0.10711956769227982,
        -0.497109055519104
      ],
      "type": "VEC4"
    },
    {
      "bufferView": 6,
      "byteOffset": 28696,
      "componentType": 5126,
      "count": 41,
      "max": [
        0.6666666865348816
      ],
      "min": [
        0.0
      ],
      "type": "SCALAR"
    },
    {
      "bufferView": 7,
      "byteOffset": 11988,
      "componentType": 5126,
      "count": 41,
      "max": [
        0.10783399641513824,
        0.26980194449424744,
        0.11642537266016006
      ],
      "min": [
        0.10783399641513824,
        -0.007841542363166809,
        0.06558752059936523
      ],
      "type": "VEC3"
    },
    {
      "bufferView": 6,
      "byteOffset": 28860,
      "componentType": 5126,
      "count": 41,
      "max": [
        0.6666666865348816
      ],
      "min": [
        0.0
      ],
      "type": "SCALAR"
    },
    {
      "bufferView": 8,
      "byteOffset": 98800,
      "componentType": 5126,
      "count": 41,
      "max": [
        0.9294469952583313,
        0.04664836823940277,
        0.04650511592626572,
        0.932309091091156
      ],
      "min": [
        -0.855661153793335,
        -0.024654604494571686,
        -0.042813222855329514,
        -0.4927435517311096
      ],
      "type": "VEC4"
    },
    {
      "bufferView": 6,
      "byteOffset": 29024,
      "componentType": 5126,
      "count": 41,
      "max": [
        0.6666666865348816
      ],
      "min": [
        0.0
      ],
      "type": "SCALAR"
    },
    {
      "bufferView": 7,
      "byteOffset": 12480,
      "componentType": 5126,
      "count": 41,
      "max": [
        -0.10783399641513824,
        0.24774675071239471,
        0.1351349651813507
      ],
      "min": [
        -0.10783399641513824,
        -0.007841542363166809,
        0.06558752059936523
      ],
      "type": "VEC3"
    },
    {
      "bufferView": 6,
      "byteOffset": 29188,
      "componentType": 5126,
      "count": 41,
      "max": [
        0.6666666865348816
      ],
      "min": [
        0.0
      ],
      "type": "SCALAR"
    },
    {
      "bufferView": 8,
      "byteOffset": 99456,
      "componentType": 5126,
      "count": 41,
      "max": [
        0.9294469952583313,
        0.024766631424427032,
        0.04307539016008377,
        0.8767250776290894
      ],
      "min": [
        -0.8609006404876709,
        -0.04386723041534424,
        -0.04650511592626572,
        -0.49498289823532104
      ],
      "type": "VEC4"
    }
  ],
  "animations": [
    {
      "channels": [
        {
          "sampler": 0,
          "target": {
            "node": 11,
            "path": "translation"
          }
        },
        {
          "sampler": 1,
          "target": {
            "node": 11,
            "path": "rotation"
          }
        },
        {
          "sampler": 2,
          "target": {
            "node": 12,
            "path": "rotation"
          }
        },
        {
          "sampler": 3,
          "target": {
            "node": 16,
            "path": "rotation"
          }
        },
        {
          "sampler": 4,
          "target": {
            "node": 15,
            "path": "rotation"
          }
        },
        {
          "sampler": 5,
          "target": {
            "node": 14,
            "path": "rotation"
          }
        },
        {
          "sampler": 6,
          "target": {
            "node": 13,
            "path": "rotation"
          }
        },
        {
          "sampler": 7,
          "target": {
            "node": 20,
            "path": "rotation"
          }
        },
        {
          "sampler": 8,
          "target": {
            "node": 19,
            "path": "rotation"
          }
        },
        {
          "sampler": 9,
          "target": {
            "node": 18,
            "path": "rotation"
          }
        },
        {
          "sampler": 10,
          "target": {
            "node": 17,
            "path": "rotation"
          }
        },
        {
          "sampler": 11,
          "target": {
            "node": 24,
            "path": "rotation"
          }
        },
        {
          "sampler": 12,
          "target": {
            "node": 23,
            "path": "rotation"
          }
        },
        {
          "sampler": 13,
          "target": {
            "node": 22,
            "path": "rotation"
          }
        },
        {
          "sampler": 14,
          "target": {
            "node": 21,
            "path": "rotation"
          }
        },
        {
          "sampler": 15,
          "target": {
            "node": 28,
            "path": "rotation"
          }
        },
        {
          "sampler": 16,
          "target": {
            "node": 27,
            "path": "rotation"
          }
        },
        {
          "sampler": 17,
          "target": {
            "node": 26,
            "path": "rotation"
          }
        },
        {
          "sampler": 18,
          "target": {
            "node": 25,
            "path": "rotation"
          }
        },
        {
          "sampler": 19,
          "target": {
            "node": 32,
            "path": "rotation"
          }
        },
        {
          "sampler": 20,
          "target": {
            "node": 31,
            "path": "rotation"
          }
        },
        {
          "sampler": 21,
          "target": {
            "node": 33,
            "path": "rotation"
          }
        },
        {
          "sampler": 22,
          "target": {
            "node": 30,
            "path": "translation"
          }
        },
        {
          "sampler": 23,
          "target": {
            "node": 30,
            "path": "rotation"
          }
        },
        {
          "sampler": 24,
          "target": {
            "node": 29,
            "path": "rotation"
          }
        },
        {
          "sampler": 25,
          "target": {
            "node": 10,
            "path": "translation"
          }
        },
        {
          "sampler": 26,
          "target": {
            "node": 10,
            "path": "rotation"
          }
        }
      ],
      "name": "tralalero|idle",
      "samplers": [
        {
          "input": 10,
          "interpolation": "LINEAR",
          "output": 11
        },
        {
          "input": 12,
          "interpolation": "LINEAR",
          "output": 13
        },
        {
          "input": 14,
          "interpolation": "LINEAR",
          "output": 15
        },
        {
          "input": 16,
          "interpolation": "LINEAR",
          "output": 17
        },
        {
          "input": 18,
          "interpolation": "LINEAR",
          "output": 19
        },
        {
          "input": 20,
          "interpolation": "LINEAR",
          "output": 21
        },
        {
          "input": 22,
          "interpolation": "LINEAR",
          "output": 23
        },
        {
          "input": 24,
          "interpolation": "LINEAR",
          "output": 25
        },
        {
          "input": 26,
          "interpolation": "LINEAR",
          "output": 27
        },
        {
          "input": 28,
          "interpolation": "LINEAR",
          "output": 29
        },
        {
          "input": 30,
          "interpolation": "LINEAR",
          "output": 31
        },
        {
          "input": 32,
          "interpolation": "LINEAR",
          "output": 33
        },
        {
          "input": 34,
          "interpolation": "LINEAR",
          "output": 35
        },
        {
          "input": 36,
          "interpolation": "LINEAR",
          "output": 37
        },
        {
          "input": 38,
          "interpolation": "LINEAR",
          "output": 39
        },
        {
          "input": 40,
          "interpolation": "LINEAR",
          "output": 41
        },
        {
          "input": 42,
          "interpolation": "LINEAR",
          "output": 43
        },
        {
          "input": 44,
          "interpolation": "LINEAR",
          "output": 45
        },
        {
          "input": 46,
          "interpolation": "LINEAR",
          "output": 47
        },
        {
          "input": 48,
          "interpolation": "LINEAR",
          "output": 49
        },
        {
          "input": 50,
          "interpolation": "LINEAR",
          "output": 51
        },
        {
          "input": 52,
          "interpolation": "LINEAR",
          "output": 53
        },
        {
          "input": 54,
          "interpolation": "LINEAR",
          "output": 55
        },
        {
          "input": 56,
          "interpolation": "LINEAR",
          "output": 57
        },
        {
          "input": 58,
          "interpolation": "LINEAR",
          "output": 59
        },
        {
          "input": 60,
          "interpolation": "LINEAR",
          "output": 61
        },
        {
          "input": 62,
          "interpolation": "LINEAR",
          "output": 63
        }
      ]
    },
    {
      "channels": [
        {
          "sampler": 0,
          "target": {
            "node": 11,
            "path": "translation"
          }
        },
        {
          "sampler": 1,
          "target": {
            "node": 11,
            "path": "rotation"
          }
        },
        {
          "sampler": 2,
          "target": {
            "node": 12,
            "path": "rotation"
          }
        },
        {
          "sampler": 3,
          "target": {
            "node": 16,
            "path": "rotation"
          }
        },
        {
          "sampler": 4,
          "target": {
            "node": 15,
            "path": "scale"
          }
        },
        {
          "sampler": 5,
          "target": {
            "node": 15,
            "path": "rotation"
          }
        },
        {
          "sampler": 6,
          "target": {
            "node": 14,
            "path": "scale"
          }
        },
        {
          "sampler": 7,
          "target": {
            "node": 14,
            "path": "rotation"
          }
        },
        {
          "sampler": 8,
          "target": {
            "node": 13,
            "path": "scale"
          }
        },
        {
          "sampler": 9,
          "target": {
            "node": 13,
            "path": "rotation"
          }
        },
        {
          "sampler": 10,
          "target": {
            "node": 20,
            "path": "rotation"
          }
        },
        {
          "sampler": 11,
          "target": {
            "node": 19,
            "path": "scale"
          }
        },
        {
          "sampler": 12,
          "target": {
            "node": 19,
            "path": "rotation"
          }
        },
        {
          "sampler": 13,
          "target": {
            "node": 18,
            "path": "rotation"
          }
        },
        {
          "sampler": 14,
          "target": {
            "node": 17,
            "path": "scale"
          }
        },
        {
          "sampler": 15,
          "target": {
            "node": 17,
            "path": "rotation"
          }
        },
        {
          "sampler": 16,
          "target": {
            "node": 24,
            "path": "translation"
          }
        },
        {
          "sampler": 17,
          "target": {
            "node": 24,
            "path": "rotation"
          }
        },
        {
          "sampler": 18,
          "target": {
            "node": 23,
            "path": "scale"
          }
        },
        {
          "sampler": 19,
          "target": {
            "node": 23,
            "path": "rotation"
          }
        },
        {
          "sampler": 20,
          "target": {
            "node": 22,
            "path": "scale"
          }
        },
        {
          "sampler": 21,
          "target": {
            "node": 22,
            "path": "rotation"
          }
        },
        {
          "sampler": 22,
          "target": {
            "node": 21,
            "path": "rotation"
          }
        },
        {
          "sampler": 23,
          "target": {
            "node": 28,
            "path": "rotation"
          }
        },
        {
          "sampler": 24,
          "target": {
            "node": 27,
            "path": "translation"
          }
        },
        {
          "sampler": 25,
          "target": {
            "node": 27,
            "path": "rotation"
          }
        },
        {
          "sampler": 26,
          "target": {
            "node": 26,
            "path": "rotation"
          }
        },
        {
          "sampler": 27,
          "target": {
            "node": 25,
            "path": "rotation"
          }
        },
        {
          "sampler": 28,
          "target": {
            "node": 32,
            "path": "rotation"
          }
        },
        {
          "sampler": 29,
          "target": {
            "node": 31,
            "path": "translation"
          }
        },
        {
          "sampler": 30,
          "target": {
            "node": 31,
            "path": "rotation"
          }
        },
        {
          "sampler": 31,
          "target": {
            "node": 33,
            "path": "translation"
          }
        },
        {
          "sampler": 32,
          "target": {
            "node": 33,
            "path": "rotation"
          }
        },
        {
          "sampler": 33,
          "target": {
            "node": 30,
            "path": "rotation"
          }
        },
        {
          "sampler": 34,
          "target": {
            "node": 29,
            "path": "rotation"
          }
        },
        {
          "sampler": 35,
          "target": {
            "node": 10,
            "path": "translation"
          }
        },
        {
          "sampler": 36,
          "target": {
            "node": 10,
            "path": "rotation"
          }
        },
        {
          "sampler": 37,
          "target": {
            "node": 34,
            "path": "translation"
          }
        },
        {
          "sampler": 38,
          "target": {
            "node": 34,
            "path": "rotation"
          }
        },
        {
          "sampler": 39,
          "target": {
            "node": 35,
            "path": "translation"
          }
        },
        {
          "sampler": 40,
          "target": {
            "node": 35,
            "path": "rotation"
          }
        },
        {
          "sampler": 41,
          "target": {
            "node": 36,
            "path": "translation"
          }
        },
        {
          "sampler": 42,
          "target": {
            "node": 36,
            "path": "rotation"
          }
        },
        {
          "sampler": 43,
          "target": {
            "node": 37,
            "path": "translation"
          }
        },
        {
          "sampler": 44,
          "target": {
            "node": 37,
            "path": "rotation"
          }
        }
      ],
      "name": "tralalero|walk",
      "samplers": [
        {
          "input": 64,
          "interpolation": "LINEAR",
          "output": 65
        },
        {
          "input": 66,
          "interpolation": "LINEAR",
          "output": 67
        },
        {
          "input": 68,
          "interpolation": "LINEAR",
          "output": 69
        },
        {
          "input": 70,
          "interpolation": "LINEAR",
          "output": 71
        },
        {
          "input": 72,
          "interpolation": "LINEAR",
          "output": 73
        },
        {
          "input": 74,
          "interpolation": "LINEAR",
          "output": 75
        },
        {
          "input": 76,
          "interpolation": "LINEAR",
          "output": 77
        },
        {
          "input": 78,
          "interpolation": "LINEAR",
          "output": 79
        },
        {
          "input": 80,
          "interpolation": "LINEAR",
          "output": 81
        },
        {
          "input": 82,
          "interpolation": "LINEAR",
          "output": 83
        },
        {
          "input": 84,
          "interpolation": "LINEAR",
          "output": 85
        },
        {
          "input": 86,
          "interpolation": "LINEAR",
          "output": 87
        },
        {
          "input": 88,
          "interpolation": "LINEAR",
          "output": 89
        },
        {
          "input": 90,
          "interpolation": "LINEAR",
          "output": 91
        },
        {
          "input": 92,
          "interpolation": "LINEAR",
          "output": 93
        },
        {
          "input": 94,
          "interpolation": "LINEAR",
          "output": 95
        },
        {
          "input": 96,
          "interpolation": "LINEAR",
          "output": 97
        },
        {
          "input": 98,
          "interpolation": "LINEAR",
          "output": 99
        },
        {
          "input": 100,
          "interpolation": "LINEAR",
          "output": 101
        },
        {
          "input": 102,
          "interpolation": "LINEAR",
          "output": 103
        },
        {
          "input": 104,
          "interpolation": "LINEAR",
          "output": 105
        },
        {
          "input": 106,
          "interpolation": "LINEAR",
          "output": 107
        },
        {
          "input": 108,
          "interpolation": "LINEAR",
          "output": 109
        },
        {
          "input": 110,
          "interpolation": "LINEAR",
          "output": 111
        },
        {
          "input": 112,
          "interpolation": "LINEAR",
          "output": 113
        },
        {
          "input": 114,
          "interpolation": "LINEAR",
          "output": 115
        },
        {
          "input": 116,
          "interpolation": "LINEAR",
          "output": 117
        },
        {
          "input": 118,
          "interpolation": "LINEAR",
          "output": 119
        },
        {
          "input": 120,
          "interpolation": "LINEAR",
          "output": 121
        },
        {
          "input": 122,
          "interpolation": "LINEAR",
          "output": 123
        },
        {
          "input": 124,
          "interpolation": "LINEAR",
          "output": 125
        },
        {
          "input": 126,
          "interpolation": "LINEAR",
          "output": 127
        },
        {
          "input": 128,
          "interpolation": "LINEAR",
          "output": 129
        },
        {
          "input": 130,
          "interpolation": "LINEAR",
          "output": 131
        },
        {
          "input": 132,
          "interpolation": "LINEAR",
          "output": 133
        },
        {
          "input": 134,
          "interpolation": "LINEAR",
          "output": 135
        },
        {
          "input": 136,
          "interpolation": "LINEAR",
          "output": 137
        },
        {
          "input": 138,
          "interpolation": "LINEAR",
          "output": 139
        },
        {
          "input": 140,
          "interpolation": "LINEAR",
          "output": 141
        },
        {
          "input": 142,
          "interpolation": "LINEAR",
          "output": 143
        },
        {
          "input": 144,
          "interpolation": "LINEAR",
          "output": 145
        },
        {
          "input": 146,
          "interpolation": "LINEAR",
          "output": 147
        },
        {
          "input": 148,
          "interpolation": "LINEAR",
          "output": 149
        },
        {
          "input": 150,
          "interpolation": "LINEAR",
          "output": 151
        },
        {
          "input": 152,
          "interpolation": "LINEAR",
          "output": 153
        }
      ]
    }
  ],
  "asset": {
    "extras": {
      "author": "shtran (https://sketchfab.com/shtran)",
      "license": "CC-BY-4.0 (http://creativecommons.org/licenses/by/4.0/)",
      "source": "https://sketchfab.com/3d-models/tralalero-tralala-03c50501041042839d50e04420c39f25",
      "title": "Tralalero Tralala"
    },
    "generator": "Sketchfab-16.65.0",
    "version": "2.0"
  },
  "bufferViews": [
    {
      "buffer": 0,
      "byteLength": 13824,
      "byteStride": 8,
      "name": "shortBufferViews",
      "target": 34962
    },
    {
      "buffer": 0,
      "byteLength": 36624,
      "byteOffset": 13824,
      "name": "floatBufferViews",
      "target": 34963
    },
    {
      "buffer": 0,
      "byteLength": 41472,
      "byteOffset": 50448,
      "byteStride": 8,
      "name": "floatBufferViews",
      "target": 34962
    },
    {
      "buffer": 0,
      "byteLength": 41472,
      "byteOffset": 91920,
      "byteStride": 12,
      "name": "floatBufferViews",
      "target": 34962
    },
    {
      "buffer": 0,
      "byteLength": 55296,
      "byteOffset": 133392,
      "byteStride": 16,
      "name": "floatBufferViews",
      "target": 34962
    },
    {
      "buffer": 0,
      "byteLength": 1856,
      "byteOffset": 188688,
      "name": "floatBufferViews"
    },
    {
      "buffer": 0,
      "byteLength": 29352,
      "byteOffset": 190544,
      "name": "floatBufferViews"
    },
    {
      "buffer": 0,
      "byteLength": 12972,
      "byteOffset": 219896,
      "byteStride": 12,
      "name": "floatBufferViews"
    },
    {
      "buffer": 0,
      "byteLength": 100112,
      "byteOffset": 232868,
      "byteStride": 16,
      "name": "floatBufferViews"
    }
  ],
  "buffers": [
    {
      "byteLength": 332980,
      "uri": "scene.bin"
    }
  ],
  "images": [
    {
      "uri": "textures/Material.003_baseColor.png"
    },
    {
      "uri": "textures/Material.003_metallicRoughness.png"
    },
    {
      "uri": "textures/Material.003_normal.png"
    }
  ],
  "materials": [
    {
      "doubleSided": true,
      "name": "Material.003",
      "normalTexture": {
        "index": 2
      },
      "pbrMetallicRoughness": {
        "baseColorTexture": {
          "index": 0
        },
        "metallicRoughnessTexture": {
          "index": 1
        }
      }
    }
  ],
  "meshes": [
    {
      "name": "tralala_Material.003_0",
      "primitives": [
        {
          "attributes": {
            "JOINTS_0": 8,
            "NORMAL": 1,
            "POSITION": 0,
            "TANGENT": 2,
            "TEXCOORD_0": 3,
            "TEXCOORD_1": 4,
            "TEXCOORD_2": 5,
            "WEIGHTS_0": 9
          },
          "indices": 6,
          "material": 0,
          "mode": 4
        }
      ]
    }
  ],
  "nodes": [
    {
      "children": [
        1
      ],
      "matrix": [
        1.0,
        0.0,
        0.0,
        0.0,
        0.0,
        2.220446049250313e-16,
        -1.0,
        0.0,
        0.0,
        1.0,
        2.220446049250313e-16,
        0.0,
        0.0,
        0.0,
        0.0,
        1.0
      ],
      "name": "Sketchfab_model"
    },
    {
      "children": [
        2
      ],
      "matrix": [
        0.009999999776482582,
        0.0,
        0.0,
        0.0,
        0.0,
        0.0,
        0.009999999776482582,
        0.0,
        0.0,
        -0.009999999776482582,
        0.0,
        0.0,
        0.0,
        0.0,
        0.0,
        1.0
      ],
      "name": "12662c153d394c869bd3adc8a376c397.fbx"
    },
    {
      "children": [
        3
      ],
      "name": "Object_2"
    },
    {
      "children": [
        4,
        5
      ],
      "name": "RootNode"
    },
    {
      "name": "tralala",
      "rotation": [
        -0.7071068286895752,
        0.0,
        0.0,
        0.7071067094802856
      ],
      "scale": [
        100.0,
        100.0,
        100.0
      ]
    },
    {
      "children": [
        6
      ],
      "name": "tralalero",
      "rotation": [
        -0.7071068286895752,
        0.0,
        0.0,
        0.7071067094802856
      ],
      "scale": [
        100.0,
        100.0,
        100.0
      ]
    },
    {
      "children": [
        7,
        9,
        8
      ],
      "name": "Object_6"
    },
    {
      "children": [
        10,
        34,
        35,
        36,
        37
      ],
      "name": "_rootJoint"
    },
    {
      "matrix": [
        99.99999952305232,
        1.4860931495802587e-12,
        8.595997177951455e-13,
        0.0,
        8.595997268876087e-13,
        1.1982571314542543e-06,
        -100.00000265237865,
        0.0,
        -1.4860931379886913e-12,
        99.99999804994268,
        1.1982570763052385e-06,
        0.0,
        3.8497276113463874e-13,
        2.5600135415970726e-06,
        -4.2803985688499116e-07,
        1.0
      ],
      "name": "Object_8"
    },
    {
      "mesh": 0,
      "name": "Object_9",
      "skin": 0
    },
    {
      "children": [
        11,
        12,
        13,
        17,
        21,
        25,
        29
      ],
      "name": "body_00",
      "rotation": [
        0.6926836371421814,
        0.14208973944187164,
        0.6926834583282471,
        0.14208975434303284
      ],
      "scale": [
        1.0,
        1.0000001192092896,
        1.000001072883606
      ],
      "translation": [
        0.0,
        0.0,
        0.27601325511932373
      ]
    },
    {
      "name": "head_01",
      "rotation": [
        8.675675644553849e-08,
        1.1717687442569513e-07,
        0.20094537734985352,
        0.9796024560928345
      ],
      "scale": [
        1.0000001192092896,
        0.9999999403953552,
        1.0
      ],
      "translation": [
        7.4505748237641e-09,
        0.18506883084774017,
        1.3234889800848443e-23
      ]
    },
    {
      "name": "blade_02",
      "rotation": [
        4.742797443668678e-08,
        1.5413041865031119e-07,
        -0.7194405794143677,
        0.6945540904998779
      ],
      "translation": [
        0.11405996978282928,
        0.1384434849023819,
        -2.5117586233136535e-08
      ]
    },
    {
      "children": [
        14
      ],
      "name": "arm1.L_03",
      "rotation": [
        0.7901157140731812,
        -0.2664701044559479,
        0.2303893119096756,
        0.5016289949417114
      ],
      "scale": [
        1.0000004768371582,
        1.0000003576278687,
        1.0000007152557373
      ],
      "translation": [
        -0.045387037098407745,
        0.11764490604400635,
        0.10712513327598572
      ]
    },
    {
      "children": [
        15
      ],
      "name": "arm2.L_04",
      "rotation": [
        0.03513050451874733,
        0.001890054321847856,
        0.13760779798030853,
        0.9898619055747986
      ],
      "scale": [
        0.9999994039535522,
        1.0000007152557373,
        0.9999999403953552
      ],
      "translation": [
        -2.60770320892334e-08,
        0.09092971682548523,
        -2.2351741790771484e-08
      ]
    },
    {
      "children": [
        16
      ],
      "name": "arm.foot.L_05",
      "rotation": [
        -0.29057762026786804,
        -0.0012642622459679842,
        0.322806715965271,
        0.9007546305656433
      ],
      "scale": [
        0.9999969005584717,
        1.0000003576278687,
        0.9999997019767761
      ],
      "translation": [
        3.725290298461914e-09,
        0.1160130724310875,
        2.0489096641540527e-08
      ]
    },
    {
      "name": "arm.toe.L_06",
      "rotation": [
        -0.26159942150115967,
        -0.009982658550143242,
        0.08031072467565536,
        0.9617776870727539
      ],
      "scale": [
        1.0,
        1.0000001192092896,
        1.0000001192092896
      ],
      "translation": [
        -1.3969838619232178e-08,
        0.09821920841932297,
        -5.587935447692871e-09
      ]
    },
    {
      "children": [
        18
      ],
      "name": "leg1.L_07",
      "rotation": [
        0.677270770072937,
        -0.09266014397144318,
        0.6823127865791321,
        0.2591673731803894
      ],
      "scale": [
        0.9999976754188538,
        0.9999994039535522,
        0.9999993443489075
      ],
      "translation": [
        -0.021784204989671707,
        -0.11828987300395966,
        0.07193171977996826
      ]
    },
    {
      "children": [
        19
      ],
      "name": "leg2.L_08",
      "rotation": [
        -0.08885500580072403,
        -0.003531967056915164,
        0.004481203854084015,
        0.9960282444953918
      ],
      "scale": [
        0.9999998211860657,
        0.9999999403953552,
        0.9999999403953552
      ],
      "translation": [
        2.2351741790771484e-08,
        0.08191195130348206,
        7.450580596923828e-09
      ]
    },
    {
      "children": [
        20
      ],
      "name": "leg.foot.L_09",
      "rotation": [
        -0.6042315363883972,
        -0.06045498326420784,
        0.020972969010472298,
        0.7942352294921875
      ],
      "scale": [
        1.000001311302185,
        1.0000011920928955,
        1.0000003576278687
      ],
      "translation": [
        1.7695128917694092e-08,
        0.08691376447677612,
        6.51925802230835e-09
      ]
    },
    {
      "name": "leg.toe.L_010",
      "rotation": [
        -0.33094659447669983,
        -1.8981042160248762e-07,
        -0.033201221376657486,
        0.943065345287323
      ],
      "scale": [
        0.9999999403953552,
        1.0,
        0.9999999403953552
      ],
      "translation": [
        -1.0244548320770264e-08,
        0.07173150032758713,
        -5.587935447692871e-09
      ]
    },
    {
      "children": [
        22
      ],
      "name": "arm1.R_011",
      "rotation": [
        0.2303919941186905,
        -0.5016269087791443,
        0.790115237236023,
        0.2664735019207001
      ],
      "scale": [
        0.9999995827674866,
        0.9999992847442627,
        0.9999991655349731
      ],
      "translation": [
        -0.04538709670305252,
        0.11764483153820038,
        -0.10712508857250214
      ]
    },
    {
      "children": [
        23
      ],
      "name": "arm2.R_012",
      "rotation": [
        0.035128403455019,
        -0.0018901019357144833,
        -0.13760004937648773,
        0.9898630380630493
      ],
      "scale": [
        0.999999463558197,
        1.0000003576278687,
        0.9999998807907104
      ],
      "translation": [
        7.450580596923828e-09,
        0.09092983603477478,
        -3.725290298461914e-09
      ]
    },
    {
      "children": [
        24
      ],
      "name": "arm.foot.R_013",
      "rotation": [
        -0.29057690501213074,
        0.0012655912432819605,
        -0.3228098154067993,
        0.9007537364959717
      ],
      "scale": [
        0.9999985694885254,
        1.0000015497207642,
        1.000001072883606
      ],
      "translation": [
        -3.725290298461914e-09,
        0.11601309478282928,
        1.6763806343078613e-08
      ]
    },
    {
      "name": "arm.toe.R_014",
      "rotation": [
        -0.26159948110580444,
        0.009982633404433727,
        -0.08031076937913895,
        0.9617776274681091
      ],
      "scale": [
        1.0,
        1.0,
        1.0000001192092896
      ],
      "translation": [
        1.4435499906539917e-08,
        0.09821922332048416,
        -5.587935447692871e-09
      ]
    },
    {
      "children": [
        26
      ],
      "name": "leg1.R_015",
      "rotation": [
        0.6823135018348694,
        -0.2591642141342163,
        0.6772717237472534,
        0.09265656769275665
      ],
      "scale": [
        1.0000009536743164,
        1.0000004768371582,
        1.0
      ],
      "translation": [
        -0.0217842236161232,
        -0.11828991770744324,
        -0.07193174958229065
      ]
    },
    {
      "children": [
        27
      ],
      "name": "leg2.R_016",
      "rotation": [
        -0.08886454254388809,
        0.003531716763973236,
        -0.004481739830225706,
        0.9960274696350098
      ],
      "scale": [
        1.0,
        1.0000001192092896,
        0.9999997019767761
      ],
      "translation": [
        3.725290298461914e-09,
        0.08191200345754623,
        -1.257285475730896e-08
      ]
    },
    {
      "children": [
        28
      ],
      "name": "leg.foot.R_017",
      "rotation": [
        -0.6042281985282898,
        0.060456108301877975,
        -0.02097274176776409,
        0.7942377924919128
      ],
      "scale": [
        0.9999979734420776,
        1.0000001192092896,
        0.9999995827674866
      ],
      "translation": [
        -6.51925802230835e-09,
        0.08691376447677612,
        8.381903171539307e-09
      ]
    },
    {
      "name": "leg.toe.R_018",
      "rotation": [
        -0.33094653487205505,
        8.927663941449282e-08,
        0.03320113942027092,
        0.9430652856826782
      ],
      "scale": [
        1.0,
        1.0,
        0.9999999403953552
      ],
      "translation": [
        -2.0954757928848267e-09,
        0.07173146307468414,
        1.7695128917694092e-08
      ]
    },
    {
      "children": [
        30
      ],
      "name": "tail1_019",
      "rotation": [
        0.7060536742210388,
        0.03859122097492218,
        0.7060521841049194,
        -0.038591302931308746
      ],
      "scale": [
        1.0000351667404175,
        0.9999998807907104,
        0.9999999403953552
      ],
      "translation": [
        -1.3095034390175897e-08,
        3.057585118426687e-08,
        -6.951787145936805e-09
      ]
    },
    {
      "children": [
        31,
        33
      ],
      "name": "tail2_020",
      "rotation": [
        0.1313452571630478,
        8.904159187750338e-08,
        -1.6013001413739403e-07,
        0.9913367033004761
      ],
      "translation": [
        -9.769962616701378e-15,
        0.18347863852977753,
        -7.4505646097122735e-09
      ]
    },
    {
      "children": [
        32
      ],
      "name": "tail3_021",
      "rotation": [
        0.462361216545105,
        2.161322676386135e-08,
        -5.12619521941815e-07,
        0.886691689491272
      ],
      "scale": [
        1.0,
        0.9999998807907104,
        1.0
      ],
      "translation": [
        1.9539925233402755e-14,
        0.19089028239250183,
        4.656640406608403e-09
      ]
    },
    {
      "name": "tail4_022",
      "rotation": [
        -0.03471134230494499,
        7.57103677528903e-08,
        3.500886691654159e-08,
        0.9993973970413208
      ],
      "scale": [
        1.0,
        1.0,
        1.0000001192092896
      ],
      "translation": [
        4.263256414560601e-14,
        0.15049749612808228,
        -1.4901168299275014e-08
      ]
    },
    {
      "name": "tail5_023",
      "rotation": [
        -0.5085628032684326,
        1.7838692656368949e-07,
        4.7087550569813175e-07,
        0.8610249161720276
      ],
      "scale": [
        1.0,
        0.9999999403953552,
        1.0
      ],
      "translation": [
        1.9539925233402755e-14,
        0.19089028239250183,
        4.656640406608403e-09
      ]
    },
    {
      "name": "arm.foot.IK.L_024",
      "rotation": [
        0.9242779016494751,
        0.06961221247911453,
        -0.12089288979768753,
        -0.3553158640861511
      ],
      "scale": [
        1.0,
        1.0,
        1.0000001192092896
      ],
      "translation": [
        0.21950165927410126,
        -0.11971113085746765,
        0.10941722989082336
      ]
    },
    {
      "name": "arm.foot.IK.R_025",
      "rotation": [
        0.9242779016494751,
        -0.06961221247911453,
        0.12089288979768753,
        -0.3553158640861511
      ],
      "scale": [
        1.0,
        1.0,
        1.0000001192092896
      ],
      "translation": [
        -0.21950165927410126,
        -0.11971113085746765,
        0.10941722989082336
      ]
    },
    {
      "name": "leg.foot.IK.L_026",
      "rotation": [
        0.9294471144676208,
        -0.018290739506483078,
        0.04650511592626572,
        -0.36555570363998413
      ],
      "scale": [
        1.0,
        1.0,
        1.000000238418579
      ],
      "translation": [
        0.10783399641513824,
        0.187252476811409,
        0.07012458145618439
      ]
    },
    {
      "name": "leg.foot.IK.R_027",
      "rotation": [
        0.9294471144676208,
        0.018290739506483078,
        -0.04650511592626572,
        -0.36555570363998413
      ],
      "scale": [
        1.0,
        1.0,
        1.000000238418579
      ],
      "translation": [
        -0.10783399641513824,
        0.187252476811409,
        0.07012458145618439
      ]
    }
  ],
  "samplers": [
    {
      "magFilter": 9729,
      "minFilter": 9987,
      "wrapS": 10497,
      "wrapT": 10497
    }
  ],
  "scene": 0,
  "scenes": [
    {
      "name": "Sketchfab_Scene",
      "nodes": [
        0
      ]
    }
  ],
  "skins": [
    {
      "inverseBindMatrices": 7,
      "joints": [
        7,
        10,
        11,
        12,
        13,
        14,
        15,
        16,
        17,
        18,
        19,
        20,
        21,
        22,
        23,
        24,
        25,
        26,
        27,
        28,
        29,
        30,
        31,
        32,
        33,
        34,
        35,
        36,
        37
      ],
      "skeleton": 7
    }
  ],
  "textures": [
    {
      "sampler": 0,
      "source": 0
    },
    {
      "sampler": 0,
      "source": 1
    },
    {
      "sampler": 0,
      "source": 2
    }
  ]
}
