{
  "accessors": [
    {
      "bufferView": 3,
      "componentType": 5126,
      "count": 5711,
      "max": [
        3.2024405002593994,
        4.901250839233398,
        0.7430188655853271
      ],
      "min": [
        -2.9971957206726074,
        0.0008204364567063749,
        -4.612053871154785
      ],
      "type": "VEC3"
    },
    {
      "bufferView": 3,
      "byteOffset": 68532,
      "componentType": 5126,
      "count": 5711,
      "max": [
        0.9998838305473328,
        0.9999023079872131,
        0.9993630647659302
      ],
      "min": [
        -0.999883770942688,
        -0.9998181462287903,
        -0.9996632933616638
      ],
      "type": "VEC3"
    },
    {
      "bufferView": 2,
      "componentType": 5126,
      "count": 5711,
      "max": [
        0.997839093208313,
        0.9990178346633911
      ],
      "min": [
        0.0009821653366088867,
        0.0009821653366088867
      ],
      "type": "VEC2"
    },
    {
      "bufferView": 1,
      "componentType": 5125,
      "count": 21444,
      "type": "SCALAR"
    },
    {
      "bufferView": 5,
      "componentType": 5126,
      "count": 19,
      "max": [
        100.0,
        0.9767448306083679,
        0.343784362077713,
        0.0,
        0.9985263347625732,
        100.0,
        0.10224457085132599,
        0.0,
        0.017495177686214447,
        0.20752373337745667,
        100.0,
        0.0,
        3.259340763092041,
        1.3887994289398193,
        0.5042721629142761,
        1.0
      ],
      "min": [
        -1.0,
        -0.9767448306083679,
        -0.343784362077713,
        0.0,
        -0.9985263347625732,
        -0.999972403049469,
        -0.006426725070923567,
        0.0,
        -0.017495177686214447,
        -0.3552917242050171,
        -1.0,
        0.0,
        -3.259340763092041,
        -3.226315975189209,
        -0.18733811378479004,
        1.0
      ],
      "type": "MAT4"
    },
    {
      "bufferView": 0,
      "componentType": 5123,
      "count": 5711,
      "type": "VEC4"
    },
    {
      "bufferView": 4,
      "componentType": 5126,
      "count": 5711,
      "max": [
        1.0,
        0.5,
        0.0,
        0.0
      ],
      "min": [
        0.5,
        0.0,
        0.0,
        0.0
      ],
      "type": "VEC4"
    },
    {
      "bufferView": 6,
      "componentType": 5126,
      "count": 176,
      "max": [
        5.833333492279053
      ],
      "min": [
        0.0
      ],
      "type": "SCALAR"
    },
    {
      "bufferView": 7,
      "componentType": 5126,
      "count": 176,
      "max": [
        1.4901161193847656e-08,
        0.7314869165420532,
        1.9650906324386597e-07
      ],
      "min": [
        -1.4901161193847656e-07,
        0.7314867973327637,
        -1.0151416063308716e-07
      ],
      "type": "VEC3"
    },
    {
      "bufferView": 6,
      "byteOffset": 704,
      "componentType": 5126,
      "count": 4,
      "max": [
        5.833333492279053
      ],
      "min": [
        0.0
      ],
      "type": "SCALAR"
    },
    {
      "bufferView": 7,
      "byteOffset": 2112,
      "componentType": 5126,
      "count": 4,
      "max": [
        1.0,
        1.0000001192092896,
        0.9999999403953552
      ],
      "min": [
        1.0,
        1.0000001192092896,
        0.9999998807907104
      ],
      "type": "VEC3"
    },
    {
      "bufferView": 6,
      "byteOffset": 720,
      "componentType": 5126,
      "count": 176,
      "max": [
        5.833333492279053
      ],
      "min": [
        0.0
      ],
      "type": "SCALAR"
    },
    {
      "bufferView": 8,
      "componentType": 5126,
      "count": 176,
      "max": [
        0.002676571486517787,
        -0.018105879426002502,
        -0.0491148866713047,
        0.9986253976821899
      ],
      "min": [
        0.0026765712536871433,
        -0.01810588873922825,
        -0.0491148941218853,
        0.9986253976821899
      ],
      "type": "VEC4"
    },
    {
      "bufferView": 6,
      "byteOffset": 1424,
      "componentType": 5126,
      "count": 236,
      "max": [
        5.833333492279053
      ],
      "min": [
        0.0
      ],
      "type": "SCALAR"
    },
    {
      "bufferView": 7,
      "byteOffset": 2160,
      "componentType": 5126,
      "count": 236,
      "max": [
        1.341104507446289e-07,
        0.6643417477607727,
        2.2351741790771484e-08
      ],
      "min": [
        -7.636845111846924e-08,
        0.6643415093421936,
        -1.862645149230957e-08
      ],
      "type": "VEC3"
    },
    {
      "bufferView": 6,
      "byteOffset": 2368,
      "componentType": 5126,
      "count": 4,
      "max": [
        5.833333492279053
      ],
      "min": [
        0.0
      ],
      "type": "SCALAR"
    },
    {
      "bufferView": 7,
      "byteOffset": 4992,
      "componentType": 5126,
      "count": 4,
      "max": [
        1.0000001192092896,
        1.0,
        0.9999999403953552
      ],
      "min": [
        1.0,
        1.0,
        0.9999998807907104
      ],
      "type": "VEC3"
    },
    {
      "bufferView": 6,
      "byteOffset": 2384,
      "componentType": 5126,
      "count": 236,
      "max": [
        5.833333492279053
      ],
      "min": [
        0.0
      ],
      "type": "SCALAR"
    },
    {
      "bufferView": 8,
      "byteOffset": 2816,
      "componentType": 5126,
      "count": 236,
      "max": [
        0.30916035175323486,
        0.01970217376947403,
        -0.11346219480037689,
        0.9737175107002258
      ],
      "min": [
        0.19366584718227386,
        -0.03290996327996254,
        -0.11824223399162292,
        0.943612813949585
      ],
      "type": "VEC4"
    },
    {
      "bufferView": 6,
      "byteOffset": 3328,
      "componentType": 5126,
      "count": 266,
      "max": [
        5.833333492279053
      ],
      "min": [
        0.0
      ],
      "type": "SCALAR"
    },
    {
      "bufferView": 7,
      "byteOffset": 5040,
      "componentType": 5126,
      "count": 266,
      "max": [
        1.8725404515862465e-07,
        1.072656512260437,
        2.9802322387695313e-08
      ],
      "min": [
        -6.05359673500061e-08,
        1.0726563930511475,
        -2.9802322387695313e-08
      ],
      "type": "VEC3"
    },
    {
      "bufferView": 6,
      "byteOffset": 4392,
      "componentType": 5126,
      "count": 4,
      "max": [
        5.833333492279053
      ],
      "min": [
        0.0
      ],
      "type": "SCALAR"
    },
    {
      "bufferView": 7,
      "byteOffset": 8232,
      "componentType": 5126,
      "count": 4,
      "max": [
        0.9999998807907104,
        1.0,
        1.0
      ],
      "min": [
        0.9999998807907104,
        0.9999999403953552,
        0.9999999403953552
      ],
      "type": "VEC3"
    },
    {
      "bufferView": 6,
      "byteOffset": 4408,
      "componentType": 5126,
      "count": 266,
      "max": [
        5.833333492279053
      ],
      "min": [
        0.0
      ],
      "type": "SCALAR"
    },
    {
      "bufferView": 8,
      "byteOffset": 6592,
      "componentType": 5126,
      "count": 266,
      "max": [
        0.22455675899982452,
        0.1904362291097641,
        -0.2874394357204437,
        0.9499058723449707
      ],
      "min": [
        -0.22632279992103577,
        -0.3171919882297516,
        -0.36864182353019714,
        0.8687368035316467
      ],
      "type": "VEC4"
    },
    {
      "bufferView": 6,
      "byteOffset": 5472,
      "componentType": 5126,
      "count": 176,
      "max": [
        5.833333492279053
      ],
      "min": [
        0.0
      ],
      "type": "SCALAR"
    },
    {
      "bufferView": 7,
      "byteOffset": 8280,
      "componentType": 5126,
      "count": 176,
      "max": [
        1.862645149230957e-09,
        0.8180798292160034,
        2.8405338525772095e-08
      ],
      "min": [
        4.656612873077393e-10,
        0.8180792927742004,
        -3.91155481338501e-08
      ],
      "type": "VEC3"
    },
    {
      "bufferView": 6,
      "byteOffset": 6176,
      "componentType": 5126,
      "count": 4,
      "max": [
        5.833333492279053
      ],
      "min": [
        0.0
      ],
      "type": "SCALAR"
    },
    {
      "bufferView": 7,
      "byteOffset": 10392,
      "componentType": 5126,
      "count": 4,
      "max": [
        0.9999998211860657,
        0.9999999403953552,
        1.0
      ],
      "min": [
        0.9999997615814209,
        0.9999999403953552,
        1.0
      ],
      "type": "VEC3"
    },
    {
      "bufferView": 6,
      "byteOffset": 6192,
      "componentType": 5126,
      "count": 176,
      "max": [
        5.833333492279053
      ],
      "min": [
        0.0
      ],
      "type": "SCALAR"
    },
    {
      "bufferView": 8,
      "byteOffset": 10848,
      "componentType": 5126,
      "count": 176,
      "max": [
        -6.886017445140169e-08,
        -9.341539453089354e-08,
        -0.8344147801399231,
        0.5511369705200195
      ],
      "min": [
        -7.139490065810605e-08,
        -1.0777886672030945e-07,
        -0.8344148397445679,
        0.5511369109153748
      ],
      "type": "VEC4"
    },
    {
      "bufferView": 6,
      "byteOffset": 6896,
      "componentType": 5126,
      "count": 281,
      "max": [
        5.833333492279053
      ],
      "min": [
        0.0
      ],
      "type": "SCALAR"
    },
    {
      "bufferView": 7,
      "byteOffset": 10440,
      "componentType": 5126,
      "count": 281,
      "max": [
        1.862645149230957e-09,
        0.8180798292160034,
        2.8405338525772095e-08
      ],
      "min": [
        4.656612873077393e-10,
        0.8180792927742004,
        -3.91155481338501e-08
      ],
      "type": "VEC3"
    },
    {
      "bufferView": 6,
      "byteOffset": 8020,
      "componentType": 5126,
      "count": 4,
      "max": [
        5.833333492279053
      ],
      "min": [
        0.0
      ],
      "type": "SCALAR"
    },
    {
      "bufferView": 7,
      "byteOffset": 13812,
      "componentType": 5126,
      "count": 4,
      "max": [
        1.0,
        1.0,
        1.0000001192092896
      ],
      "min": [
        1.0,
        1.0,
        1.0
      ],
      "type": "VEC3"
    },
    {
      "bufferView": 6,
      "byteOffset": 8036,
      "componentType": 5126,
      "count": 281,
      "max": [
        5.833333492279053
      ],
      "min": [
        0.0
      ],
      "type": "SCALAR"
    },
    {
      "bufferView": 8,
      "byteOffset": 13664,
      "componentType": 5126,
      "count": 281,
      "max": [
        0.07008440047502518,
        0.02602413296699524,
        0.01339647825807333,
        0.9999999403953552
      ],
      "min": [
        -0.07253160327672958,
        -0.06562326848506927,
        -0.006647669710218906,
        0.9973143339157104
      ],
      "type": "VEC4"
    },
    {
      "bufferView": 6,
      "byteOffset": 9160,
      "componentType": 5126,
      "count": 200,
      "max": [
        5.833333492279053
      ],
      "min": [
        0.0
      ],
      "type": "SCALAR"
    },
    {
      "bufferView": 7,
      "byteOffset": 13860,
      "componentType": 5126,
      "count": 200,
      "max": [
        1.0803341865539551e-07,
        0.7314869165420532,
        -1.1920928955078125e-07
      ],
      "min": [
        3.166496753692627e-08,
        0.7314867973327637,
        -1.7881393432617188e-07
      ],
      "type": "VEC3"
    },
    {
      "bufferView": 6,
      "byteOffset": 9960,
      "componentType": 5126,
      "count": 4,
      "max": [
        5.833333492279053
      ],
      "min": [
        0.0
      ],
      "type": "SCALAR"
    },
    {
      "bufferView": 7,
      "byteOffset": 16260,
      "componentType": 5126,
      "count": 4,
      "max": [
        1.0,
        1.0000001192092896,
        0.9999999403953552
      ],
      "min": [
        1.0,
        1.0,
        0.9999998807907104
      ],
      "type": "VEC3"
    },
    {
      "bufferView": 6,
      "byteOffset": 9976,
      "componentType": 5126,
      "count": 200,
      "max": [
        5.833333492279053
      ],
      "min": [
        0.0
      ],
      "type": "SCALAR"
    },
    {
      "bufferView": 8,
      "byteOffset": 18160,
      "componentType": 5126,
      "count": 200,
      "max": [
        0.18363161385059357,
        0.04643602296710014,
        0.052954550832509995,
        0.9986230731010437
      ],
      "min": [
        -0.0322142019867897,
        0.012711569666862488,
        0.028144879266619682,
        0.9814942479133606
      ],
      "type": "VEC4"
    },
    {
      "bufferView": 6,
      "byteOffset": 10776,
      "componentType": 5126,
      "count": 226,
      "max": [
        5.833333492279053
      ],
      "min": [
        0.0
      ],
      "type": "SCALAR"
    },
    {
      "bufferView": 7,
      "byteOffset": 16308,
      "componentType": 5126,
      "count": 226,
      "max": [
        -2.9802322387695313e-08,
        0.6643418073654175,
        -9.685754776000977e-08
      ],
      "min": [
        -1.7881393432617188e-07,
        0.6643415689468384,
        -1.7881393432617188e-07
      ],
      "type": "VEC3"
    },
    {
      "bufferView": 6,
      "byteOffset": 11680,
      "componentType": 5126,
      "count": 8,
      "max": [
        5.833333492279053
      ],
      "min": [
        0.0
      ],
      "type": "SCALAR"
    },
    {
      "bufferView": 7,
      "byteOffset": 19020,
      "componentType": 5126,
      "count": 8,
      "max": [
        1.0,
        0.9999999403953552,
        1.0
      ],
      "min": [
        1.0,
        0.9999998807907104,
        0.9999998211860657
      ],
      "type": "VEC3"
    },
    {
      "bufferView": 6,
      "byteOffset": 11712,
      "componentType": 5126,
      "count": 226,
      "max": [
        5.833333492279053
      ],
      "min": [
        0.0
      ],
      "type": "SCALAR"
    },
    {
      "bufferView": 8,
      "byteOffset": 21360,
      "componentType": 5126,
      "count": 226,
      "max": [
        0.41378137469291687,
        0.0403008870780468,
        0.13453267514705658,
        0.9376609921455383
      ],
      "min": [
        0.3203926384449005,
        0.009932801127433777,
        0.12144403904676437,
        0.9013391137123108
      ],
      "type": "VEC4"
    },
    {
      "bufferView": 6,
      "byteOffset": 12616,
      "componentType": 5126,
      "count": 278,
      "max": [
        5.833333492279053
      ],
      "min": [
        0.0
      ],
      "type": "SCALAR"
    },
    {
      "bufferView": 7,
      "byteOffset": 19116,
      "componentType": 5126,
      "count": 278,
      "max": [
        3.7997961044311523e-07,
        1.0726563930511475,
        4.470348358154297e-08
      ],
      "min": [
        2.2724270820617676e-07,
        1.0726563930511475,
        1.4901161193847656e-08
      ],
      "type": "VEC3"
    },
    {
      "bufferView": 6,
      "byteOffset": 13728,
      "componentType": 5126,
      "count": 8,
      "max": [
        5.833333492279053
      ],
      "min": [
        0.0
      ],
      "type": "SCALAR"
    },
    {
      "bufferView": 7,
      "byteOffset": 22452,
      "componentType": 5126,
      "count": 8,
      "max": [
        1.0,
        0.9999998807907104,
        0.9999999403953552
      ],
      "min": [
        1.0,
        0.9999998211860657,
        0.9999998211860657
      ],
      "type": "VEC3"
    },
    {
      "bufferView": 6,
      "byteOffset": 13760,
      "componentType": 5126,
      "count": 278,
      "max": [
        5.833333492279053
      ],
      "min": [
        0.0
      ],
      "type": "SCALAR"
    },
    {
      "bufferView": 8,
      "byteOffset": 24976,
      "componentType": 5126,
      "count": 278,
      "max": [
        0.22222846746444702,
        0.30436980724334717,
        0.331279993057251,
        0.9966508746147156
      ],
      "min": [
        -0.2561236023902893,
        -0.22218194603919983,
        -0.01847645454108715,
        0.8699027299880981
      ],
      "type": "VEC4"
    },
    {
      "bufferView": 6,
      "byteOffset": 14872,
      "componentType": 5126,
      "count": 176,
      "max": [
        5.833333492279053
      ],
      "min": [
        0.0
      ],
      "type": "SCALAR"
    },
    {
      "bufferView": 7,
      "byteOffset": 22548,
      "componentType": 5126,
      "count": 176,
      "max": [
        1.862645149230957e-09,
        0.8180798292160034,
        2.8405338525772095e-08
      ],
      "min": [
        4.656612873077393e-10,
        0.8180792927742004,
        -3.91155481338501e-08
      ],
      "type": "VEC3"
    },
    {
      "bufferView": 6,
      "byteOffset": 15576,
      "componentType": 5126,
      "count": 176,
      "max": [
        5.833333492279053
      ],
      "min": [
        0.0
      ],
      "type": "SCALAR"
    },
    {
      "bufferView": 8,
      "byteOffset": 29424,
      "componentType": 5126,
      "count": 176,
      "max": [
        -1.732065584292286e-07,
        1.2198393406492869e-08,
        0.8344148397445679,
        0.5511369109153748
      ],
      "min": [
        -1.8419039804484783e-07,
        7.709805238675926e-09,
        0.8344148397445679,
        0.5511369109153748
      ],
      "type": "VEC4"
    },
    {
      "bufferView": 6,
      "byteOffset": 16280,
      "componentType": 5126,
      "count": 266,
      "max": [
        5.833333492279053
      ],
      "min": [
        0.0
      ],
      "type": "SCALAR"
    },
    {
      "bufferView": 7,
      "byteOffset": 24660,
      "componentType": 5126,
      "count": 266,
      "max": [
        1.4432899320127035e-15,
        1.0,
        3.725290298461914e-09
      ],
      "min": [
        -3.3306690738754696e-16,
        0.9999999403953552,
        -3.725290298461914e-09
      ],
      "type": "VEC3"
    },
    {
      "bufferView": 6,
      "byteOffset": 17344,
      "componentType": 5126,
      "count": 4,
      "max": [
        5.833333492279053
      ],
      "min": [
        0.0
      ],
      "type": "SCALAR"
    },
    {
      "bufferView": 7,
      "byteOffset": 27852,
      "componentType": 5126,
      "count": 4,
      "max": [
        1.0,
        0.9999999403953552,
        1.0
      ],
      "min": [
        1.0,
        0.9999999403953552,
        0.9999999403953552
      ],
      "type": "VEC3"
    },
    {
      "bufferView": 6,
      "byteOffset": 17360,
      "componentType": 5126,
      "count": 266,
      "max": [
        5.833333492279053
      ],
      "min": [
        0.0
      ],
      "type": "SCALAR"
    },
    {
      "bufferView": 8,
      "byteOffset": 32240,
      "componentType": 5126,
      "count": 266,
      "max": [
        0.39597088098526,
        0.07617492228746414,
        0.060461416840553284,
        0.9999956488609314
      ],
      "min": [
        -0.031162353232502937,
        -0.09197287261486053,
        -0.01314354594796896,
        0.9116427302360535
      ],
      "type": "VEC4"
    },
    {
      "bufferView": 6,
      "byteOffset": 18424,
      "componentType": 5126,
      "count": 266,
      "max": [
        5.833333492279053
      ],
      "min": [
        0.0
      ],
      "type": "SCALAR"
    },
    {
      "bufferView": 7,
      "byteOffset": 27900,
      "componentType": 5126,
      "count": 266,
      "max": [
        0.6010117530822754,
        -0.023857375606894493,
        -1.0017087248570533e-07
      ],
      "min": [
        0.6010117530822754,
        -0.023857474327087402,
        -1.0203351763493629e-07
      ],
      "type": "VEC3"
    },
    {
      "bufferView": 6,
      "byteOffset": 19488,
      "componentType": 5126,
      "count": 266,
      "max": [
        5.833333492279053
      ],
      "min": [
        0.0
      ],
      "type": "SCALAR"
    },
    {
      "bufferView": 8,
      "byteOffset": 36496,
      "componentType": 5126,
      "count": 266,
      "max": [
        0.0009398119291290641,
        0.11932948231697083,
        0.9999922513961792,
        0.004179938230663538
      ],
      "min": [
        -0.0004003409412689507,
        -0.30051758885383606,
        0.9537666440010071,
        0.0037042696494609118
      ],
      "type": "VEC4"
    },
    {
      "bufferView": 6,
      "byteOffset": 20552,
      "componentType": 5126,
      "count": 278,
      "max": [
        5.833333492279053
      ],
      "min": [
        0.0
      ],
      "type": "SCALAR"
    },
    {
      "bufferView": 7,
      "byteOffset": 31092,
      "componentType": 5126,
      "count": 278,
      "max": [
        -0.6010117530822754,
        -0.023857375606894493,
        -2.816713902120682e-07
      ],
      "min": [
        -0.6010117530822754,
        -0.023857474327087402,
        -2.8446535793591465e-07
      ],
      "type": "VEC3"
    },
    {
      "bufferView": 6,
      "byteOffset": 21664,
      "componentType": 5126,
      "count": 278,
      "max": [
        5.833333492279053
      ],
      "min": [
        0.0
      ],
      "type": "SCALAR"
    },
    {
      "bufferView": 8,
      "byteOffset": 40752,
      "componentType": 5126,
      "count": 278,
      "max": [
        0.0006913766846992075,
        0.21483902633190155,
        0.999993085861206,
        -0.0037122550420463085
      ],
      "min": [
        -0.0006219014758244157,
        -0.16998964548110962,
        0.9766412377357483,
        -0.003953136969357729
      ],
      "type": "VEC4"
    },
    {
      "bufferView": 6,
      "byteOffset": 22776,
      "componentType": 5126,
      "count": 131,
      "max": [
        5.833333492279053
      ],
      "min": [
        0.0
      ],
      "type": "SCALAR"
    },
    {
      "bufferView": 7,
      "byteOffset": 34428,
      "componentType": 5126,
      "count": 131,
      "max": [
        1.2212453270876722e-15,
        0.008376829326152802,
        5.9562788009643555
      ],
      "min": [
        1.2212453270876722e-15,
        0.008376829326152802,
        1.3998596668243408
      ],
      "type": "VEC3"
    },
    {
      "bufferView": 6,
      "byteOffset": 23300,
      "componentType": 5126,
      "count": 228,
      "max": [
        5.833333492279053
      ],
      "min": [
        0.0
      ],
      "type": "SCALAR"
    },
    {
      "bufferView": 8,
      "byteOffset": 45200,
      "componentType": 5126,
      "count": 228,
      "max": [
        9.432541503429093e-08,
        0.9996562004089355,
        0.9999240636825562,
        8.837282905460597e-08
      ],
      "min": [
        -1.3308829238667386e-07,
        -0.7045325636863708,
        -0.6678231358528137,
        -1.3315259650426015e-07
      ],
      "type": "VEC4"
    },
    {
      "bufferView": 6,
      "byteOffset": 24212,
      "componentType": 5126,
      "count": 226,
      "max": [
        7.5
      ],
      "min": [
        0.0
      ],
      "type": "SCALAR"
    },
    {
      "bufferView": 7,
      "byteOffset": 36000,
      "componentType": 5126,
      "count": 226,
      "max": [
        -4.470348358154297e-08,
        0.7314869165420532,
        -3.725290298461914e-08
      ],
      "min": [
        -1.210719347000122e-07,
        0.7314866781234741,
        -5.364418029785156e-07
      ],
      "type": "VEC3"
    },
    {
      "bufferView": 6,
      "byteOffset": 25116,
      "componentType": 5126,
      "count": 226,
      "max": [
        7.5
      ],
      "min": [
        0.0
      ],
      "type": "SCALAR"
    },
    {
      "bufferView": 8,
      "byteOffset": 48848,
      "componentType": 5126,
      "count": 226,
      "max": [
        0.002676577540114522,
        -0.01810588873922825,
        -0.049114879220724106,
        0.9986253976821899
      ],
      "min": [
        0.002676577540114522,
        -0.01810588873922825,
        -0.049114879220724106,
        0.9986253976821899
      ],
      "type": "VEC4"
    },
    {
      "bufferView": 6,
      "byteOffset": 26020,
      "componentType": 5126,
      "count": 347,
      "max": [
        7.5
      ],
      "min": [
        0.0
      ],
      "type": "SCALAR"
    },
    {
      "bufferView": 7,
      "byteOffset": 38712,
      "componentType": 5126,
      "count": 347,
      "max": [
        1.7881393432617188e-07,
        0.664341926574707,
        0.0
      ],
      "min": [
        -2.980232238769531e-07,
        0.664341926574707,
        -1.1920928955078125e-07
      ],
      "type": "VEC3"
    },
    {
      "bufferView": 6,
      "byteOffset": 27408,
      "componentType": 5126,
      "count": 347,
      "max": [
        7.5
      ],
      "min": [
        0.0
      ],
      "type": "SCALAR"
    },
    {
      "bufferView": 8,
      "byteOffset": 52464,
      "componentType": 5126,
      "count": 347,
      "max": [
        0.34218019247055054,
        0.004532671067863703,
        -0.11194112151861191,
        0.9666889905929565
      ],
      "min": [
        0.22753095626831055,
        -0.048290275037288666,
        -0.11720247566699982,
        0.9316784739494324
      ],
      "type": "VEC4"
    },
    {
      "bufferView": 6,
      "byteOffset": 28796,
      "componentType": 5126,
      "count": 346,
      "max": [
        7.5
      ],
      "min": [
        0.0
      ],
      "type": "SCALAR"
    },
    {
      "bufferView": 7,
      "byteOffset": 42876,
      "componentType": 5126,
      "count": 346,
      "max": [
        1.5774276107549667e-07,
        1.072656512260437,
        1.7182901501655579e-07
      ],
      "min": [
        -4.440892098500626e-16,
        1.0726563930511475,
        -4.6566128730773926e-09
      ],
      "type": "VEC3"
    },
    {
      "bufferView": 6,
      "byteOffset": 30180,
      "componentType": 5126,
      "count": 346,
      "max": [
        7.5
      ],
      "min": [
        0.0
      ],
      "type": "SCALAR"
    },
    {
      "bufferView": 8,
      "byteOffset": 58016,
      "componentType": 5126,
      "count": 346,
      "max": [
        0.18237784504890442,
        0.2665635645389557,
        -0.2720883786678314,
        0.9487573504447937
      ],
      "min": [
        -0.29171642661094666,
        -0.27103060483932495,
        -0.3205659091472626,
        0.8773533701896667
      ],
      "type": "VEC4"
    },
    {
      "bufferView": 6,
      "byteOffset": 31564,
      "componentType": 5126,
      "count": 226,
      "max": [
        7.5
      ],
      "min": [
        0.0
      ],
      "type": "SCALAR"
    },
    {
      "bufferView": 7,
      "byteOffset": 47028,
      "componentType": 5126,
      "count": 226,
      "max": [
        7.099121290821131e-10,
        0.8180793523788452,
        -1.7401930563210044e-08
      ],
      "min": [
        -3.1317171078626416e-12,
        0.8180791139602661,
        -2.947732582470053e-07
      ],
      "type": "VEC3"
    },
    {
      "bufferView": 6,
      "byteOffset": 32468,
      "componentType": 5126,
      "count": 204,
      "max": [
        7.5
      ],
      "min": [
        0.0
      ],
      "type": "SCALAR"
    },
    {
      "bufferView": 8,
      "byteOffset": 63552,
      "componentType": 5126,
      "count": 204,
      "max": [
        -6.963617238398001e-08,
        -1.0390159133066845e-07,
        -0.8344148397445679,
        0.5511369109153748
      ],
      "min": [
        -6.963617238398001e-08,
        -1.0390159133066845e-07,
        -0.8344148397445679,
        0.5511369109153748
      ],
      "type": "VEC4"
    },
    {
      "bufferView": 6,
      "byteOffset": 33284,
      "componentType": 5126,
      "count": 346,
      "max": [
        7.5
      ],
      "min": [
        0.0
      ],
      "type": "SCALAR"
    },
    {
      "bufferView": 7,
      "byteOffset": 49740,
      "componentType": 5126,
      "count": 346,
      "max": [
        7.099121290821131e-10,
        0.8180793523788452,
        -1.7401930563210044e-08
      ],
      "min": [
        -3.1317171078626416e-12,
        0.8180791139602661,
        -2.947732582470053e-07
      ],
      "type": "VEC3"
    },
    {
      "bufferView": 6,
      "byteOffset": 34668,
      "componentType": 5126,
      "count": 346,
      "max": [
        7.5
      ],
      "min": [
        0.0
      ],
      "type": "SCALAR"
    },
    {
      "bufferView": 8,
      "byteOffset": 66816,
      "componentType": 5126,
      "count": 346,
      "max": [
        6.881838089611847e-06,
        0.025986570864915848,
        0.002661865670233965,
        0.9999998807907104
      ],
      "min": [
        -1.354908545181388e-05,
        -0.016711696982383728,
        -0.005331484600901604,
        0.9996480941772461
      ],
      "type": "VEC4"
    },
    {
      "bufferView": 6,
      "byteOffset": 36052,
      "componentType": 5126,
      "count": 331,
      "max": [
        7.5
      ],
      "min": [
        0.0
      ],
      "type": "SCALAR"
    },
    {
      "bufferView": 7,
      "byteOffset": 53892,
      "componentType": 5126,
      "count": 331,
      "max": [
        -1.4901161193847656e-08,
        0.7314869165420532,
        -3.725290298461914e-08
      ],
      "min": [
        -5.0873495638370514e-08,
        0.7314867973327637,
        -2.2351741790771484e-07
      ],
      "type": "VEC3"
    },
    {
      "bufferView": 6,
      "byteOffset": 37376,
      "componentType": 5126,
      "count": 331,
      "max": [
        7.5
      ],
      "min": [
        0.0
      ],
      "type": "SCALAR"
    },
    {
      "bufferView": 8,
      "byteOffset": 72352,
      "componentType": 5126,
      "count": 331,
      "max": [
        0.20031751692295074,
        0.06766680628061295,
        0.05266644433140755,
        0.9989721179008484
      ],
      "min": [
        -0.02866656333208084,
        0.013474328443408012,
        0.028933865949511528,
        0.9769631028175354
      ],
      "type": "VEC4"
    },
    {
      "bufferView": 6,
      "byteOffset": 38700,
      "componentType": 5126,
      "count": 347,
      "max": [
        7.5
      ],
      "min": [
        0.0
      ],
      "type": "SCALAR"
    },
    {
      "bufferView": 7,
      "byteOffset": 57864,
      "componentType": 5126,
      "count": 347,
      "max": [
        6.705522537231445e-08,
        0.664341926574707,
        -1.4901161193847656e-08
      ],
      "min": [
        5.960464477539063e-08,
        0.6643416881561279,
        -9.685754776000977e-08
      ],
      "type": "VEC3"
    },
    {
      "bufferView": 6,
      "byteOffset": 40088,
      "componentType": 5126,
      "count": 347,
      "max": [
        7.5
      ],
      "min": [
        0.0
      ],
      "type": "SCALAR"
    },
    {
      "bufferView": 8,
      "byteOffset": 77648,
      "componentType": 5126,
      "count": 347,
      "max": [
        0.38550570607185364,
        0.06594932824373245,
        0.11701492965221405,
        0.966845691204071
      ],
      "min": [
        0.22694754600524902,
        -0.003420815337449312,
        0.10979865491390228,
        0.9137669205665588
      ],
      "type": "VEC4"
    },
    {
      "bufferView": 6,
      "byteOffset": 41476,
      "componentType": 5126,
      "count": 345,
      "max": [
        7.5
      ],
      "min": [
        0.0
      ],
      "type": "SCALAR"
    },
    {
      "bufferView": 7,
      "byteOffset": 62028,
      "componentType": 5126,
      "count": 345,
      "max": [
        2.3283064365386963e-09,
        1.0726563930511475,
        4.656612873077393e-10
      ],
      "min": [
        -4.470348358154297e-08,
        1.0726563930511475,
        -5.043111741542816e-07
      ],
      "type": "VEC3"
    },
    {
      "bufferView": 6,
      "byteOffset": 42856,
      "componentType": 5126,
      "count": 345,
      "max": [
        7.5
      ],
      "min": [
        0.0
      ],
      "type": "SCALAR"
    },
    {
      "bufferView": 8,
      "byteOffset": 83200,
      "componentType": 5126,
      "count": 345,
      "max": [
        0.18861302733421326,
        0.27020007371902466,
        0.32738345861434937,
        0.945073664188385
      ],
      "min": [
        -0.35266897082328796,
        -0.3334147334098816,
        0.26346030831336975,
        0.8336952924728394
      ],
      "type": "VEC4"
    },
    {
      "bufferView": 6,
      "byteOffset": 44236,
      "componentType": 5126,
      "count": 226,
      "max": [
        7.5
      ],
      "min": [
        0.0
      ],
      "type": "SCALAR"
    },
    {
      "bufferView": 7,
      "byteOffset": 66168,
      "componentType": 5126,
      "count": 226,
      "max": [
        7.099121290821131e-10,
        0.8180793523788452,
        -1.7401930563210044e-08
      ],
      "min": [
        -3.1317171078626416e-12,
        0.8180791139602661,
        -2.947732582470053e-07
      ],
      "type": "VEC3"
    },
    {
      "bufferView": 6,
      "byteOffset": 45140,
      "componentType": 5126,
      "count": 204,
      "max": [
        7.5
      ],
      "min": [
        0.0
      ],
      "type": "SCALAR"
    },
    {
      "bufferView": 8,
      "byteOffset": 88720,
      "componentType": 5126,
      "count": 204,
      "max": [
        -1.9507550064190582e-07,
        2.0511464526862255e-08,
        0.8344147801399231,
        0.5511369705200195
      ],
      "min": [
        -1.9507550064190582e-07,
        2.0511464526862255e-08,
        0.8344147801399231,
        0.5511369705200195
      ],
      "type": "VEC4"
    },
    {
      "bufferView": 6,
      "byteOffset": 45956,
      "componentType": 5126,
      "count": 347,
      "max": [
        7.5
      ],
      "min": [
        0.0
      ],
      "type": "SCALAR"
    },
    {
      "bufferView": 7,
      "byteOffset": 68880,
      "componentType": 5126,
      "count": 347,
      "max": [
        3.1763735522036263e-22,
        1.0000001192092896,
        1.438849039914203e-13
      ],
      "min": [
        -3.1763735522036263e-22,
        1.0000001192092896,
        6.938893903907228e-18
      ],
      "type": "VEC3"
    },
    {
      "bufferView": 6,
      "byteOffset": 47344,
      "componentType": 5126,
      "count": 323,
      "max": [
        7.5
      ],
      "min": [
        0.0
      ],
      "type": "SCALAR"
    },
    {
      "bufferView": 8,
      "byteOffset": 91984,
      "componentType": 5126,
      "count": 323,
      "max": [
        0.09239094704389572,
        0.015040126629173756,
        0.002989552915096283,
        0.9998435974121094
      ],
      "min": [
        0.017420614138245583,
        -0.03221539035439491,
        -0.0013956865295767784,
        0.9952005743980408
      ],
      "type": "VEC4"
    },
    {
      "bufferView": 6,
      "byteOffset": 48636,
      "componentType": 5126,
      "count": 357,
      "max": [
        7.5
      ],
      "min": [
        0.0
      ],
      "type": "SCALAR"
    },
    {
      "bufferView": 7,
      "byteOffset": 73044,
      "componentType": 5126,
      "count": 357,
      "max": [
        0.6010117530822754,
        -0.02385735511779785,
        9.075039741901492e-08
      ],
      "min": [
        0.6010117530822754,
        -0.02385735511779785,
        -9.923954991108985e-08
      ],
      "type": "VEC3"
    },
    {
      "bufferView": 6,
      "byteOffset": 50064,
      "componentType": 5126,
      "count": 357,
      "max": [
        7.5
      ],
      "min": [
        0.0
      ],
      "type": "SCALAR"
    },
    {
      "bufferView": 8,
      "byteOffset": 97152,
      "componentType": 5126,
      "count": 357,
      "max": [
        0.0010227429447695613,
        0.21297281980514526,
        0.999993085861206,
        0.0044208699837327
      ],
      "min": [
        -0.0006865962641313672,
        -0.37539568543434143,
        0.9268535375595093,
        0.0037098079919815063
      ],
      "type": "VEC4"
    },
    {
      "bufferView": 6,
      "byteOffset": 51492,
      "componentType": 5126,
      "count": 347,
      "max": [
        7.5
      ],
      "min": [
        0.0
      ],
      "type": "SCALAR"
    },
    {
      "bufferView": 7,
      "byteOffset": 77328,
      "componentType": 5126,
      "count": 347,
      "max": [
        -0.6010117530822754,
        -0.02385735511779785,
        -2.8446535793591465e-07
      ],
      "min": [
        -0.6010117530822754,
        -0.02385735511779785,
        -5.67587278510473e-07
      ],
      "type": "VEC3"
    },
    {
      "bufferView": 6,
      "byteOffset": 52880,
      "componentType": 5126,
      "count": 323,
      "max": [
        7.5
      ],
      "min": [
        0.0
      ],
      "type": "SCALAR"
    },
    {
      "bufferView": 8,
      "byteOffset": 102864,
      "componentType": 5126,
      "count": 323,
      "max": [
        0.0009724937845021486,
        0.3723839819431305,
        0.999993085861206,
        -0.0037102517671883106
      ],
      "min": [
        -0.0010112420422956347,
        -0.36373257637023926,
        0.9280678629875183,
        -0.0043880147859454155
      ],
      "type": "VEC4"
    },
    {
      "bufferView": 6,
      "byteOffset": 54172,
      "componentType": 5126,
      "count": 346,
      "max": [
        7.5
      ],
      "min": [
        0.0
      ],
      "type": "SCALAR"
    },
    {
      "bufferView": 7,
      "byteOffset": 81492,
      "componentType": 5126,
      "count": 346,
      "max": [
        0.0,
        6.2381110191345215,
        1.4841935634613037
      ],
      "min": [
        -9.452337508264463e-07,
        0.05167684704065323,
        1.3972920179367065
      ],
      "type": "VEC3"
    }
  ],
  "animations": [
    {
      "channels": [
        {
          "sampler": 0,
          "target": {
            "node": 12,
            "path": "translation"
          }
        },
        {
          "sampler": 1,
          "target": {
            "node": 12,
            "path": "scale"
          }
        },
        {
          "sampler": 2,
          "target": {
            "node": 12,
            "path": "rotation"
          }
        },
        {
          "sampler": 3,
          "target": {
            "node": 11,
            "path": "translation"
          }
        },
        {
          "sampler": 4,
          "target": {
            "node": 11,
            "path": "scale"
          }
        },
        {
          "sampler": 5,
          "target": {
            "node": 11,
            "path": "rotation"
          }
        },
        {
          "sampler": 6,
          "target": {
            "node": 10,
            "path": "translation"
          }
        },
        {
          "sampler": 7,
          "target": {
            "node": 10,
            "path": "scale"
          }
        },
        {
          "sampler": 8,
          "target": {
            "node": 10,
            "path": "rotation"
          }
        },
        {
          "sampler": 9,
          "target": {
            "node": 9,
            "path": "translation"
          }
        },
        {
          "sampler": 10,
          "target": {
            "node": 9,
            "path": "scale"
          }
        },
        {
          "sampler": 11,
          "target": {
            "node": 9,
            "path": "rotation"
          }
        },
        {
          "sampler": 12,
          "target": {
            "node": 14,
            "path": "translation"
          }
        },
        {
          "sampler": 13,
          "target": {
            "node": 14,
            "path": "scale"
          }
        },
        {
          "sampler": 14,
          "target": {
            "node": 14,
            "path": "rotation"
          }
        },
        {
          "sampler": 15,
          "target": {
            "node": 19,
            "path": "translation"
          }
        },
        {
          "sampler": 16,
          "target": {
            "node": 19,
            "path": "scale"
          }
        },
        {
          "sampler": 17,
          "target": {
            "node": 19,
            "path": "rotation"
          }
        },
        {
          "sampler": 18,
          "target": {
            "node": 18,
            "path": "translation"
          }
        },
        {
          "sampler": 19,
          "target": {
            "node": 18,
            "path": "scale"
          }
        },
        {
          "sampler": 20,
          "target": {
            "node": 18,
            "path": "rotation"
          }
        },
        {
          "sampler": 21,
          "target": {
            "node": 17,
            "path": "translation"
          }
        },
        {
          "sampler": 22,
          "target": {
            "node": 17,
            "path": "scale"
          }
        },
        {
          "sampler": 23,
          "target": {
            "node": 17,
            "path": "rotation"
          }
        },
        {
          "sampler": 24,
          "target": {
            "node": 16,
            "path": "translation"
          }
        },
        {
          "sampler": 25,
          "target": {
            "node": 16,
            "path": "rotation"
          }
        },
        {
          "sampler": 26,
          "target": {
            "node": 8,
            "path": "translation"
          }
        },
        {
          "sampler": 27,
          "target": {
            "node": 8,
            "path": "scale"
          }
        },
        {
          "sampler": 28,
          "target": {
            "node": 8,
            "path": "rotation"
          }
        },
        {
          "sampler": 29,
          "target": {
            "node": 21,
            "path": "translation"
          }
        },
        {
          "sampler": 30,
          "target": {
            "node": 21,
            "path": "rotation"
          }
        },
        {
          "sampler": 31,
          "target": {
            "node": 23,
            "path": "translation"
          }
        },
        {
          "sampler": 32,
          "target": {
            "node": 23,
            "path": "rotation"
          }
        },
        {
          "sampler": 33,
          "target": {
            "node": 7,
            "path": "translation"
          }
        },
        {
          "sampler": 34,
          "target": {
            "node": 7,
            "path": "rotation"
          }
        }
      ],
      "name": "Armature_v2|Jumping",
      "samplers": [
        {
          "input": 7,
          "interpolation": "LINEAR",
          "output": 8
        },
        {
          "input": 9,
          "interpolation": "LINEAR",
          "output": 10
        },
        {
          "input": 11,
          "interpolation": "LINEAR",
          "output": 12
        },
        {
          "input": 13,
          "interpolation": "LINEAR",
          "output": 14
        },
        {
          "input": 15,
          "interpolation": "LINEAR",
          "output": 16
        },
        {
          "input": 17,
          "interpolation": "LINEAR",
          "output": 18
        },
        {
          "input": 19,
          "interpolation": "LINEAR",
          "output": 20
        },
        {
          "input": 21,
          "interpolation": "LINEAR",
          "output": 22
        },
        {
          "input": 23,
          "interpolation": "LINEAR",
          "output": 24
        },
        {
          "input": 25,
          "interpolation": "LINEAR",
          "output": 26
        },
        {
          "input": 27,
          "interpolation": "LINEAR",
          "output": 28
        },
        {
          "input": 29,
          "interpolation": "LINEAR",
          "output": 30
        },
        {
          "input": 31,
          "interpolation": "LINEAR",
          "output": 32
        },
        {
          "input": 33,
          "interpolation": "LINEAR",
          "output": 34
        },
        {
          "input": 35,
          "interpolation": "LINEAR",
          "output": 36
        },
        {
          "input": 37,
          "interpolation": "LINEAR",
          "output": 38
        },
        {
          "input": 39,
          "interpolation": "LINEAR",
          "output": 40
        },
        {
          "input": 41,
          "interpolation": "LINEAR",
          "output": 42
        },
        {
          "input": 43,
          "interpolation": "LINEAR",
          "output": 44
        },
        {
          "input": 45,
          "interpolation": "LINEAR",
          "output": 46
        },
        {
          "input": 47,
          "interpolation": "LINEAR",
          "output": 48
        },
        {
          "input": 49,
          "interpolation": "LINEAR",
          "output": 50
        },
        {
          "input": 51,
          "interpolation": "LINEAR",
          "output": 52
        },
        {
          "input": 53,
          "interpolation": "LINEAR",
          "output": 54
        },
        {
          "input": 55,
          "interpolation": "LINEAR",
          "output": 56
        },
        {
          "input": 57,
          "interpolation": "LINEAR",
          "output": 58
        },
        {
          "input": 59,
          "interpolation": "LINEAR",
          "output": 60
        },
        {
          "input": 61,
          "interpolation": "LINEAR",
          "output": 62
        },
        {
          "input": 63,
          "interpolation": "LINEAR",
          "output": 64
        },
        {
          "input": 65,
          "interpolation": "LINEAR",
          "output": 66
        },
        {
          "input": 67,
          "interpolation": "LINEAR",
          "output": 68
        },
        {
          "input": 69,
          "interpolation": "LINEAR",
          "output": 70
        },
        {
          "input": 71,
          "interpolation": "LINEAR",
          "output": 72
        },
        {
          "input": 73,
          "interpolation": "LINEAR",
          "output": 74
        },
        {
          "input": 75,
          "interpolation": "LINEAR",
          "output": 76
        }
      ]
    },
    {
      "channels": [
        {
          "sampler": 0,
          "target": {
            "node": 12,
            "path": "translation"
          }
        },
        {
          "sampler": 1,
          "target": {
            "node": 12,
            "path": "rotation"
          }
        },
        {
          "sampler": 2,
          "target": {
            "node": 11,
            "path": "translation"
          }
        },
        {
          "sampler": 3,
          "target": {
            "node": 11,
            "path": "rotation"
          }
        },
        {
          "sampler": 4,
          "target": {
            "node": 10,
            "path": "translation"
          }
        },
        {
          "sampler": 5,
          "target": {
            "node": 10,
            "path": "rotation"
          }
        },
        {
          "sampler": 6,
          "target": {
            "node": 9,
            "path": "translation"
          }
        },
        {
          "sampler": 7,
          "target": {
            "node": 9,
            "path": "rotation"
          }
        },
        {
          "sampler": 8,
          "target": {
            "node": 14,
            "path": "translation"
          }
        },
        {
          "sampler": 9,
          "target": {
            "node": 14,
            "path": "rotation"
          }
        },
        {
          "sampler": 10,
          "target": {
            "node": 19,
            "path": "translation"
          }
        },
        {
          "sampler": 11,
          "target": {
            "node": 19,
            "path": "rotation"
          }
        },
        {
          "sampler": 12,
          "target": {
            "node": 18,
            "path": "translation"
          }
        },
        {
          "sampler": 13,
          "target": {
            "node": 18,
            "path": "rotation"
          }
        },
        {
          "sampler": 14,
          "target": {
            "node": 17,
            "path": "translation"
          }
        },
        {
          "sampler": 15,
          "target": {
            "node": 17,
            "path": "rotation"
          }
        },
        {
          "sampler": 16,
          "target": {
            "node": 16,
            "path": "translation"
          }
        },
        {
          "sampler": 17,
          "target": {
            "node": 16,
            "path": "rotation"
          }
        },
        {
          "sampler": 18,
          "target": {
            "node": 8,
            "path": "translation"
          }
        },
        {
          "sampler": 19,
          "target": {
            "node": 8,
            "path": "rotation"
          }
        },
        {
          "sampler": 20,
          "target": {
            "node": 21,
            "path": "translation"
          }
        },
        {
          "sampler": 21,
          "target": {
            "node": 21,
            "path": "rotation"
          }
        },
        {
          "sampler": 22,
          "target": {
            "node": 23,
            "path": "translation"
          }
        },
        {
          "sampler": 23,
          "target": {
            "node": 23,
            "path": "rotation"
          }
        },
        {
          "sampler": 24,
          "target": {
            "node": 7,
            "path": "translation"
          }
        }
      ],
      "name": "Armature_v2|Walking",
      "samplers": [
        {
          "input": 77,
          "interpolation": "LINEAR",
          "output": 78
        },
        {
          "input": 79,
          "interpolation": "LINEAR",
          "output": 80
        },
        {
          "input": 81,
          "interpolation": "LINEAR",
          "output": 82
        },
        {
          "input": 83,
          "interpolation": "LINEAR",
          "output": 84
        },
        {
          "input": 85,
          "interpolation": "LINEAR",
          "output": 86
        },
        {
          "input": 87,
          "interpolation": "LINEAR",
          "output": 88
        },
        {
          "input": 89,
          "interpolation": "LINEAR",
          "output": 90
        },
        {
          "input": 91,
          "interpolation": "LINEAR",
          "output": 92
        },
        {
          "input": 93,
          "interpolation": "LINEAR",
          "output": 94
        },
        {
          "input": 95,
          "interpolation": "LINEAR",
          "output": 96
        },
        {
          "input": 97,
          "interpolation": "LINEAR",
          "output": 98
        },
        {
          "input": 99,
          "interpolation": "LINEAR",
          "output": 100
        },
        {
          "input": 101,
          "interpolation": "LINEAR",
          "output": 102
        },
        {
          "input": 103,
          "interpolation": "LINEAR",
          "output": 104
        },
        {
          "input": 105,
          "interpolation": "LINEAR",
          "output": 106
        },
        {
          "input": 107,
          "interpolation": "LINEAR",
          "output": 108
        },
        {
          "input": 109,
          "interpolation": "LINEAR",
          "output": 110
        },
        {
          "input": 111,
          "interpolation": "LINEAR",
          "output": 112
        },
        {
          "input": 113,
          "interpolation": "LINEAR",
          "output": 114
        },
        {
          "input": 115,
          "interpolation": "LINEAR",
          "output": 116
        },
        {
          "input": 117,
          "interpolation": "LINEAR",
          "output": 118
        },
        {
          "input": 119,
          "interpolation": "LINEAR",
          "output": 120
        },
        {
          "input": 121,
          "interpolation": "LINEAR",
          "output": 122
        },
        {
          "input": 123,
          "interpolation": "LINEAR",
          "output": 124
        },
        {
          "input": 125,
          "interpolation": "LINEAR",
          "output": 126
        }
      ]
    }
  ],
  "asset": {
    "extras": {
      "author": "jannispfister (https://sketchfab.com/jannispfister)",
      "license": "CC-BY-4.0 (http://creativecommons.org/licenses/by/4.0/)",
      "source": "https://sketchfab.com/3d-models/lego-star-wars-yoda-animated-d05c8e41b750457cbf5a41db159ec17c",
      "title": "Lego Star Wars Yoda Animated"
    },
    "generator": "Sketchfab-12.84.0",
    "version": "2.0"
  },
  "bufferViews": [
    {
      "buffer": 0,
      "byteLength": 45688,
      "byteStride": 8,
      "name": "shortBufferViews",
      "target": 34962
    },
    {
      "buffer": 0,
      "byteLength": 85776,
      "byteOffset": 45688,
      "name": "floatBufferViews",
      "target": 34963
    },
    {
      "buffer": 0,
      "byteLength": 45688,
      "byteOffset": 131464,
      "byteStride": 8,
      "name": "floatBufferViews",
      "target": 34962
    },
    {
      "buffer": 0,
      "byteLength": 137064,
      "byteOffset": 177152,
      "byteStride": 12,
      "name": "floatBufferViews",
      "target": 34962
    },
    {
      "buffer": 0,
      "byteLength": 91376,
      "byteOffset": 314216,
      "byteStride": 16,
      "name": "floatBufferViews",
      "target": 34962
    },
    {
      "buffer": 0,
      "byteLength": 1216,
      "byteOffset": 405592,
      "name": "floatBufferViews"
    },
    {
      "buffer": 0,
      "byteLength": 55556,
      "byteOffset": 406808,
      "name": "floatBufferViews"
    },
    {
      "buffer": 0,
      "byteLength": 85644,
      "byteOffset": 462364,
      "byteStride": 12,
      "name": "floatBufferViews"
    },
    {
      "buffer": 0,
      "byteLength": 108032,
      "byteOffset": 548008,
      "byteStride": 16,
      "name": "floatBufferViews"
    }
  ],
  "buffers": [
    {
      "byteLength": 656040,
      "uri": "scene.bin"
    }
  ],
  "images": [
    {
      "uri": "textures/Yoda_UV_Material_baseColor.png"
    }
  ],
  "materials": [
    {
      "doubleSided": true,
      "name": "Yoda_UV_Material",
      "pbrMetallicRoughness": {
        "baseColorTexture": {
          "index": 0
        },
        "metallicFactor": 0.0,
        "roughnessFactor": 0.8814724507433342
      }
    }
  ],
  "meshes": [
    {
      "name": "yoda_Yoda_UV_Material_0",
      "primitives": [
        {
          "attributes": {
            "JOINTS_0": 5,
            "NORMAL": 1,
            "POSITION": 0,
            "TEXCOORD_0": 2,
            "WEIGHTS_0": 6
          },
          "indices": 3,
          "material": 0,
          "mode": 4
        }
      ]
    }
  ],
  "nodes": [
    {
      "children": [
        1
      ],
      "matrix": [
        0.39269381761550903,
        0.0,
        0.0,
        0.0,
        0.0,
        8.7195543588938e-17,
        -0.39269381761550903,
        0.0,
        0.0,
        0.39269381761550903,
        8.7195543588938e-17,
        0.0,
        0.0,
        0.0,
        0.0,
        1.0
      ],
      "name": "Sketchfab_model"
    },
    {
      "children": [
        2
      ],
      "matrix": [
        0.009999999776482582,
        0.0,
        0.0,
        0.0,
        0.0,
        0.0,
        0.009999999776482582,
        0.0,
        0.0,
        -0.009999999776482582,
        0.0,
        0.0,
        0.0,
        0.0,
        0.0,
        1.0
      ],
      "name": "6c6b0d47364a43ebb8dbd81b88229a35.fbx"
    },
    {
      "children": [
        3
      ],
      "name": "Object_2"
    },
    {
      "children": [
        4,
        27
      ],
      "name": "RootNode"
    },
    {
      "children": [
        5
      ],
      "name": "Armature_v2",
      "rotation": [
        -0.7071068286895752,
        0.0,
        0.0,
        0.7071067094802856
      ],
      "scale": [
        100.0,
        100.0,
        100.0
      ]
    },
    {
      "children": [
        6,
        26,
        25
      ],
      "name": "Object_5"
    },
    {
      "children": [
        7
      ],
      "name": "_rootJoint"
    },
    {
      "children": [
        8,
        21,
        23
      ],
      "name": "stomach_00",
      "rotation": [
        -5.338507946817117e-08,
        0.7071068286895752,
        0.7071067094802856,
        -5.338507236274381e-08
      ],
      "translation": [
        0.0,
        0.05167684704065323,
        1.3972920179367065
      ]
    },
    {
      "children": [
        9,
        14,
        16
      ],
      "name": "chest_01",
      "rotation": [
        0.01742061786353588,
        0.00304330512881279,
        -5.302189674694091e-05,
        0.9998437166213989
      ],
      "translation": [
        0.0,
        1.0000001192092896,
        0.0
      ]
    },
    {
      "children": [
        10
      ],
      "name": "Shoulder.L_02",
      "rotation": [
        -6.963617238398001e-08,
        -1.0390159133066845e-07,
        -0.8344148397445679,
        0.5511369109153748
      ],
      "scale": [
        0.9999997615814209,
        0.9999998807907104,
        1.0
      ],
      "translation": [
        -3.1317171078626416e-12,
        0.8180791139602661,
        -1.7401930563210044e-08
      ]
    },
    {
      "children": [
        11
      ],
      "name": "upper_arm.L_03",
      "rotation": [
        -0.17392422258853912,
        0.12972886860370636,
        -0.2986074686050415,
        0.9293838739395142
      ],
      "scale": [
        1.0,
        0.9999999403953552,
        1.0
      ],
      "translation": [
        1.5774276107549667e-07,
        1.072656512260437,
        -4.6566128730773926e-09
      ]
    },
    {
      "children": [
        12
      ],
      "name": "underarm.L_04",
      "rotation": [
        0.3421732485294342,
        -0.04829027131199837,
        -0.11207464337348938,
        0.9316784739494324
      ],
      "scale": [
        1.0,
        0.9999999403953552,
        1.0
      ],
      "translation": [
        1.7881393432617188e-07,
        0.664341926574707,
        2.220446049250313e-16
      ]
    },
    {
      "children": [
        13
      ],
      "name": "hand.L_05",
      "rotation": [
        0.0026765777729451656,
        -0.018105890601873398,
        -0.0491148866713047,
        0.9986255168914795
      ],
      "scale": [
        1.0,
        1.0000001192092896,
        0.9999998807907104
      ],
      "translation": [
        -1.210719347000122e-07,
        0.7314866781234741,
        -3.725290298461914e-08
      ]
    },
    {
      "name": "hand.L_end_013",
      "rotation": [
        -8.275480229788904e-35,
        6.938893903907228e-18,
        1.1926223897340549e-17,
        1.0
      ],
      "translation": [
        2.220446049250313e-16,
        0.646729588508606,
        -2.7755575615628914e-17
      ]
    },
    {
      "children": [
        15
      ],
      "name": "head_06",
      "rotation": [
        -9.394699462816902e-10,
        -0.003063737414777279,
        0.00010679347906261683,
        0.9999952912330627
      ],
      "scale": [
        1.0,
        0.9999999403953552,
        0.9999999403953552
      ],
      "translation": [
        -3.1317171078626416e-12,
        0.8180791139602661,
        -1.7401930563210044e-08
      ]
    },
    {
      "name": "head_end_014",
      "rotation": [
        6.938893903907228e-18,
        7.346839692639297e-40,
        1.0587911840678754e-22,
        1.0
      ],
      "translation": [
        -2.710505431213761e-20,
        0.9182028770446777,
        -2.7755575615628914e-17
      ]
    },
    {
      "children": [
        17
      ],
      "name": "Shoulder.R_07",
      "rotation": [
        -1.9507550064190582e-07,
        2.0511466303219095e-08,
        0.8344147801399231,
        0.5511369705200195
      ],
      "scale": [
        0.9999997615814209,
        0.9999998211860657,
        1.0
      ],
      "translation": [
        -3.1317171078626416e-12,
        0.8180791139602661,
        -1.7401930563210044e-08
      ]
    },
    {
      "children": [
        18
      ],
      "name": "upper_arm.R_08",
      "rotation": [
        -0.1822405457496643,
        -0.13874207437038422,
        0.3070235550403595,
        0.9237291812896729
      ],
      "scale": [
        1.0,
        1.0000001192092896,
        0.9999999403953552
      ],
      "translation": [
        2.3283064365386963e-09,
        1.0726563930511475,
        4.656612873077393e-10
      ]
    },
    {
      "children": [
        19
      ],
      "name": "underarm.R_09",
      "rotation": [
        0.3600206673145294,
        0.05456186830997467,
        0.11127292364835739,
        0.9246764183044434
      ],
      "scale": [
        1.0,
        1.0,
        0.9999998807907104
      ],
      "translation": [
        6.705522537231445e-08,
        0.6643416881561279,
        -1.4901161193847656e-08
      ]
    },
    {
      "children": [
        20
      ],
      "name": "hand.R_010",
      "rotation": [
        -0.02866656333208084,
        0.013474328443408012,
        0.05266644433140755,
        0.9981096982955933
      ],
      "scale": [
        1.0,
        1.0000001192092896,
        1.0
      ],
      "translation": [
        -5.0873495638370514e-08,
        0.7314867973327637,
        -3.725290298461914e-08
      ]
    },
    {
      "name": "hand.R_end_015",
      "rotation": [
        1.3877787807814457e-17,
        6.938893903907228e-18,
        8.239936510889834e-18,
        1.0
      ],
      "translation": [
        -2.220446049250313e-16,
        0.646729588508606,
        -5.551115123125783e-17
      ]
    },
    {
      "children": [
        22
      ],
      "name": "leg.L_011",
      "rotation": [
        9.698135727376211e-06,
        0.006426790729165077,
        0.9999724626541138,
        0.0037128545809537172
      ],
      "scale": [
        1.0048195123672485,
        1.0,
        1.0
      ],
      "translation": [
        0.6010117530822754,
        -0.02385735511779785,
        -9.923954991108985e-08
      ]
    },
    {
      "name": "leg.L_end_016",
      "rotation": [
        -3.998072674534422e-40,
        -5.082197683525802e-21,
        -7.866818497624314e-20,
        1.0
      ],
      "translation": [
        -1.1102230246251565e-16,
        1.383583426475525,
        0.0
      ]
    },
    {
      "children": [
        24
      ],
      "name": "leg.R_012",
      "rotation": [
        -2.453614433761686e-05,
        0.0029139132238924503,
        0.9999889731407166,
        -0.0037102815695106983
      ],
      "scale": [
        1.004819393157959,
        1.0,
        1.0
      ],
      "translation": [
        -0.6010117530822754,
        -0.02385735511779785,
        -2.8446535793591465e-07
      ]
    },
    {
      "name": "leg.R_end_017",
      "rotation": [
        0.0,
        0.0,
        7.303806285496222e-19,
        1.0
      ],
      "translation": [
        1.1102230246251565e-16,
        1.383583426475525,
        6.938893903907228e-18
      ]
    },
    {
      "matrix": [
        100.00000000000227,
        0.0,
        5.684341886080802e-14,
        0.0,
        5.684341886080802e-14,
        6.123233995736905e-15,
        -100.00000000000227,
        0.0,
        -3.480655548023962e-30,
        100.0,
        6.123233995736766e-15,
        0.0,
        0.0,
        3.814697265625e-06,
        0.0,
        1.0
      ],
      "name": "Object_25"
    },
    {
      "mesh": 0,
      "name": "Object_26",
      "skin": 0
    },
    {
      "name": "yoda",
      "rotation": [
        -0.7071068286895752,
        0.0,
        0.0,
        0.7071067094802856
      ],
      "scale": [
        100.0,
        100.0,
        100.0
      ]
    }
  ],
  "samplers": [
    {
      "magFilter": 9729,
      "minFilter": 9987,
      "wrapS": 10497,
      "wrapT": 10497
    }
  ],
  "scene": 0,
  "scenes": [
    {
      "name": "Sketchfab_Scene",
      "nodes": [
        0
      ]
    }
  ],
  "skins": [
    {
      "inverseBindMatrices": 4,
      "joints": [
        6,
        7,
        8,
        9,
        10,
        11,
        12,
        13,
        14,
        15,
        16,
        17,
        18,
        19,
        20,
        21,
        22,
        23,
        24
      ],
      "skeleton": 6
    }
  ],
  "textures": [
    {
      "sampler": 0,
      "source": 0
    }
  ]
}
