{
  "accessors": [
    {
      "bufferView": 2,
      "componentType": 5126,
      "count": 4486,
      "max": [
        33.17919921875,
        51.415199279785156,
        27.28689956665039
      ],
      "min": [
        -33.13529968261719,
        -52.2296028137207,
        -26.709300994873047
      ],
      "type": "VEC3"
    },
    {
      "bufferView": 2,
      "byteOffset": 53832,
      "componentType": 5126,
      "count": 4486,
      "max": [
        0.9997450113296509,
        0.9992832541465759,
        0.9998803734779358
      ],
      "min": [
        -0.9999217391014099,
        -0.9999994039535522,
        -0.9997774362564087
      ],
      "type": "VEC3"
    },
    {
      "bufferView": 1,
      "componentType": 5126,
      "count": 4486,
      "max": [
        0.9973970055580139,
        0.9987829923629761
      ],
      "min": [
        0.0012169999536126852,
        0.0012169999536126852
      ],
      "type": "VEC2"
    },
    {
      "bufferView": 0,
      "componentType": 5125,
      "count": 12000,
      "type": "SCALAR"
    }
  ],
  "asset": {
    "extras": {
      "author": "rafacrack (https://sketchfab.com/rafacrack)",
      "license": "CC-BY-4.0 (http://creativecommons.org/licenses/by/4.0/)",
      "source": "https://sketchfab.com/3d-models/shoarma-wrap-food-low-poly-2e1a4d6ff00942faaa99f8b58bdf5e2f",
      "title": "Shoarma Wrap [FOOD] Low Poly"
    },
    "generator": "Sketchfab-16.64.0",
    "version": "2.0"
  },
  "bufferViews": [
    {
      "buffer": 0,
      "byteLength": 48000,
      "name": "floatBufferViews",
      "target": 34963
    },
    {
      "buffer": 0,
      "byteLength": 35888,
      "byteOffset": 48000,
      "byteStride": 8,
      "name": "floatBufferViews",
      "target": 34962
    },
    {
      "buffer": 0,
      "byteLength": 107664,
      "byteOffset": 83888,
      "byteStride": 12,
      "name": "floatBufferViews",
      "target": 34962
    }
  ],
  "buffers": [
    {
      "byteLength": 191552,
      "uri": "scene.bin"
    }
  ],
  "images": [
    {
      "uri": "textures/VertexColor.004_baseColor.png"
    }
  ],
  "materials": [
    {
      "doubleSided": true,
      "name": "VertexColor.004",
      "pbrMetallicRoughness": {
        "baseColorTexture": {
          "index": 0
        },
        "metallicFactor": 0.0,
        "roughnessFactor": 0.683772233983162
      }
    }
  ],
  "meshes": [
    {
      "name": "mesh_lpvc_VertexColor.004_0",
      "primitives": [
        {
          "attributes": {
            "NORMAL": 1,
            "POSITION": 0,
            "TEXCOORD_0": 2
          },
          "indices": 3,
          "material": 0,
          "mode": 4
        }
      ]
    }
  ],
  "nodes": [
    {
      "children": [
        1
      ],
      "matrix": [
        1.0,
        0.0,
        0.0,
        0.0,
        0.0,
        2.220446049250313e-16,
        -1.0,
        0.0,
        0.0,
        1.0,
        2.220446049250313e-16,
        0.0,
        0.0,
        0.0,
        0.0,
        1.0
      ],
      "name": "Sketchfab_model"
    },
    {
      "children": [
        2
      ],
      "matrix": [
        0.009999999776482582,
        0.0,
        0.0,
        0.0,
        0.0,
        0.0,
        0.009999999776482582,
        0.0,
        0.0,
        -0.009999999776482582,
        0.0,
        0.0,
        0.0,
        0.0,
        0.0,
        1.0
      ],
      "name": "4eb9ce2bb3534cba8af168806cbc920e.fbx"
    },
    {
      "children": [
        3
      ],
      "name": "RootNode"
    },
    {
      "children": [
        4
      ],
      "matrix": [
        1.0,
        0.0,
        0.0,
        0.0,
        0.0,
        -4.371139006309477e-08,
        0.999999999999999,
        0.0,
        0.0,
        -0.999999999999999,
        -4.371139006309477e-08,
        0.0,
        0.0,
        0.0,
        0.0,
        1.0
      ],
      "name": "mesh_lpvc"
    },
    {
      "mesh": 0,
      "name": "mesh_lpvc_VertexColor.004_0"
    }
  ],
  "samplers": [
    {
      "magFilter": 9729,
      "minFilter": 9987,
      "wrapS": 10497,
      "wrapT": 10497
    }
  ],
  "scene": 0,
  "scenes": [
    {
      "name": "Sketchfab_Scene",
      "nodes": [
        0
      ]
    }
  ],
  "textures": [
    {
      "sampler": 0,
      "source": 0
    }
  ]
}
