{
  "accessors": [
    {
      "bufferView": 3,
      "componentType": 5126,
      "count": 21026,
      "max": [
        1.1402794122695923,
        5.848721981048584,
        1.7112818956375122
      ],
      "min": [
        -1.7681200504302979,
        -1.3979811602822257e-16,
        -1.4033622741699219
      ],
      "type": "VEC3"
    },
    {
      "bufferView": 3,
      "byteOffset": 252312,
      "componentType": 5126,
      "count": 21026,
      "max": [
        0.999981164932251,
        0.9999974370002747,
        0.9999958872795105
      ],
      "min": [
        -0.9999963641166687,
        -1.0,
        -0.9999990463256836
      ],
      "type": "VEC3"
    },
    {
      "bufferView": 2,
      "componentType": 5126,
      "count": 21026,
      "max": [
        0.9993929862976074,
        0.991985023021698
      ],
      "min": [
        0.0006070000235922635,
        0.0006070000235922635
      ],
      "type": "VEC2"
    },
    {
      "bufferView": 2,
      "byteOffset": 168208,
      "componentType": 5126,
      "count": 21026,
      "max": [
        0.9104768633842468,
        1.325392246246338
      ],
      "min": [
        0.08952312171459198,
        -0.3328002095222473
      ],
      "type": "VEC2"
    },
    {
      "bufferView": 1,
      "componentType": 5125,
      "count": 107454,
      "type": "SCALAR"
    },
    {
      "bufferView": 5,
      "componentType": 5126,
      "count": 34,
      "max": [
        241.92233276367188,
        236.69154357910156,
        226.38900756835938,
        0.0,
        36.39057159423828,
        241.92233276367188,
        241.89584350585938,
        0.0,
        241.0967254638672,
        231.71829223632813,
        241.92233276367188,
        0.0,
        261.6502380371094,
        787.0480346679688,
        929.1057739257813,
        1.0
      ],
      "min": [
        -241.91778564453125,
        -236.69149780273438,
        -226.01730346679688,
        0.0,
        -81.33981323242188,
        -241.77676391601563,
        -236.0100555419922,
        0.0,
        -241.22634887695313,
        -34.998695373535156,
        -113.2831039428711,
        0.0,
        -300.4364013671875,
        -958.470703125,
        -370.8196105957031,
        1.0
      ],
      "type": "MAT4"
    },
    {
      "bufferView": 0,
      "componentType": 5123,
      "count": 21026,
      "type": "VEC4"
    },
    {
      "bufferView": 4,
      "componentType": 5126,
      "count": 21026,
      "max": [
        1.0,
        0.49997055530548096,
        0.3261238634586334,
        0.18183854222297668
      ],
      "min": [
        0.3061051368713379,
        0.0,
        0.0,
        0.0
      ],
      "type": "VEC4"
    },
    {
      "bufferView": 6,
      "componentType": 5126,
      "count": 26,
      "max": [
        0.9666666388511658
      ],
      "min": [
        0.0
      ],
      "type": "SCALAR"
    },
    {
      "bufferView": 7,
      "componentType": 5126,
      "count": 26,
      "max": [
        7.105427357601002e-15,
        14.23175048828125,
        3.47845458984375
      ],
      "min": [
        -7.105427357601002e-15,
        14.23175048828125,
        3.47845458984375
      ],
      "type": "VEC3"
    },
    {
      "bufferView": 6,
      "byteOffset": 104,
      "componentType": 5126,
      "count": 30,
      "max": [
        0.9666666388511658
      ],
      "min": [
        0.0
      ],
      "type": "SCALAR"
    },
    {
      "bufferView": 8,
      "componentType": 5126,
      "count": 30,
      "max": [
        0.006472966633737087,
        0.01600489392876625,
        0.008321024477481842,
        0.9999925494194031
      ],
      "min": [
        -0.02151000313460827,
        -0.039265409111976624,
        -0.012926708906888962,
        0.999193549156189
      ],
      "type": "VEC4"
    },
    {
      "bufferView": 6,
      "byteOffset": 224,
      "componentType": 5126,
      "count": 28,
      "max": [
        0.9666666388511658
      ],
      "min": [
        0.0
      ],
      "type": "SCALAR"
    },
    {
      "bufferView": 7,
      "byteOffset": 312,
      "componentType": 5126,
      "count": 28,
      "max": [
        1.4210854715202004e-14,
        82.64012145996094,
        4.979088316758862e-06
      ],
      "min": [
        -1.4210854715202004e-14,
        82.64012145996094,
        4.979087862011511e-06
      ],
      "type": "VEC3"
    },
    {
      "bufferView": 6,
      "byteOffset": 336,
      "componentType": 5126,
      "count": 30,
      "max": [
        0.9666666388511658
      ],
      "min": [
        0.0
      ],
      "type": "SCALAR"
    },
    {
      "bufferView": 8,
      "byteOffset": 480,
      "componentType": 5126,
      "count": 30,
      "max": [
        0.012049718759953976,
        0.005957519635558128,
        -0.006524822674691677,
        0.9998790621757507
      ],
      "min": [
        -0.010970317758619785,
        -0.011349412612617016,
        -0.03033648617565632,
        0.9995267987251282
      ],
      "type": "VEC4"
    },
    {
      "bufferView": 6,
      "byteOffset": 456,
      "componentType": 5126,
      "count": 30,
      "max": [
        0.9666666388511658
      ],
      "min": [
        0.0
      ],
      "type": "SCALAR"
    },
    {
      "bufferView": 8,
      "byteOffset": 960,
      "componentType": 5126,
      "count": 30,
      "max": [
        0.05227459967136383,
        0.015780767425894737,
        -0.009934453293681145,
        0.9988892078399658
      ],
      "min": [
        0.04266776144504547,
        0.014442536048591137,
        -0.012280764058232307,
        0.998478889465332
      ],
      "type": "VEC4"
    },
    {
      "bufferView": 6,
      "byteOffset": 576,
      "componentType": 5126,
      "count": 30,
      "max": [
        0.9666666388511658
      ],
      "min": [
        0.0
      ],
      "type": "SCALAR"
    },
    {
      "bufferView": 7,
      "byteOffset": 648,
      "componentType": 5126,
      "count": 30,
      "max": [
        4.121285428482224e-07,
        22.102096557617188,
        1.7457045942137484e-07
      ],
      "min": [
        4.121284291613847e-07,
        22.102096557617188,
        1.7457000467402395e-07
      ],
      "type": "VEC3"
    },
    {
      "bufferView": 6,
      "byteOffset": 696,
      "componentType": 5126,
      "count": 30,
      "max": [
        0.9666666388511658
      ],
      "min": [
        0.0
      ],
      "type": "SCALAR"
    },
    {
      "bufferView": 8,
      "byteOffset": 1440,
      "componentType": 5126,
      "count": 30,
      "max": [
        -0.23548847436904907,
        -0.010462515987455845,
        0.011387679725885391,
        0.9717440009117126
      ],
      "min": [
        -0.2448742836713791,
        -0.011360357515513897,
        0.008831772021949291,
        0.9694581627845764
      ],
      "type": "VEC4"
    },
    {
      "bufferView": 6,
      "byteOffset": 816,
      "componentType": 5126,
      "count": 21,
      "max": [
        0.9666666388511658
      ],
      "min": [
        0.0
      ],
      "type": "SCALAR"
    },
    {
      "bufferView": 7,
      "byteOffset": 1008,
      "componentType": 5126,
      "count": 21,
      "max": [
        -1.2619404969882453e-06,
        120.96195220947266,
        -8.188447964130319e-07
      ],
      "min": [
        -1.2619404969882453e-06,
        120.96195220947266,
        -8.18845137473545e-07
      ],
      "type": "VEC3"
    },
    {
      "bufferView": 6,
      "byteOffset": 900,
      "componentType": 5126,
      "count": 30,
      "max": [
        0.9666666388511658
      ],
      "min": [
        0.0
      ],
      "type": "SCALAR"
    },
    {
      "bufferView": 8,
      "byteOffset": 1920,
      "componentType": 5126,
      "count": 30,
      "max": [
        0.10947570204734802,
        0.09609753638505936,
        0.021412039175629616,
        0.9991620779037476
      ],
      "min": [
        -0.0686560645699501,
        0.010708598420023918,
        -0.04597731679677963,
        0.9898414015769958
      ],
      "type": "VEC4"
    },
    {
      "bufferView": 6,
      "byteOffset": 1020,
      "componentType": 5126,
      "count": 28,
      "max": [
        0.9666666388511658
      ],
      "min": [
        0.0
      ],
      "type": "SCALAR"
    },
    {
      "bufferView": 7,
      "byteOffset": 1260,
      "componentType": 5126,
      "count": 28,
      "max": [
        -1.7096371038860525e-06,
        180.89096069335938,
        2.1185633158893324e-07
      ],
      "min": [
        -1.709637331259728e-06,
        180.89096069335938,
        2.118561042152578e-07
      ],
      "type": "VEC3"
    },
    {
      "bufferView": 6,
      "byteOffset": 1132,
      "componentType": 5126,
      "count": 30,
      "max": [
        0.9666666388511658
      ],
      "min": [
        0.0
      ],
      "type": "SCALAR"
    },
    {
      "bufferView": 8,
      "byteOffset": 2400,
      "componentType": 5126,
      "count": 30,
      "max": [
        0.25979259610176086,
        0.433509886264801,
        0.16051451861858368,
        0.9815915822982788
      ],
      "min": [
        -0.13152001798152924,
        0.1105421781539917,
        0.04085675999522209,
        0.8583491444587708
      ],
      "type": "VEC4"
    },
    {
      "bufferView": 6,
      "byteOffset": 1252,
      "componentType": 5126,
      "count": 29,
      "max": [
        0.9666666388511658
      ],
      "min": [
        0.0
      ],
      "type": "SCALAR"
    },
    {
      "bufferView": 7,
      "byteOffset": 1596,
      "componentType": 5126,
      "count": 29,
      "max": [
        -1.866105776571203e-07,
        138.58131408691406,
        1.582508616593259e-06
      ],
      "min": [
        -1.8661080503079575e-07,
        138.58131408691406,
        1.5825083892195835e-06
      ],
      "type": "VEC3"
    },
    {
      "bufferView": 6,
      "byteOffset": 1368,
      "componentType": 5126,
      "count": 30,
      "max": [
        0.9666666388511658
      ],
      "min": [
        0.0
      ],
      "type": "SCALAR"
    },
    {
      "bufferView": 8,
      "byteOffset": 2880,
      "componentType": 5126,
      "count": 30,
      "max": [
        -0.04500025883316994,
        0.15780961513519287,
        0.5341039299964905,
        0.964343249797821
      ],
      "min": [
        -0.11575424671173096,
        0.13524621725082397,
        0.207637220621109,
        0.8264638185501099
      ],
      "type": "VEC4"
    },
    {
      "bufferView": 6,
      "byteOffset": 1488,
      "componentType": 5126,
      "count": 30,
      "max": [
        0.9666666388511658
      ],
      "min": [
        0.0
      ],
      "type": "SCALAR"
    },
    {
      "bufferView": 7,
      "byteOffset": 1944,
      "componentType": 5126,
      "count": 30,
      "max": [
        4.281963583707693e-08,
        108.09200286865234,
        2.2493281903734896e-07
      ],
      "min": [
        4.2819351619982626e-08,
        108.09200286865234,
        2.249324779768358e-07
      ],
      "type": "VEC3"
    },
    {
      "bufferView": 6,
      "byteOffset": 1608,
      "componentType": 5126,
      "count": 30,
      "max": [
        0.9666666388511658
      ],
      "min": [
        0.0
      ],
      "type": "SCALAR"
    },
    {
      "bufferView": 8,
      "byteOffset": 3360,
      "componentType": 5126,
      "count": 30,
      "max": [
        0.6525757908821106,
        0.0928511917591095,
        -0.009793371893465519,
        0.8442923426628113
      ],
      "min": [
        0.5301796197891235,
        0.02571156807243824,
        -0.31865596771240234,
        0.7246695160865784
      ],
      "type": "VEC4"
    },
    {
      "bufferView": 6,
      "byteOffset": 1728,
      "componentType": 5126,
      "count": 30,
      "max": [
        0.9666666388511658
      ],
      "min": [
        0.0
      ],
      "type": "SCALAR"
    },
    {
      "bufferView": 8,
      "byteOffset": 3840,
      "componentType": 5126,
      "count": 30,
      "max": [
        0.6166579127311707,
        0.4700671136379242,
        -0.312387615442276,
        0.5938645005226135
      ],
      "min": [
        0.5832096338272095,
        0.4143618047237396,
        -0.4544036090373993,
        0.4824291169643402
      ],
      "type": "VEC4"
    },
    {
      "bufferView": 6,
      "byteOffset": 1848,
      "componentType": 5126,
      "count": 30,
      "max": [
        0.9666666388511658
      ],
      "min": [
        0.0
      ],
      "type": "SCALAR"
    },
    {
      "bufferView": 8,
      "byteOffset": 4320,
      "componentType": 5126,
      "count": 30,
      "max": [
        -0.06955729424953461,
        0.012903479859232903,
        0.19329246878623962,
        0.9803670644760132
      ],
      "min": [
        -0.07261886447668076,
        0.0122960414737463,
        0.18409521877765656,
        0.9783650040626526
      ],
      "type": "VEC4"
    },
    {
      "bufferView": 6,
      "byteOffset": 1968,
      "componentType": 5126,
      "count": 30,
      "max": [
        0.9666666388511658
      ],
      "min": [
        0.0
      ],
      "type": "SCALAR"
    },
    {
      "bufferView": 7,
      "byteOffset": 2304,
      "componentType": 5126,
      "count": 30,
      "max": [
        -7.669393653486622e-08,
        27.46485710144043,
        -2.2206575067684753e-07
      ],
      "min": [
        -7.669416390854167e-08,
        27.46485710144043,
        -2.2206597805052297e-07
      ],
      "type": "VEC3"
    },
    {
      "bufferView": 6,
      "byteOffset": 2088,
      "componentType": 5126,
      "count": 30,
      "max": [
        0.9666666388511658
      ],
      "min": [
        0.0
      ],
      "type": "SCALAR"
    },
    {
      "bufferView": 8,
      "byteOffset": 4800,
      "componentType": 5126,
      "count": 30,
      "max": [
        -0.03604450076818466,
        0.009672023355960846,
        0.2048075944185257,
        0.9799731969833374
      ],
      "min": [
        -0.039168570190668106,
        0.009266356006264687,
        0.19562077522277832,
        0.9779704213142395
      ],
      "type": "VEC4"
    },
    {
      "bufferView": 6,
      "byteOffset": 2208,
      "componentType": 5126,
      "count": 19,
      "max": [
        0.9666666388511658
      ],
      "min": [
        0.0
      ],
      "type": "SCALAR"
    },
    {
      "bufferView": 7,
      "byteOffset": 2664,
      "componentType": 5126,
      "count": 19,
      "max": [
        -6.484774075943278e-06,
        663.0721435546875,
        1.2400490959407762e-05
      ],
      "min": [
        -6.484774530690629e-06,
        663.0721435546875,
        1.240049004991306e-05
      ],
      "type": "VEC3"
    },
    {
      "bufferView": 6,
      "byteOffset": 2284,
      "componentType": 5126,
      "count": 30,
      "max": [
        0.9666666388511658
      ],
      "min": [
        0.0
      ],
      "type": "SCALAR"
    },
    {
      "bufferView": 8,
      "byteOffset": 5280,
      "componentType": 5126,
      "count": 30,
      "max": [
        0.027441661804914474,
        0.02012087218463421,
        0.1837320327758789,
        0.9997469186782837
      ],
      "min": [
        -0.019244467839598656,
        -0.005604115314781666,
        -0.004708914086222649,
        0.9825819730758667
      ],
      "type": "VEC4"
    },
    {
      "bufferView": 6,
      "byteOffset": 2404,
      "componentType": 5126,
      "count": 29,
      "max": [
        0.9666666388511658
      ],
      "min": [
        0.0
      ],
      "type": "SCALAR"
    },
    {
      "bufferView": 7,
      "byteOffset": 2892,
      "componentType": 5126,
      "count": 29,
      "max": [
        -6.567341870322707e-07,
        168.0839080810547,
        7.870819445088273e-07
      ],
      "min": [
        -6.567344144059462e-07,
        168.0839080810547,
        7.870816034483141e-07
      ],
      "type": "VEC3"
    },
    {
      "bufferView": 6,
      "byteOffset": 2520,
      "componentType": 5126,
      "count": 30,
      "max": [
        0.9666666388511658
      ],
      "min": [
        0.0
      ],
      "type": "SCALAR"
    },
    {
      "bufferView": 8,
      "byteOffset": 5760,
      "componentType": 5126,
      "count": 30,
      "max": [
        0.0837702825665474,
        0.8488079905509949,
        0.10044047236442566,
        0.6913732290267944
      ],
      "min": [
        0.004785848315805197,
        0.694593608379364,
        -0.284972608089447,
        0.517447829246521
      ],
      "type": "VEC4"
    },
    {
      "bufferView": 6,
      "byteOffset": 2640,
      "componentType": 5126,
      "count": 30,
      "max": [
        0.9666666388511658
      ],
      "min": [
        0.0
      ],
      "type": "SCALAR"
    },
    {
      "bufferView": 7,
      "byteOffset": 3240,
      "componentType": 5126,
      "count": 30,
      "max": [
        -2.975569941554568e-07,
        139.83335876464844,
        1.1095977470176877e-06
      ],
      "min": [
        -2.9755733521596994e-07,
        139.83335876464844,
        1.1095975196440122e-06
      ],
      "type": "VEC3"
    },
    {
      "bufferView": 6,
      "byteOffset": 2760,
      "componentType": 5126,
      "count": 30,
      "max": [
        0.9666666388511658
      ],
      "min": [
        0.0
      ],
      "type": "SCALAR"
    },
    {
      "bufferView": 8,
      "byteOffset": 6240,
      "componentType": 5126,
      "count": 30,
      "max": [
        -0.06562120467424393,
        -0.18867625296115875,
        -0.23237256705760956,
        0.9492595195770264
      ],
      "min": [
        -0.11348412185907364,
        -0.2015025019645691,
        -0.40186214447021484,
        0.8888360261917114
      ],
      "type": "VEC4"
    },
    {
      "bufferView": 6,
      "byteOffset": 2880,
      "componentType": 5126,
      "count": 30,
      "max": [
        0.9666666388511658
      ],
      "min": [
        0.0
      ],
      "type": "SCALAR"
    },
    {
      "bufferView": 7,
      "byteOffset": 3600,
      "componentType": 5126,
      "count": 30,
      "max": [
        5.212314135860652e-09,
        108.0920181274414,
        2.3343875454884255e-07
      ],
      "min": [
        5.2120867621852085e-09,
        108.0920181274414,
        2.334384134883294e-07
      ],
      "type": "VEC3"
    },
    {
      "bufferView": 6,
      "byteOffset": 3000,
      "componentType": 5126,
      "count": 30,
      "max": [
        0.9666666388511658
      ],
      "min": [
        0.0
      ],
      "type": "SCALAR"
    },
    {
      "bufferView": 8,
      "byteOffset": 6720,
      "componentType": 5126,
      "count": 30,
      "max": [
        0.6306942701339722,
        -0.08387826383113861,
        0.26323428750038147,
        0.7928047180175781
      ],
      "min": [
        0.5766428709030151,
        -0.2232442945241928,
        -0.14610041677951813,
        0.7133007645606995
      ],
      "type": "VEC4"
    },
    {
      "bufferView": 6,
      "byteOffset": 3120,
      "componentType": 5126,
      "count": 30,
      "max": [
        0.9666666388511658
      ],
      "min": [
        0.0
      ],
      "type": "SCALAR"
    },
    {
      "bufferView": 8,
      "byteOffset": 7200,
      "componentType": 5126,
      "count": 30,
      "max": [
        0.5254369974136353,
        -0.4624200761318207,
        0.522985577583313,
        0.5757932662963867
      ],
      "min": [
        0.5014559030532837,
        -0.48794984817504883,
        0.42719775438308716,
        0.48675763607025146
      ],
      "type": "VEC4"
    },
    {
      "bufferView": 6,
      "byteOffset": 3240,
      "componentType": 5126,
      "count": 30,
      "max": [
        0.9666666388511658
      ],
      "min": [
        0.0
      ],
      "type": "SCALAR"
    },
    {
      "bufferView": 7,
      "byteOffset": 3960,
      "componentType": 5126,
      "count": 30,
      "max": [
        1.4210854715202004e-14,
        73.45787811279297,
        -3.0889930258126697e-07
      ],
      "min": [
        -2.842170943040401e-14,
        73.45787811279297,
        -3.0889964364178013e-07
      ],
      "type": "VEC3"
    },
    {
      "bufferView": 6,
      "byteOffset": 3360,
      "componentType": 5126,
      "count": 30,
      "max": [
        0.9666666388511658
      ],
      "min": [
        0.0
      ],
      "type": "SCALAR"
    },
    {
      "bufferView": 8,
      "byteOffset": 7680,
      "componentType": 5126,
      "count": 30,
      "max": [
        -0.01036701537668705,
        0.02594779245555401,
        0.00570560060441494,
        0.9995711445808411
      ],
      "min": [
        -0.02995767630636692,
        -0.0426618866622448,
        -0.022088054567575455,
        0.9988893270492554
      ],
      "type": "VEC4"
    },
    {
      "bufferView": 6,
      "byteOffset": 3480,
      "componentType": 5126,
      "count": 29,
      "max": [
        0.9666666388511658
      ],
      "min": [
        0.0
      ],
      "type": "SCALAR"
    },
    {
      "bufferView": 7,
      "byteOffset": 4320,
      "componentType": 5126,
      "count": 29,
      "max": [
        1.4210854715202004e-14,
        64.275634765625,
        1.0088410817843396e-07
      ],
      "min": [
        -2.842170943040401e-14,
        64.275634765625,
        1.008837671179208e-07
      ],
      "type": "VEC3"
    },
    {
      "bufferView": 6,
      "byteOffset": 3596,
      "componentType": 5126,
      "count": 30,
      "max": [
        0.9666666388511658
      ],
      "min": [
        0.0
      ],
      "type": "SCALAR"
    },
    {
      "bufferView": 8,
      "byteOffset": 8160,
      "componentType": 5126,
      "count": 30,
      "max": [
        0.028830237686634064,
        0.02534860000014305,
        0.010199123993515968,
        0.9999459385871887
      ],
      "min": [
        0.009143740870058537,
        -0.04278296232223511,
        -0.017444496974349022,
        0.9987657070159912
      ],
      "type": "VEC4"
    },
    {
      "bufferView": 6,
      "byteOffset": 3716,
      "componentType": 5126,
      "count": 28,
      "max": [
        0.9666666388511658
      ],
      "min": [
        0.0
      ],
      "type": "SCALAR"
    },
    {
      "bufferView": 7,
      "byteOffset": 4668,
      "componentType": 5126,
      "count": 28,
      "max": [
        2.842170943040401e-14,
        54.93853759765625,
        -4.12786865234375
      ],
      "min": [
        -2.842170943040401e-14,
        54.93853759765625,
        -4.12786865234375
      ],
      "type": "VEC3"
    },
    {
      "bufferView": 6,
      "byteOffset": 3828,
      "componentType": 5126,
      "count": 30,
      "max": [
        0.9666666388511658
      ],
      "min": [
        0.0
      ],
      "type": "SCALAR"
    },
    {
      "bufferView": 8,
      "byteOffset": 8640,
      "componentType": 5126,
      "count": 30,
      "max": [
        -0.0020211338996887207,
        0.020228177309036255,
        0.02805718034505844,
        0.999988317489624
      ],
      "min": [
        -0.036771874874830246,
        -0.025458797812461853,
        -0.011145999655127525,
        0.9988152384757996
      ],
      "type": "VEC4"
    },
    {
      "bufferView": 6,
      "byteOffset": 3948,
      "componentType": 5126,
      "count": 22,
      "max": [
        0.9666666388511658
      ],
      "min": [
        0.0
      ],
      "type": "SCALAR"
    },
    {
      "bufferView": 7,
      "byteOffset": 5004,
      "componentType": 5126,
      "count": 22,
      "max": [
        2.216697112089605e-06,
        184.9906005859375,
        1.0744693099695724e-06
      ],
      "min": [
        2.216697112089605e-06,
        184.9906005859375,
        1.074469082595897e-06
      ],
      "type": "VEC3"
    },
    {
      "bufferView": 6,
      "byteOffset": 4036,
      "componentType": 5126,
      "count": 30,
      "max": [
        0.9666666388511658
      ],
      "min": [
        0.0
      ],
      "type": "SCALAR"
    },
    {
      "bufferView": 8,
      "byteOffset": 9120,
      "componentType": 5126,
      "count": 30,
      "max": [
        0.7508875131607056,
        0.0002722257049754262,
        -0.00030964688630774617,
        0.9672034978866577
      ],
      "min": [
        0.2540024220943451,
        -0.1863425374031067,
        -0.12879334390163422,
        0.6469904184341431
      ],
      "type": "VEC4"
    },
    {
      "bufferView": 6,
      "byteOffset": 4156,
      "componentType": 5126,
      "count": 30,
      "max": [
        0.9666666388511658
      ],
      "min": [
        0.0
      ],
      "type": "SCALAR"
    },
    {
      "bufferView": 7,
      "byteOffset": 5268,
      "componentType": 5126,
      "count": 30,
      "max": [
        -1.201357235913747e-09,
        285.3905334472656,
        2.2735366655979306e-07
      ],
      "min": [
        -1.2014211847599654e-09,
        285.3905334472656,
        2.2735355287295533e-07
      ],
      "type": "VEC3"
    },
    {
      "bufferView": 6,
      "byteOffset": 4276,
      "componentType": 5126,
      "count": 30,
      "max": [
        0.9666666388511658
      ],
      "min": [
        0.0
      ],
      "type": "SCALAR"
    },
    {
      "bufferView": 8,
      "byteOffset": 9600,
      "componentType": 5126,
      "count": 30,
      "max": [
        0.7149977087974548,
        -0.030768772587180138,
        0.11352144926786423,
        0.9178057312965393
      ],
      "min": [
        0.36356881260871887,
        -0.1580870896577835,
        -0.021420162171125412,
        0.6975748538970947
      ],
      "type": "VEC4"
    },
    {
      "bufferView": 6,
      "byteOffset": 4396,
      "componentType": 5126,
      "count": 29,
      "max": [
        0.9666666388511658
      ],
      "min": [
        0.0
      ],
      "type": "SCALAR"
    },
    {
      "bufferView": 7,
      "byteOffset": 5628,
      "componentType": 5126,
      "count": 29,
      "max": [
        2.408672798992484e-07,
        262.0028381347656,
        -1.2054056242050137e-07
      ],
      "min": [
        2.408671946341201e-07,
        262.0028381347656,
        -1.2054078979417682e-07
      ],
      "type": "VEC3"
    },
    {
      "bufferView": 6,
      "byteOffset": 4512,
      "componentType": 5126,
      "count": 30,
      "max": [
        0.9666666388511658
      ],
      "min": [
        0.0
      ],
      "type": "SCALAR"
    },
    {
      "bufferView": 8,
      "byteOffset": 10080,
      "componentType": 5126,
      "count": 30,
      "max": [
        -0.1858609914779663,
        0.06921839714050293,
        0.06419218331575394,
        0.9824274182319641
      ],
      "min": [
        -0.5952403545379639,
        -0.03943594917654991,
        -0.024381199851632118,
        0.8013331294059753
      ],
      "type": "VEC4"
    },
    {
      "bufferView": 6,
      "byteOffset": 4632,
      "componentType": 5126,
      "count": 30,
      "max": [
        0.9666666388511658
      ],
      "min": [
        0.0
      ],
      "type": "SCALAR"
    },
    {
      "bufferView": 8,
      "byteOffset": 10560,
      "componentType": 5126,
      "count": 30,
      "max": [
        0.10090767592191696,
        0.3808698356151581,
        0.9980196356773376,
        0.08900295943021774
      ],
      "min": [
        -0.010633254423737526,
        -0.061465147882699966,
        0.924156904220581,
        -0.058939673006534576
      ],
      "type": "VEC4"
    },
    {
      "bufferView": 6,
      "byteOffset": 4752,
      "componentType": 5126,
      "count": 14,
      "max": [
        0.9666666388511658
      ],
      "min": [
        0.0
      ],
      "type": "SCALAR"
    },
    {
      "bufferView": 7,
      "byteOffset": 5976,
      "componentType": 5126,
      "count": 14,
      "max": [
        1.105004912460572e-06,
        187.7369384765625,
        -4.363182597444393e-06
      ],
      "min": [
        1.1050046850868966e-06,
        187.7369384765625,
        -4.363182597444393e-06
      ],
      "type": "VEC3"
    },
    {
      "bufferView": 6,
      "byteOffset": 4808,
      "componentType": 5126,
      "count": 30,
      "max": [
        0.9666666388511658
      ],
      "min": [
        0.0
      ],
      "type": "SCALAR"
    },
    {
      "bufferView": 8,
      "byteOffset": 11040,
      "componentType": 5126,
      "count": 30,
      "max": [
        0.8384939432144165,
        0.21625284850597382,
        0.20327818393707275,
        0.963373601436615
      ],
      "min": [
        0.2675938308238983,
        -0.030486665666103363,
        -0.004817236680537462,
        0.5046548247337341
      ],
      "type": "VEC4"
    },
    {
      "bufferView": 6,
      "byteOffset": 4928,
      "componentType": 5126,
      "count": 30,
      "max": [
        0.9666666388511658
      ],
      "min": [
        0.0
      ],
      "type": "SCALAR"
    },
    {
      "bufferView": 7,
      "byteOffset": 6144,
      "componentType": 5126,
      "count": 30,
      "max": [
        -6.863669455015042e-08,
        285.671630859375,
        7.079695478751091e-07
      ],
      "min": [
        -6.863672297185985e-08,
        285.671630859375,
        7.079693205014337e-07
      ],
      "type": "VEC3"
    },
    {
      "bufferView": 6,
      "byteOffset": 5048,
      "componentType": 5126,
      "count": 30,
      "max": [
        0.9666666388511658
      ],
      "min": [
        0.0
      ],
      "type": "SCALAR"
    },
    {
      "bufferView": 8,
      "byteOffset": 11520,
      "componentType": 5126,
      "count": 30,
      "max": [
        0.7110517024993896,
        0.264181524515152,
        -0.01090027391910553,
        0.918106198310852
      ],
      "min": [
        0.3636111915111542,
        0.08081284910440445,
        -0.14776620268821716,
        0.6962045431137085
      ],
      "type": "VEC4"
    },
    {
      "bufferView": 6,
      "byteOffset": 5168,
      "componentType": 5126,
      "count": 30,
      "max": [
        0.9666666388511658
      ],
      "min": [
        0.0
      ],
      "type": "SCALAR"
    },
    {
      "bufferView": 7,
      "byteOffset": 6504,
      "componentType": 5126,
      "count": 30,
      "max": [
        1.2581699593283702e-07,
        262.0025939941406,
        -1.0862618182727601e-07
      ],
      "min": [
        1.2581695330027287e-07,
        262.0025939941406,
        -1.086266365746269e-07
      ],
      "type": "VEC3"
    },
    {
      "bufferView": 6,
      "byteOffset": 5288,
      "componentType": 5126,
      "count": 30,
      "max": [
        0.9666666388511658
      ],
      "min": [
        0.0
      ],
      "type": "SCALAR"
    },
    {
      "bufferView": 8,
      "byteOffset": 12000,
      "componentType": 5126,
      "count": 30,
      "max": [
        -0.16155928373336792,
        -0.011909225955605507,
        0.0024827253073453903,
        0.9867284297943115
      ],
      "min": [
        -0.5937270522117615,
        -0.08866402506828308,
        -0.059597063809633255,
        0.8014397025108337
      ],
      "type": "VEC4"
    },
    {
      "bufferView": 6,
      "byteOffset": 5408,
      "componentType": 5126,
      "count": 30,
      "max": [
        0.9666666388511658
      ],
      "min": [
        0.0
      ],
      "type": "SCALAR"
    },
    {
      "bufferView": 8,
      "byteOffset": 12480,
      "componentType": 5126,
      "count": 30,
      "max": [
        -0.033955708146095276,
        0.3886183500289917,
        0.994644045829773,
        0.08809725940227509
      ],
      "min": [
        -0.1441073715686798,
        -0.12654292583465576,
        0.914638876914978,
        -0.08588448911905289
      ],
      "type": "VEC4"
    },
    {
      "bufferView": 6,
      "byteOffset": 5528,
      "componentType": 5126,
      "count": 30,
      "max": [
        0.9666666388511658
      ],
      "min": [
        0.0
      ],
      "type": "SCALAR"
    },
    {
      "bufferView": 7,
      "byteOffset": 6864,
      "componentType": 5126,
      "count": 30,
      "max": [
        37.198612213134766,
        656.4705810546875,
        1105.8631591796875
      ],
      "min": [
        1.2978489398956299,
        621.94091796875,
        -6.440547466278076
      ],
      "type": "VEC3"
    },
    {
      "bufferView": 6,
      "byteOffset": 5648,
      "componentType": 5126,
      "count": 30,
      "max": [
        0.9666666388511658
      ],
      "min": [
        0.0
      ],
      "type": "SCALAR"
    },
    {
      "bufferView": 8,
      "byteOffset": 12960,
      "componentType": 5126,
      "count": 30,
      "max": [
        0.022221138700842857,
        0.08710680902004242,
        0.05589912831783295,
        0.9997369050979614
      ],
      "min": [
        -0.006861391011625528,
        -0.03971875458955765,
        -0.039100177586078644,
        0.9955876469612122
      ],
      "type": "VEC4"
    }
  ],
  "animations": [
    {
      "channels": [
        {
          "sampler": 0,
          "target": {
            "node": 13,
            "path": "translation"
          }
        },
        {
          "sampler": 1,
          "target": {
            "node": 13,
            "path": "rotation"
          }
        },
        {
          "sampler": 2,
          "target": {
            "node": 12,
            "path": "translation"
          }
        },
        {
          "sampler": 3,
          "target": {
            "node": 12,
            "path": "rotation"
          }
        },
        {
          "sampler": 4,
          "target": {
            "node": 21,
            "path": "rotation"
          }
        },
        {
          "sampler": 5,
          "target": {
            "node": 20,
            "path": "translation"
          }
        },
        {
          "sampler": 6,
          "target": {
            "node": 20,
            "path": "rotation"
          }
        },
        {
          "sampler": 7,
          "target": {
            "node": 19,
            "path": "translation"
          }
        },
        {
          "sampler": 8,
          "target": {
            "node": 19,
            "path": "rotation"
          }
        },
        {
          "sampler": 9,
          "target": {
            "node": 18,
            "path": "translation"
          }
        },
        {
          "sampler": 10,
          "target": {
            "node": 18,
            "path": "rotation"
          }
        },
        {
          "sampler": 11,
          "target": {
            "node": 17,
            "path": "translation"
          }
        },
        {
          "sampler": 12,
          "target": {
            "node": 17,
            "path": "rotation"
          }
        },
        {
          "sampler": 13,
          "target": {
            "node": 16,
            "path": "translation"
          }
        },
        {
          "sampler": 14,
          "target": {
            "node": 16,
            "path": "rotation"
          }
        },
        {
          "sampler": 15,
          "target": {
            "node": 15,
            "path": "rotation"
          }
        },
        {
          "sampler": 16,
          "target": {
            "node": 29,
            "path": "rotation"
          }
        },
        {
          "sampler": 17,
          "target": {
            "node": 28,
            "path": "translation"
          }
        },
        {
          "sampler": 18,
          "target": {
            "node": 28,
            "path": "rotation"
          }
        },
        {
          "sampler": 19,
          "target": {
            "node": 27,
            "path": "translation"
          }
        },
        {
          "sampler": 20,
          "target": {
            "node": 27,
            "path": "rotation"
          }
        },
        {
          "sampler": 21,
          "target": {
            "node": 26,
            "path": "translation"
          }
        },
        {
          "sampler": 22,
          "target": {
            "node": 26,
            "path": "rotation"
          }
        },
        {
          "sampler": 23,
          "target": {
            "node": 25,
            "path": "translation"
          }
        },
        {
          "sampler": 24,
          "target": {
            "node": 25,
            "path": "rotation"
          }
        },
        {
          "sampler": 25,
          "target": {
            "node": 24,
            "path": "translation"
          }
        },
        {
          "sampler": 26,
          "target": {
            "node": 24,
            "path": "rotation"
          }
        },
        {
          "sampler": 27,
          "target": {
            "node": 23,
            "path": "rotation"
          }
        },
        {
          "sampler": 28,
          "target": {
            "node": 11,
            "path": "translation"
          }
        },
        {
          "sampler": 29,
          "target": {
            "node": 11,
            "path": "rotation"
          }
        },
        {
          "sampler": 30,
          "target": {
            "node": 10,
            "path": "translation"
          }
        },
        {
          "sampler": 31,
          "target": {
            "node": 10,
            "path": "rotation"
          }
        },
        {
          "sampler": 32,
          "target": {
            "node": 9,
            "path": "translation"
          }
        },
        {
          "sampler": 33,
          "target": {
            "node": 9,
            "path": "rotation"
          }
        },
        {
          "sampler": 34,
          "target": {
            "node": 34,
            "path": "translation"
          }
        },
        {
          "sampler": 35,
          "target": {
            "node": 34,
            "path": "rotation"
          }
        },
        {
          "sampler": 36,
          "target": {
            "node": 33,
            "path": "translation"
          }
        },
        {
          "sampler": 37,
          "target": {
            "node": 33,
            "path": "rotation"
          }
        },
        {
          "sampler": 38,
          "target": {
            "node": 32,
            "path": "translation"
          }
        },
        {
          "sampler": 39,
          "target": {
            "node": 32,
            "path": "rotation"
          }
        },
        {
          "sampler": 40,
          "target": {
            "node": 31,
            "path": "rotation"
          }
        },
        {
          "sampler": 41,
          "target": {
            "node": 39,
            "path": "translation"
          }
        },
        {
          "sampler": 42,
          "target": {
            "node": 39,
            "path": "rotation"
          }
        },
        {
          "sampler": 43,
          "target": {
            "node": 38,
            "path": "translation"
          }
        },
        {
          "sampler": 44,
          "target": {
            "node": 38,
            "path": "rotation"
          }
        },
        {
          "sampler": 45,
          "target": {
            "node": 37,
            "path": "translation"
          }
        },
        {
          "sampler": 46,
          "target": {
            "node": 37,
            "path": "rotation"
          }
        },
        {
          "sampler": 47,
          "target": {
            "node": 36,
            "path": "rotation"
          }
        },
        {
          "sampler": 48,
          "target": {
            "node": 8,
            "path": "translation"
          }
        },
        {
          "sampler": 49,
          "target": {
            "node": 8,
            "path": "rotation"
          }
        }
      ],
      "name": "mixamo.com",
      "samplers": [
        {
          "input": 8,
          "interpolation": "LINEAR",
          "output": 9
        },
        {
          "input": 10,
          "interpolation": "LINEAR",
          "output": 11
        },
        {
          "input": 12,
          "interpolation": "LINEAR",
          "output": 13
        },
        {
          "input": 14,
          "interpolation": "LINEAR",
          "output": 15
        },
        {
          "input": 16,
          "interpolation": "LINEAR",
          "output": 17
        },
        {
          "input": 18,
          "interpolation": "LINEAR",
          "output": 19
        },
        {
          "input": 20,
          "interpolation": "LINEAR",
          "output": 21
        },
        {
          "input": 22,
          "interpolation": "LINEAR",
          "output": 23
        },
        {
          "input": 24,
          "interpolation": "LINEAR",
          "output": 25
        },
        {
          "input": 26,
          "interpolation": "LINEAR",
          "output": 27
        },
        {
          "input": 28,
          "interpolation": "LINEAR",
          "output": 29
        },
        {
          "input": 30,
          "interpolation": "LINEAR",
          "output": 31
        },
        {
          "input": 32,
          "interpolation": "LINEAR",
          "output": 33
        },
        {
          "input": 34,
          "interpolation": "LINEAR",
          "output": 35
        },
        {
          "input": 36,
          "interpolation": "LINEAR",
          "output": 37
        },
        {
          "input": 38,
          "interpolation": "LINEAR",
          "output": 39
        },
        {
          "input": 40,
          "interpolation": "LINEAR",
          "output": 41
        },
        {
          "input": 42,
          "interpolation": "LINEAR",
          "output": 43
        },
        {
          "input": 44,
          "interpolation": "LINEAR",
          "output": 45
        },
        {
          "input": 46,
          "interpolation": "LINEAR",
          "output": 47
        },
        {
          "input": 48,
          "interpolation": "LINEAR",
          "output": 49
        },
        {
          "input": 50,
          "interpolation": "LINEAR",
          "output": 51
        },
        {
          "input": 52,
          "interpolation": "LINEAR",
          "output": 53
        },
        {
          "input": 54,
          "interpolation": "LINEAR",
          "output": 55
        },
        {
          "input": 56,
          "interpolation": "LINEAR",
          "output": 57
        },
        {
          "input": 58,
          "interpolation": "LINEAR",
          "output": 59
        },
        {
          "input": 60,
          "interpolation": "LINEAR",
          "output": 61
        },
        {
          "input": 62,
          "interpolation": "LINEAR",
          "output": 63
        },
        {
          "input": 64,
          "interpolation": "LINEAR",
          "output": 65
        },
        {
          "input": 66,
          "interpolation": "LINEAR",
          "output": 67
        },
        {
          "input": 68,
          "interpolation": "LINEAR",
          "output": 69
        },
        {
          "input": 70,
          "interpolation": "LINEAR",
          "output": 71
        },
        {
          "input": 72,
          "interpolation": "LINEAR",
          "output": 73
        },
        {
          "input": 74,
          "interpolation": "LINEAR",
          "output": 75
        },
        {
          "input": 76,
          "interpolation": "LINEAR",
          "output": 77
        },
        {
          "input": 78,
          "interpolation": "LINEAR",
          "output": 79
        },
        {
          "input": 80,
          "interpolation": "LINEAR",
          "output": 81
        },
        {
          "input": 82,
          "interpolation": "LINEAR",
          "output": 83
        },
        {
          "input": 84,
          "interpolation": "LINEAR",
          "output": 85
        },
        {
          "input": 86,
          "interpolation": "LINEAR",
          "output": 87
        },
        {
          "input": 88,
          "interpolation": "LINEAR",
          "output": 89
        },
        {
          "input": 90,
          "interpolation": "LINEAR",
          "output": 91
        },
        {
          "input": 92,
          "interpolation": "LINEAR",
          "output": 93
        },
        {
          "input": 94,
          "interpolation": "LINEAR",
          "output": 95
        },
        {
          "input": 96,
          "interpolation": "LINEAR",
          "output": 97
        },
        {
          "input": 98,
          "interpolation": "LINEAR",
          "output": 99
        },
        {
          "input": 100,
          "interpolation": "LINEAR",
          "output": 101
        },
        {
          "input": 102,
          "interpolation": "LINEAR",
          "output": 103
        },
        {
          "input": 104,
          "interpolation": "LINEAR",
          "output": 105
        },
        {
          "input": 106,
          "interpolation": "LINEAR",
          "output": 107
        }
      ]
    }
  ],
  "asset": {
    "extras": {
      "author": "3D by Renato (https://sketchfab.com/3dbyrenato)",
      "license": "CC-BY-4.0 (http://creativecommons.org/licenses/by/4.0/)",
      "source": "https://sketchfab.com/3d-models/tung-tung-tung-sahur-walking-eb6fad4911354e52b32ec0a065d582ff",
      "title": "Tung Tung Tung Sahur Walking"
    },
    "generator": "Sketchfab-16.65.0",
    "version": "2.0"
  },
  "bufferViews": [
    {
      "buffer": 0,
      "byteLength": 168208,
      "byteStride": 8,
      "name": "shortBufferViews",
      "target": 34962
    },
    {
      "buffer": 0,
      "byteLength": 429816,
      "byteOffset": 168208,
      "name": "floatBufferViews",
      "target": 34963
    },
    {
      "buffer": 0,
      "byteLength": 336416,
      "byteOffset": 598024,
      "byteStride": 8,
      "name": "floatBufferViews",
      "target": 34962
    },
    {
      "buffer": 0,
      "byteLength": 504624,
      "byteOffset": 934440,
      "byteStride": 12,
      "name": "floatBufferViews",
      "target": 34962
    },
    {
      "buffer": 0,
      "byteLength": 336416,
      "byteOffset": 1439064,
      "byteStride": 16,
      "name": "floatBufferViews",
      "target": 34962
    },
    {
      "buffer": 0,
      "byteLength": 2176,
      "byteOffset": 1775480,
      "name": "floatBufferViews"
    },
    {
      "buffer": 0,
      "byteLength": 5768,
      "byteOffset": 1777656,
      "name": "floatBufferViews"
    },
    {
      "buffer": 0,
      "byteLength": 7224,
      "byteOffset": 1783424,
      "byteStride": 12,
      "name": "floatBufferViews"
    },
    {
      "buffer": 0,
      "byteLength": 13440,
      "byteOffset": 1790648,
      "byteStride": 16,
      "name": "floatBufferViews"
    }
  ],
  "buffers": [
    {
      "byteLength": 1804088,
      "uri": "scene.bin"
    }
  ],
  "images": [
    {
      "uri": "textures/Material_baseColor.png"
    }
  ],
  "materials": [
    {
      "doubleSided": true,
      "name": "Material",
      "pbrMetallicRoughness": {
        "baseColorTexture": {
          "index": 0
        },
        "metallicFactor": 0.0,
        "roughnessFactor": 0.8211145618000169
      }
    }
  ],
  "meshes": [
    {
      "name": "model.001_Material_0",
      "primitives": [
        {
          "attributes": {
            "JOINTS_0": 6,
            "NORMAL": 1,
            "POSITION": 0,
            "TEXCOORD_0": 2,
            "TEXCOORD_1": 3,
            "WEIGHTS_0": 7
          },
          "indices": 4,
          "material": 0,
          "mode": 4
        }
      ]
    }
  ],
  "nodes": [
    {
      "children": [
        1
      ],
      "matrix": [
        1.0,
        0.0,
        0.0,
        0.0,
        0.0,
        2.220446049250313e-16,
        -1.0,
        0.0,
        0.0,
        1.0,
        2.220446049250313e-16,
        0.0,
        0.0,
        0.0,
        0.0,
        1.0
      ],
      "name": "Sketchfab_model"
    },
    {
      "children": [
        2
      ],
      "matrix": [
        0.009999999776482582,
        0.0,
        0.0,
        0.0,
        0.0,
        0.0,
        0.009999999776482582,
        0.0,
        0.0,
        -0.009999999776482582,
        0.0,
        0.0,
        0.0,
        0.0,
        0.0,
        1.0
      ],
      "name": "87912242c64c422f86fa65eed8f84504.fbx"
    },
    {
      "children": [
        3
      ],
      "name": "Object_2"
    },
    {
      "children": [
        4
      ],
      "name": "RootNode"
    },
    {
      "children": [
        5,
        7,
        6,
        41
      ],
      "name": "Object_4"
    },
    {
      "children": [
        8
      ],
      "name": "_rootJoint"
    },
    {
      "matrix": [
        241.92233276367188,
        0.0,
        2.4868995751603507e-14,
        0.0,
        2.4868995751603437e-14,
        1.8264627977631796e-05,
        -241.9223327636712,
        0.0,
        -1.877556943137049e-21,
        241.92233276367122,
        1.82646279776318e-05,
        0.0,
        5.684341886080802e-14,
        -5.684341886080802e-14,
        5.684341886080802e-14,
        1.0
      ],
      "name": "Object_6"
    },
    {
      "mesh": 0,
      "name": "Object_7",
      "skin": 0
    },
    {
      "children": [
        9,
        31,
        36
      ],
      "name": "mixamorig:Hips_01",
      "translation": [
        -0.5282211303710938,
        669.5462036132813,
        -90.2884521484375
      ]
    },
    {
      "children": [
        10
      ],
      "name": "mixamorig:Spine_02",
      "rotation": [
        -0.037488777190446854,
        -0.0,
        0.0,
        0.9992971420288086
      ],
      "translation": [
        0.0,
        54.93853759765625,
        -4.12786865234375
      ]
    },
    {
      "children": [
        11
      ],
      "name": "mixamorig:Spine1_03",
      "rotation": [
        -1.4859276475931438e-08,
        -0.0,
        0.0,
        1.0
      ],
      "translation": [
        0.0,
        64.275634765625,
        1.0088388080475852e-07
      ]
    },
    {
      "children": [
        12,
        15,
        23
      ],
      "name": "mixamorig:Spine2_04",
      "translation": [
        0.0,
        73.45787811279297,
        -3.0889938784639526e-07
      ]
    },
    {
      "children": [
        13
      ],
      "name": "mixamorig:Neck_05",
      "rotation": [
        0.03748879209160805,
        0.0,
        0.0,
        0.9992971420288086
      ],
      "translation": [
        0.0,
        82.64012145996094,
        4.979088316758862e-06
      ]
    },
    {
      "children": [
        14
      ],
      "name": "mixamorig:Head_06",
      "translation": [
        0.0,
        14.23175048828125,
        3.47845458984375
      ]
    },
    {
      "name": "mixamorig:HeadTop_End_07",
      "translation": [
        0.0,
        443.7578125,
        108.46104431152344
      ]
    },
    {
      "children": [
        16
      ],
      "name": "mixamorig:LeftShoulder_08",
      "rotation": [
        -0.5490418672561646,
        -0.44509416818618774,
        0.5495132803916931,
        -0.44551026821136475
      ],
      "translation": [
        51.88977813720703,
        70.51071166992188,
        -0.0694769024848938
      ]
    },
    {
      "children": [
        17
      ],
      "name": "mixamorig:LeftArm_09",
      "rotation": [
        0.47866353392601013,
        0.06617894023656845,
        -0.03621307387948036,
        0.874751627445221
      ],
      "translation": [
        4.281949372852978e-08,
        108.09200286865234,
        2.2493259166367352e-07
      ]
    },
    {
      "children": [
        18
      ],
      "name": "mixamorig:LeftForeArm_010",
      "rotation": [
        0.044057540595531464,
        0.1553705483675003,
        0.26922720670700073,
        0.9494397640228271
      ],
      "translation": [
        -1.866106629222486e-07,
        138.58131408691406,
        1.5825085029064212e-06
      ]
    },
    {
      "children": [
        19
      ],
      "name": "mixamorig:LeftHand_011",
      "rotation": [
        0.050034891813993454,
        -0.00395561195909977,
        -0.0787121057510376,
        0.9956331253051758
      ],
      "translation": [
        -1.7096372175728902e-06,
        180.89096069335938,
        2.1185627474551438e-07
      ]
    },
    {
      "children": [
        20
      ],
      "name": "mixamorig:LeftHandIndex1_012",
      "rotation": [
        0.09824661910533905,
        0.006803740281611681,
        0.06875057518482208,
        0.9927611351013184
      ],
      "translation": [
        -1.2619404969882453e-06,
        120.96195220947266,
        -8.188449100998696e-07
      ]
    },
    {
      "children": [
        21
      ],
      "name": "mixamorig:LeftHandIndex2_013",
      "rotation": [
        1.8041124150158794e-16,
        5.007417855406813e-33,
        2.7755575615628914e-17,
        1.0
      ],
      "translation": [
        4.1212845758309413e-07,
        22.102096557617188,
        1.7457011836086167e-07
      ]
    },
    {
      "children": [
        22
      ],
      "name": "mixamorig:LeftHandIndex3_014",
      "rotation": [
        0.0,
        0.0,
        1.3877787807814457e-17,
        1.0
      ],
      "translation": [
        -1.1405138969421387,
        19.577796936035156,
        19.390390396118164
      ]
    },
    {
      "name": "mixamorig:LeftHandIndex4_015",
      "rotation": [
        -1.3877787807814457e-17,
        -5.551115123125783e-17,
        -7.703719777548943e-34,
        1.0
      ],
      "translation": [
        -2.711092948913574,
        19.443723678588867,
        18.31084442138672
      ]
    },
    {
      "children": [
        24
      ],
      "name": "mixamorig:RightShoulder_016",
      "rotation": [
        0.5396463871002197,
        -0.45266586542129517,
        0.5577008724212646,
        0.43914133310317993
      ],
      "translation": [
        -51.88977813720703,
        70.63651275634766,
        -1.7437888383865356
      ]
    },
    {
      "children": [
        25
      ],
      "name": "mixamorig:RightArm_017",
      "rotation": [
        0.4773622155189514,
        -0.10650458931922913,
        0.05842013657093048,
        0.8702695965766907
      ],
      "translation": [
        5.2121578164587845e-09,
        108.0920181274414,
        2.334385271751671e-07
      ]
    },
    {
      "children": [
        26
      ],
      "name": "mixamorig:RightForeArm_018",
      "rotation": [
        0.047074493020772934,
        -0.20224031805992126,
        -0.2217635065317154,
        0.9527350068092346
      ],
      "translation": [
        -2.9755716468571336e-07,
        139.83335876464844,
        1.10959763333085e-06
      ]
    },
    {
      "children": [
        27
      ],
      "name": "mixamorig:RightHand_019",
      "rotation": [
        0.09660936146974564,
        0.8834084272384644,
        -0.20914962887763977,
        0.40805959701538086
      ],
      "translation": [
        -6.567343575625273e-07,
        168.0839080810547,
        7.870817171351518e-07
      ]
    },
    {
      "children": [
        28
      ],
      "name": "mixamorig:RightHandIndex1_020",
      "rotation": [
        0.02300628460943699,
        -0.0005240690661594272,
        -0.022767525166273117,
        0.99947589635849
      ],
      "translation": [
        -6.484774530690629e-06,
        663.0721435546875,
        1.2400490959407762e-05
      ]
    },
    {
      "children": [
        29
      ],
      "name": "mixamorig:RightHandIndex2_021",
      "rotation": [
        -5.551115123125783e-17,
        -7.703719777548943e-34,
        1.3877787807814457e-17,
        1.0
      ],
      "translation": [
        -7.669410706512281e-08,
        27.46485710144043,
        -2.2206586436368525e-07
      ]
    },
    {
      "children": [
        30
      ],
      "name": "mixamorig:RightHandIndex3_022",
      "rotation": [
        5.551115123125783e-17,
        -1.3877787807814457e-17,
        7.703719777548943e-34,
        1.0
      ],
      "translation": [
        -1.3549007177352905,
        32.97844696044922,
        -2.9011435508728027
      ]
    },
    {
      "name": "mixamorig:RightHandIndex4_023",
      "rotation": [
        5.551115123125783e-17,
        0.0,
        0.0,
        1.0
      ],
      "translation": [
        0.46881580352783203,
        11.18168830871582,
        -0.24016249179840088
      ]
    },
    {
      "children": [
        32
      ],
      "name": "mixamorig:LeftUpLeg_024",
      "rotation": [
        0.00015064311446622014,
        0.012102811597287655,
        0.9998493194580078,
        -0.012445076368749142
      ],
      "translation": [
        87.84126281738281,
        -30.49737548828125,
        2.768463134765625
      ]
    },
    {
      "children": [
        33
      ],
      "name": "mixamorig:LeftLeg_025",
      "rotation": [
        -0.04662174731492996,
        0.00043735510553233325,
        -0.009370311163365841,
        0.9988685846328735
      ],
      "translation": [
        2.4086722305582953e-07,
        262.0028381347656,
        -1.2054064768562966e-07
      ]
    },
    {
      "children": [
        34
      ],
      "name": "mixamorig:LeftFoot_026",
      "rotation": [
        0.5328556895256042,
        -0.1229364350438118,
        0.07859015464782715,
        0.8335316777229309
      ],
      "translation": [
        -1.2013998684778926e-09,
        285.3905334472656,
        2.273536097163742e-07
      ]
    },
    {
      "children": [
        35
      ],
      "name": "mixamorig:LeftToeBase_027",
      "rotation": [
        0.2521423399448395,
        0.0008456743671558797,
        -0.00022037865710444748,
        0.9676897525787354
      ],
      "translation": [
        2.216697112089605e-06,
        184.9906005859375,
        1.0744691962827346e-06
      ]
    },
    {
      "name": "mixamorig:LeftToe_End_028",
      "rotation": [
        -8.794504707809736e-11,
        -9.194034422677078e-17,
        5.551115123125783e-17,
        1.0
      ],
      "translation": [
        1.0082699191116262e-06,
        73.91555786132813,
        2.4715108182249423e-08
      ]
    },
    {
      "children": [
        37
      ],
      "name": "mixamorig:RightUpLeg_00",
      "rotation": [
        -0.00015039084246382117,
        0.012082532048225403,
        0.9998495578765869,
        0.012445091269910336
      ],
      "translation": [
        -87.84126281738281,
        -30.49737548828125,
        3.6211395263671875
      ]
    },
    {
      "children": [
        38
      ],
      "name": "mixamorig:RightLeg_029",
      "rotation": [
        -0.05309848114848137,
        -0.0004980625817552209,
        0.009366332553327084,
        0.998545229434967
      ],
      "translation": [
        1.258169817219823e-07,
        262.0025939941406,
        -1.0862643762266089e-07
      ]
    },
    {
      "children": [
        39
      ],
      "name": "mixamorig:RightFoot_030",
      "rotation": [
        0.5416736006736755,
        0.11916451901197433,
        -0.07791511714458466,
        0.8284435868263245
      ],
      "translation": [
        -6.863669455015042e-08,
        285.671630859375,
        7.079694341882714e-07
      ]
    },
    {
      "children": [
        40
      ],
      "name": "mixamorig:RightToeBase_031",
      "rotation": [
        0.24829180538654327,
        0.011461829766631126,
        -0.002938095247372985,
        0.9686130285263062
      ],
      "translation": [
        1.1050047987737344e-06,
        187.7369384765625,
        -4.363182597444393e-06
      ]
    },
    {
      "name": "mixamorig:RightToe_End_032",
      "rotation": [
        -1.0853458409787464e-10,
        -6.288372600415926e-18,
        5.551115123125783e-17,
        1.0
      ],
      "translation": [
        1.8085310671267507e-07,
        72.74954223632813,
        -5.357335908229288e-09
      ]
    },
    {
      "name": "model.001",
      "rotation": [
        -0.7071067690849304,
        -0.0,
        0.0,
        0.7071068286895752
      ],
      "scale": [
        241.92233276367188,
        241.92233276367188,
        241.92233276367188
      ]
    }
  ],
  "samplers": [
    {
      "magFilter": 9729,
      "minFilter": 9987,
      "wrapS": 10497,
      "wrapT": 10497
    }
  ],
  "scene": 0,
  "scenes": [
    {
      "name": "Sketchfab_Scene",
      "nodes": [
        0
      ]
    }
  ],
  "skins": [
    {
      "inverseBindMatrices": 5,
      "joints": [
        5,
        8,
        9,
        10,
        11,
        12,
        13,
        14,
        15,
        16,
        17,
        18,
        19,
        20,
        21,
        22,
        23,
        24,
        25,
        26,
        27,
        28,
        29,
        30,
        31,
        32,
        33,
        34,
        35,
        36,
        37,
        38,
        39,
        40
      ],
      "skeleton": 5
    }
  ],
  "textures": [
    {
      "sampler": 0,
      "source": 0
    }
  ]
}
