{
  "accessors": [
    {
      "bufferView": 3,
      "componentType": 5126,
      "count": 992,
      "max": [
        0.9498046636581421,
        1.845682978630066,
        0.5693901777267456
      ],
      "min": [
        -0.9500095248222351,
        -0.002099999925121665,
        -0.3771641254425049
      ],
      "type": "VEC3"
    },
    {
      "bufferView": 3,
      "byteOffset": 11904,
      "componentType": 5126,
      "count": 992,
      "max": [
        0.9994871020317078,
        0.9999268651008606,
        0.9997745752334595
      ],
      "min": [
        -0.9992853403091431,
        -0.9997391104698181,
        -0.9999901056289673
      ],
      "type": "VEC3"
    },
    {
      "bufferView": 2,
      "componentType": 5126,
      "count": 992,
      "max": [
        0.8371400237083435,
        0.9031310081481934
      ],
      "min": [
        0.030285000801086426,
        0.025488000363111496
      ],
      "type": "VEC2"
    },
    {
      "bufferView": 1,
      "componentType": 5125,
      "count": 4638,
      "type": "SCALAR"
    },
    {
      "bufferView": 3,
      "byteOffset": 23808,
      "componentType": 5126,
      "count": 122,
      "max": [
        0.15351831912994385,
        1.6213699579238892,
        0.16050311923027039
      ],
      "min": [
        -0.15311631560325623,
        1.4631890058517456,
        0.012231205590069294
      ],
      "type": "VEC3"
    },
    {
      "bufferView": 3,
      "byteOffset": 25272,
      "componentType": 5126,
      "count": 122,
      "max": [
        0.9902295470237732,
        0.9596250057220459,
        0.9857651591300964
      ],
      "min": [
        -0.9902293682098389,
        -0.9596244692802429,
        -0.6738333702087402
      ],
      "type": "VEC3"
    },
    {
      "bufferView": 2,
      "byteOffset": 7936,
      "componentType": 5126,
      "count": 122,
      "max": [
        0.8740559816360474,
        0.8386380076408386
      ],
      "min": [
        0.19530099630355835,
        0.16136200726032257
      ],
      "type": "VEC2"
    },
    {
      "bufferView": 1,
      "byteOffset": 18552,
      "componentType": 5125,
      "count": 660,
      "type": "SCALAR"
    },
    {
      "bufferView": 5,
      "componentType": 5126,
      "count": 34,
      "max": [
        103.28992462158203,
        102.46768951416016,
        39.05055618286133,
        0.0,
        10.449273109436035,
        103.28992462158203,
        103.11078643798828,
        0.0,
        103.01392364501953,
        101.72415161132813,
        103.28992462158203,
        0.0,
        17.96786117553711,
        58.510475158691406,
        121.12247467041016,
        1.0
      ],
      "min": [
        -103.2895736694336,
        -102.59214782714844,
        -39.06444549560547,
        0.0,
        -10.45965576171875,
        -102.54801177978516,
        -103.27367401123047,
        0.0,
        -103.01909637451172,
        -19.46666145324707,
        0.05957340449094772,
        0.0,
        -19.080976486206055,
        -138.65745544433594,
        -17.58074951171875,
        1.0
      ],
      "type": "MAT4"
    },
    {
      "bufferView": 0,
      "componentType": 5123,
      "count": 992,
      "type": "VEC4"
    },
    {
      "bufferView": 4,
      "componentType": 5126,
      "count": 992,
      "max": [
        1.0,
        0.4922542870044708,
        0.30242472887039185,
        0.09343072772026062
      ],
      "min": [
        0.35764050483703613,
        0.0,
        0.0,
        0.0
      ],
      "type": "VEC4"
    },
    {
      "bufferView": 0,
      "byteOffset": 7936,
      "componentType": 5123,
      "count": 122,
      "type": "VEC4"
    },
    {
      "bufferView": 4,
      "byteOffset": 15872,
      "componentType": 5126,
      "count": 122,
      "max": [
        1.0,
        0.12885893881320953,
        0.0,
        0.0
      ],
      "min": [
        0.8711410760879517,
        0.0,
        0.0,
        0.0
      ],
      "type": "VEC4"
    },
    {
      "bufferView": 6,
      "componentType": 5126,
      "count": 29,
      "max": [
        0.9333333373069763
      ],
      "min": [
        0.0
      ],
      "type": "SCALAR"
    },
    {
      "bufferView": 7,
      "componentType": 5126,
      "count": 29,
      "max": [
        1.7763568394002505e-15,
        15.248565673828125,
        -0.7793569564819336
      ],
      "min": [
        -1.7763568394002505e-15,
        15.248565673828125,
        -0.7793569564819336
      ],
      "type": "VEC3"
    },
    {
      "bufferView": 6,
      "byteOffset": 116,
      "componentType": 5126,
      "count": 29,
      "max": [
        0.9333333373069763
      ],
      "min": [
        0.0
      ],
      "type": "SCALAR"
    },
    {
      "bufferView": 8,
      "componentType": 5126,
      "count": 29,
      "max": [
        -0.1444147527217865,
        0.010445572435855865,
        0.023946896195411682,
        0.9887388944625854
      ],
      "min": [
        -0.2131205052137375,
        -0.1110086739063263,
        -0.027067026123404503,
        0.9712098240852356
      ],
      "type": "VEC4"
    },
    {
      "bufferView": 6,
      "byteOffset": 232,
      "componentType": 5126,
      "count": 29,
      "max": [
        0.9333333373069763
      ],
      "min": [
        0.0
      ],
      "type": "SCALAR"
    },
    {
      "bufferView": 7,
      "byteOffset": 348,
      "componentType": 5126,
      "count": 29,
      "max": [
        3.552713678800501e-15,
        17.06990623474121,
        -3.3439206958973955e-08
      ],
      "min": [
        -5.3290705182007514e-15,
        17.06990623474121,
        -3.3439210511687634e-08
      ],
      "type": "VEC3"
    },
    {
      "bufferView": 6,
      "byteOffset": 348,
      "componentType": 5126,
      "count": 29,
      "max": [
        0.9333333373069763
      ],
      "min": [
        0.0
      ],
      "type": "SCALAR"
    },
    {
      "bufferView": 8,
      "byteOffset": 464,
      "componentType": 5126,
      "count": 29,
      "max": [
        0.034979674965143204,
        0.0029957222286611795,
        -0.005128699354827404,
        0.9999383091926575
      ],
      "min": [
        0.001616851193830371,
        -0.018736639991402626,
        -0.03064911812543869,
        0.9988859295845032
      ],
      "type": "VEC4"
    },
    {
      "bufferView": 6,
      "byteOffset": 464,
      "componentType": 5126,
      "count": 1,
      "max": [
        0.0
      ],
      "min": [
        0.0
      ],
      "type": "SCALAR"
    },
    {
      "bufferView": 8,
      "byteOffset": 928,
      "componentType": 5126,
      "count": 1,
      "max": [
        0.17807310819625854,
        -0.00018267447012476623,
        -0.08957114070653915,
        0.9799321293830872
      ],
      "min": [
        0.17807310819625854,
        -0.00018267447012476623,
        -0.08957114070653915,
        0.9799321293830872
      ],
      "type": "VEC4"
    },
    {
      "bufferView": 6,
      "byteOffset": 468,
      "componentType": 5126,
      "count": 1,
      "max": [
        0.0
      ],
      "min": [
        0.0
      ],
      "type": "SCALAR"
    },
    {
      "bufferView": 8,
      "byteOffset": 944,
      "componentType": 5126,
      "count": 1,
      "max": [
        0.13449682295322418,
        -0.016551164910197258,
        0.0461968258023262,
        0.9896981716156006
      ],
      "min": [
        0.13449682295322418,
        -0.016551164910197258,
        0.0461968258023262,
        0.9896981716156006
      ],
      "type": "VEC4"
    },
    {
      "bufferView": 6,
      "byteOffset": 472,
      "componentType": 5126,
      "count": 1,
      "max": [
        0.0
      ],
      "min": [
        0.0
      ],
      "type": "SCALAR"
    },
    {
      "bufferView": 8,
      "byteOffset": 960,
      "componentType": 5126,
      "count": 1,
      "max": [
        -0.07016526907682419,
        0.0021744379773736,
        0.009686697274446487,
        0.9974859952926636
      ],
      "min": [
        -0.07016526907682419,
        0.0021744379773736,
        0.009686697274446487,
        0.9974859952926636
      ],
      "type": "VEC4"
    },
    {
      "bufferView": 6,
      "byteOffset": 476,
      "componentType": 5126,
      "count": 29,
      "max": [
        0.9333333373069763
      ],
      "min": [
        0.0
      ],
      "type": "SCALAR"
    },
    {
      "bufferView": 7,
      "byteOffset": 696,
      "componentType": 5126,
      "count": 29,
      "max": [
        7.105427357601002e-15,
        21.77655601501465,
        2.842170943040401e-14
      ],
      "min": [
        -1.4210854715202004e-14,
        21.77655601501465,
        0.0
      ],
      "type": "VEC3"
    },
    {
      "bufferView": 6,
      "byteOffset": 592,
      "componentType": 5126,
      "count": 29,
      "max": [
        0.9333333373069763
      ],
      "min": [
        0.0
      ],
      "type": "SCALAR"
    },
    {
      "bufferView": 8,
      "byteOffset": 976,
      "componentType": 5126,
      "count": 29,
      "max": [
        0.1562911570072174,
        0.1586085706949234,
        0.12994791567325592,
        0.9954105615615845
      ],
      "min": [
        0.09013574570417404,
        -0.08972617983818054,
        -0.04827691987156868,
        0.9709124565124512
      ],
      "type": "VEC4"
    },
    {
      "bufferView": 6,
      "byteOffset": 708,
      "componentType": 5126,
      "count": 29,
      "max": [
        0.9333333373069763
      ],
      "min": [
        0.0
      ],
      "type": "SCALAR"
    },
    {
      "bufferView": 7,
      "byteOffset": 1044,
      "componentType": 5126,
      "count": 29,
      "max": [
        7.105427357601002e-15,
        26.569875717163086,
        0.0
      ],
      "min": [
        -7.105427357601002e-15,
        26.569875717163086,
        -4.263256414560601e-14
      ],
      "type": "VEC3"
    },
    {
      "bufferView": 6,
      "byteOffset": 824,
      "componentType": 5126,
      "count": 29,
      "max": [
        0.9333333373069763
      ],
      "min": [
        0.0
      ],
      "type": "SCALAR"
    },
    {
      "bufferView": 8,
      "byteOffset": 1440,
      "componentType": 5126,
      "count": 29,
      "max": [
        0.012177889235317707,
        -0.06657461822032928,
        0.5977346301078796,
        0.9363117814064026
      ],
      "min": [
        0.007023455109447241,
        -0.11306934803724289,
        0.3447299897670746,
        0.7935870289802551
      ],
      "type": "VEC4"
    },
    {
      "bufferView": 6,
      "byteOffset": 940,
      "componentType": 5126,
      "count": 29,
      "max": [
        0.9333333373069763
      ],
      "min": [
        0.0
      ],
      "type": "SCALAR"
    },
    {
      "bufferView": 7,
      "byteOffset": 1392,
      "componentType": 5126,
      "count": 29,
      "max": [
        2.220446049250313e-15,
        14.310688018798828,
        2.842170943040401e-14
      ],
      "min": [
        -4.440892098500626e-16,
        14.310688018798828,
        0.0
      ],
      "type": "VEC3"
    },
    {
      "bufferView": 6,
      "byteOffset": 1056,
      "componentType": 5126,
      "count": 29,
      "max": [
        0.9333333373069763
      ],
      "min": [
        0.0
      ],
      "type": "SCALAR"
    },
    {
      "bufferView": 8,
      "byteOffset": 1904,
      "componentType": 5126,
      "count": 29,
      "max": [
        0.2523456811904907,
        -0.060040321201086044,
        0.3830949366092682,
        0.9657701253890991
      ],
      "min": [
        0.15950225293636322,
        -0.20813186466693878,
        0.0861923098564148,
        0.8831561803817749
      ],
      "type": "VEC4"
    },
    {
      "bufferView": 6,
      "byteOffset": 1172,
      "componentType": 5126,
      "count": 29,
      "max": [
        0.9333333373069763
      ],
      "min": [
        0.0
      ],
      "type": "SCALAR"
    },
    {
      "bufferView": 8,
      "byteOffset": 2368,
      "componentType": 5126,
      "count": 29,
      "max": [
        -0.5370010733604431,
        -0.39555126428604126,
        0.6678884625434875,
        -0.3224068582057953
      ],
      "min": [
        -0.5418053269386292,
        -0.41936710476875305,
        0.6356160640716553,
        -0.36243727803230286
      ],
      "type": "VEC4"
    },
    {
      "bufferView": 6,
      "byteOffset": 1288,
      "componentType": 5126,
      "count": 1,
      "max": [
        0.0
      ],
      "min": [
        0.0
      ],
      "type": "SCALAR"
    },
    {
      "bufferView": 8,
      "byteOffset": 2832,
      "componentType": 5126,
      "count": 1,
      "max": [
        0.16187675297260284,
        -0.015638040378689766,
        0.04026998206973076,
        0.9858649373054504
      ],
      "min": [
        0.16187675297260284,
        -0.015638040378689766,
        0.04026998206973076,
        0.9858649373054504
      ],
      "type": "VEC4"
    },
    {
      "bufferView": 6,
      "byteOffset": 1292,
      "componentType": 5126,
      "count": 1,
      "max": [
        0.0
      ],
      "min": [
        0.0
      ],
      "type": "SCALAR"
    },
    {
      "bufferView": 8,
      "byteOffset": 2848,
      "componentType": 5126,
      "count": 1,
      "max": [
        0.12964674830436707,
        -0.006482237484306097,
        0.04260948300361633,
        0.9906231164932251
      ],
      "min": [
        0.12964674830436707,
        -0.006482237484306097,
        0.04260948300361633,
        0.9906231164932251
      ],
      "type": "VEC4"
    },
    {
      "bufferView": 6,
      "byteOffset": 1296,
      "componentType": 5126,
      "count": 1,
      "max": [
        0.0
      ],
      "min": [
        0.0
      ],
      "type": "SCALAR"
    },
    {
      "bufferView": 8,
      "byteOffset": 2864,
      "componentType": 5126,
      "count": 1,
      "max": [
        -0.033324915915727615,
        -0.0027422793209552765,
        -0.004860390443354845,
        0.9994289875030518
      ],
      "min": [
        -0.033324915915727615,
        -0.0027422793209552765,
        -0.004860390443354845,
        0.9994289875030518
      ],
      "type": "VEC4"
    },
    {
      "bufferView": 6,
      "byteOffset": 1300,
      "componentType": 5126,
      "count": 29,
      "max": [
        0.9333333373069763
      ],
      "min": [
        0.0
      ],
      "type": "SCALAR"
    },
    {
      "bufferView": 7,
      "byteOffset": 1740,
      "componentType": 5126,
      "count": 29,
      "max": [
        1.4210854715202004e-14,
        21.832550048828125,
        1.4210854715202004e-14
      ],
      "min": [
        -2.842170943040401e-14,
        21.832550048828125,
        -2.1316282072803006e-14
      ],
      "type": "VEC3"
    },
    {
      "bufferView": 6,
      "byteOffset": 1416,
      "componentType": 5126,
      "count": 29,
      "max": [
        0.9333333373069763
      ],
      "min": [
        0.0
      ],
      "type": "SCALAR"
    },
    {
      "bufferView": 8,
      "byteOffset": 2880,
      "componentType": 5126,
      "count": 29,
      "max": [
        0.07385671883821487,
        0.14886653423309326,
        0.03389517962932587,
        0.9993481636047363
      ],
      "min": [
        -0.040910109877586365,
        -0.3925897777080536,
        -0.09576423466205597,
        0.9139814376831055
      ],
      "type": "VEC4"
    },
    {
      "bufferView": 6,
      "byteOffset": 1532,
      "componentType": 5126,
      "count": 29,
      "max": [
        0.9333333373069763
      ],
      "min": [
        0.0
      ],
      "type": "SCALAR"
    },
    {
      "bufferView": 7,
      "byteOffset": 2088,
      "componentType": 5126,
      "count": 29,
      "max": [
        1.4210854715202004e-14,
        26.526411056518555,
        4.263256414560601e-14
      ],
      "min": [
        -7.105427357601002e-15,
        26.526411056518555,
        0.0
      ],
      "type": "VEC3"
    },
    {
      "bufferView": 6,
      "byteOffset": 1648,
      "componentType": 5126,
      "count": 29,
      "max": [
        0.9333333373069763
      ],
      "min": [
        0.0
      ],
      "type": "SCALAR"
    },
    {
      "bufferView": 8,
      "byteOffset": 3344,
      "componentType": 5126,
      "count": 29,
      "max": [
        0.015327614732086658,
        0.11482278257608414,
        -0.4404071271419525,
        0.8937795162200928
      ],
      "min": [
        0.011109361425042152,
        0.08412119746208191,
        -0.6076152324676514,
        0.7857382297515869
      ],
      "type": "VEC4"
    },
    {
      "bufferView": 6,
      "byteOffset": 1764,
      "componentType": 5126,
      "count": 29,
      "max": [
        0.9333333373069763
      ],
      "min": [
        0.0
      ],
      "type": "SCALAR"
    },
    {
      "bufferView": 7,
      "byteOffset": 2436,
      "componentType": 5126,
      "count": 29,
      "max": [
        3.552713678800501e-15,
        14.310688972473145,
        1.4210854715202004e-14
      ],
      "min": [
        -5.3290705182007514e-15,
        14.310688972473145,
        -1.4210854715202004e-14
      ],
      "type": "VEC3"
    },
    {
      "bufferView": 6,
      "byteOffset": 1880,
      "componentType": 5126,
      "count": 29,
      "max": [
        0.9333333373069763
      ],
      "min": [
        0.0
      ],
      "type": "SCALAR"
    },
    {
      "bufferView": 8,
      "byteOffset": 3808,
      "componentType": 5126,
      "count": 29,
      "max": [
        0.23751214146614075,
        0.22408342361450195,
        0.04416517913341522,
        0.9645517468452454
      ],
      "min": [
        0.19052831828594208,
        0.1436094492673874,
        -0.12721052765846252,
        0.9445456862449646
      ],
      "type": "VEC4"
    },
    {
      "bufferView": 6,
      "byteOffset": 1996,
      "componentType": 5126,
      "count": 29,
      "max": [
        0.9333333373069763
      ],
      "min": [
        0.0
      ],
      "type": "SCALAR"
    },
    {
      "bufferView": 8,
      "byteOffset": 4272,
      "componentType": 5126,
      "count": 29,
      "max": [
        0.5871700644493103,
        -0.37105023860931396,
        0.6443521976470947,
        0.3712892234325409
      ],
      "min": [
        0.5484960079193115,
        -0.41726943850517273,
        0.6207115650177002,
        0.32528460025787354
      ],
      "type": "VEC4"
    },
    {
      "bufferView": 6,
      "byteOffset": 2112,
      "componentType": 5126,
      "count": 29,
      "max": [
        0.9333333373069763
      ],
      "min": [
        0.0
      ],
      "type": "SCALAR"
    },
    {
      "bufferView": 7,
      "byteOffset": 2784,
      "componentType": 5126,
      "count": 29,
      "max": [
        1.7763568394002505e-15,
        15.173255920410156,
        8.881784197001252e-16
      ],
      "min": [
        -1.7763568394002505e-15,
        15.173255920410156,
        -1.7763568394002505e-15
      ],
      "type": "VEC3"
    },
    {
      "bufferView": 6,
      "byteOffset": 2228,
      "componentType": 5126,
      "count": 29,
      "max": [
        0.9333333373069763
      ],
      "min": [
        0.0
      ],
      "type": "SCALAR"
    },
    {
      "bufferView": 8,
      "byteOffset": 4736,
      "componentType": 5126,
      "count": 29,
      "max": [
        0.024574218317866325,
        0.01412168424576521,
        0.031873058527708054,
        0.9999634027481079
      ],
      "min": [
        -0.0006453790701925755,
        -0.007378822658210993,
        -0.010451599024236202,
        0.9991678595542908
      ],
      "type": "VEC4"
    },
    {
      "bufferView": 6,
      "byteOffset": 2344,
      "componentType": 5126,
      "count": 28,
      "max": [
        0.9333333373069763
      ],
      "min": [
        0.0
      ],
      "type": "SCALAR"
    },
    {
      "bufferView": 7,
      "byteOffset": 3132,
      "componentType": 5126,
      "count": 28,
      "max": [
        1.3322676295501878e-15,
        13.276590347290039,
        0.0
      ],
      "min": [
        -1.7763568394002505e-15,
        13.276590347290039,
        -2.6645352591003757e-15
      ],
      "type": "VEC3"
    },
    {
      "bufferView": 6,
      "byteOffset": 2456,
      "componentType": 5126,
      "count": 29,
      "max": [
        0.9333333373069763
      ],
      "min": [
        0.0
      ],
      "type": "SCALAR"
    },
    {
      "bufferView": 8,
      "byteOffset": 5200,
      "componentType": 5126,
      "count": 29,
      "max": [
        0.02432367391884327,
        0.014372876845300198,
        0.03189372271299362,
        0.999963104724884
      ],
      "min": [
        -0.0007915634196251631,
        -0.008215956389904022,
        -0.010375646874308586,
        0.9991678595542908
      ],
      "type": "VEC4"
    },
    {
      "bufferView": 6,
      "byteOffset": 2572,
      "componentType": 5126,
      "count": 26,
      "max": [
        0.9333333373069763
      ],
      "min": [
        0.0
      ],
      "type": "SCALAR"
    },
    {
      "bufferView": 7,
      "byteOffset": 3468,
      "componentType": 5126,
      "count": 26,
      "max": [
        8.881784197001252e-16,
        11.354087829589844,
        -0.7666336297988892
      ],
      "min": [
        -1.7763568394002505e-15,
        11.354087829589844,
        -0.7666336297988892
      ],
      "type": "VEC3"
    },
    {
      "bufferView": 6,
      "byteOffset": 2676,
      "componentType": 5126,
      "count": 29,
      "max": [
        0.9333333373069763
      ],
      "min": [
        0.0
      ],
      "type": "SCALAR"
    },
    {
      "bufferView": 8,
      "byteOffset": 5664,
      "componentType": 5126,
      "count": 29,
      "max": [
        0.07103447616100311,
        0.07776300609111786,
        0.033267416059970856,
        0.9991092681884766
      ],
      "min": [
        0.030227236449718475,
        -0.02570600062608719,
        -0.03456398844718933,
        0.9961012601852417
      ],
      "type": "VEC4"
    },
    {
      "bufferView": 6,
      "byteOffset": 2792,
      "componentType": 5126,
      "count": 29,
      "max": [
        0.9333333373069763
      ],
      "min": [
        0.0
      ],
      "type": "SCALAR"
    },
    {
      "bufferView": 7,
      "byteOffset": 3780,
      "componentType": 5126,
      "count": 29,
      "max": [
        7.105427357601002e-15,
        48.40227127075195,
        3.552713678800501e-15
      ],
      "min": [
        -5.3290705182007514e-15,
        48.40227127075195,
        -1.0658141036401503e-14
      ],
      "type": "VEC3"
    },
    {
      "bufferView": 6,
      "byteOffset": 2908,
      "componentType": 5126,
      "count": 29,
      "max": [
        0.9333333373069763
      ],
      "min": [
        0.0
      ],
      "type": "SCALAR"
    },
    {
      "bufferView": 8,
      "byteOffset": 6128,
      "componentType": 5126,
      "count": 29,
      "max": [
        0.2850666046142578,
        0.030725646764039993,
        0.06822565943002701,
        0.9824646711349487
      ],
      "min": [
        0.17474718391895294,
        -0.03563295304775238,
        0.057472676038742065,
        0.9564075469970703
      ],
      "type": "VEC4"
    },
    {
      "bufferView": 6,
      "byteOffset": 3024,
      "componentType": 5126,
      "count": 29,
      "max": [
        0.9333333373069763
      ],
      "min": [
        0.0
      ],
      "type": "SCALAR"
    },
    {
      "bufferView": 7,
      "byteOffset": 4128,
      "componentType": 5126,
      "count": 29,
      "max": [
        7.105427357601002e-15,
        15.753024101257324,
        7.105427357601002e-15
      ],
      "min": [
        -3.552713678800501e-15,
        15.753024101257324,
        -3.552713678800501e-15
      ],
      "type": "VEC3"
    },
    {
      "bufferView": 6,
      "byteOffset": 3140,
      "componentType": 5126,
      "count": 29,
      "max": [
        0.9333333373069763
      ],
      "min": [
        0.0
      ],
      "type": "SCALAR"
    },
    {
      "bufferView": 8,
      "byteOffset": 6592,
      "componentType": 5126,
      "count": 29,
      "max": [
        0.9378601312637329,
        0.052651528269052505,
        0.11015664786100388,
        0.7060953378677368
      ],
      "min": [
        0.7044563889503479,
        -0.12392572313547134,
        -0.08009177446365356,
        0.3166261315345764
      ],
      "type": "VEC4"
    },
    {
      "bufferView": 6,
      "byteOffset": 3256,
      "componentType": 5126,
      "count": 29,
      "max": [
        0.9333333373069763
      ],
      "min": [
        0.0
      ],
      "type": "SCALAR"
    },
    {
      "bufferView": 7,
      "byteOffset": 4476,
      "componentType": 5126,
      "count": 29,
      "max": [
        7.105427357601002e-15,
        23.57819938659668,
        7.105427357601002e-15
      ],
      "min": [
        -7.105427357601002e-15,
        23.57819938659668,
        -7.105427357601002e-15
      ],
      "type": "VEC3"
    },
    {
      "bufferView": 6,
      "byteOffset": 3372,
      "componentType": 5126,
      "count": 29,
      "max": [
        0.9333333373069763
      ],
      "min": [
        0.0
      ],
      "type": "SCALAR"
    },
    {
      "bufferView": 8,
      "byteOffset": 7056,
      "componentType": 5126,
      "count": 29,
      "max": [
        -0.331022173166275,
        0.10247201472520828,
        0.01693663001060486,
        0.9405688047409058
      ],
      "min": [
        -0.8349831700325012,
        -0.07360588014125824,
        -0.15952709317207336,
        0.5467116832733154
      ],
      "type": "VEC4"
    },
    {
      "bufferView": 6,
      "byteOffset": 3488,
      "componentType": 5126,
      "count": 29,
      "max": [
        0.9333333373069763
      ],
      "min": [
        0.0
      ],
      "type": "SCALAR"
    },
    {
      "bufferView": 8,
      "byteOffset": 7520,
      "componentType": 5126,
      "count": 29,
      "max": [
        0.19746774435043335,
        0.44693583250045776,
        0.9843762516975403,
        -0.11654344201087952
      ],
      "min": [
        0.12398101389408112,
        -0.04783432185649872,
        0.8685619831085205,
        -0.22654034197330475
      ],
      "type": "VEC4"
    },
    {
      "bufferView": 6,
      "byteOffset": 3604,
      "componentType": 5126,
      "count": 29,
      "max": [
        0.9333333373069763
      ],
      "min": [
        0.0
      ],
      "type": "SCALAR"
    },
    {
      "bufferView": 7,
      "byteOffset": 4824,
      "componentType": 5126,
      "count": 29,
      "max": [
        1.0658141036401503e-14,
        48.88724136352539,
        1.0658141036401503e-14
      ],
      "min": [
        -7.105427357601002e-15,
        48.88724136352539,
        -3.552713678800501e-15
      ],
      "type": "VEC3"
    },
    {
      "bufferView": 6,
      "byteOffset": 3720,
      "componentType": 5126,
      "count": 29,
      "max": [
        0.9333333373069763
      ],
      "min": [
        0.0
      ],
      "type": "SCALAR"
    },
    {
      "bufferView": 8,
      "byteOffset": 7984,
      "componentType": 5126,
      "count": 29,
      "max": [
        0.36339685320854187,
        0.08853626996278763,
        -0.04944971203804016,
        0.9828924536705017
      ],
      "min": [
        0.1728113740682602,
        -0.011154083535075188,
        -0.06315305829048157,
        0.9290884733200073
      ],
      "type": "VEC4"
    },
    {
      "bufferView": 6,
      "byteOffset": 3836,
      "componentType": 5126,
      "count": 29,
      "max": [
        0.9333333373069763
      ],
      "min": [
        0.0
      ],
      "type": "SCALAR"
    },
    {
      "bufferView": 7,
      "byteOffset": 5172,
      "componentType": 5126,
      "count": 29,
      "max": [
        7.105427357601002e-15,
        15.770050048828125,
        7.105427357601002e-15
      ],
      "min": [
        -3.552713678800501e-15,
        15.770050048828125,
        -7.105427357601002e-15
      ],
      "type": "VEC3"
    },
    {
      "bufferView": 6,
      "byteOffset": 3952,
      "componentType": 5126,
      "count": 29,
      "max": [
        0.9333333373069763
      ],
      "min": [
        0.0
      ],
      "type": "SCALAR"
    },
    {
      "bufferView": 8,
      "byteOffset": 8448,
      "componentType": 5126,
      "count": 29,
      "max": [
        0.9846775531768799,
        0.1747542917728424,
        0.12067162990570068,
        0.7187520265579224
      ],
      "min": [
        0.6936394572257996,
        0.023631034418940544,
        -0.05169464647769928,
        0.07863835990428925
      ],
      "type": "VEC4"
    },
    {
      "bufferView": 6,
      "byteOffset": 4068,
      "componentType": 5126,
      "count": 29,
      "max": [
        0.9333333373069763
      ],
      "min": [
        0.0
      ],
      "type": "SCALAR"
    },
    {
      "bufferView": 7,
      "byteOffset": 5520,
      "componentType": 5126,
      "count": 29,
      "max": [
        7.105427357601002e-15,
        23.5898494720459,
        7.105427357601002e-15
      ],
      "min": [
        0.0,
        23.5898494720459,
        -7.105427357601002e-15
      ],
      "type": "VEC3"
    },
    {
      "bufferView": 6,
      "byteOffset": 4184,
      "componentType": 5126,
      "count": 29,
      "max": [
        0.9333333373069763
      ],
      "min": [
        0.0
      ],
      "type": "SCALAR"
    },
    {
      "bufferView": 8,
      "byteOffset": 8912,
      "componentType": 5126,
      "count": 29,
      "max": [
        0.9593992233276367,
        0.09380875527858734,
        0.11869140714406967,
        0.9419363737106323
      ],
      "min": [
        -0.8465393781661987,
        -0.06766436994075775,
        -0.1242959126830101,
        -0.4701523780822754
      ],
      "type": "VEC4"
    },
    {
      "bufferView": 6,
      "byteOffset": 4300,
      "componentType": 5126,
      "count": 29,
      "max": [
        0.9333333373069763
      ],
      "min": [
        0.0
      ],
      "type": "SCALAR"
    },
    {
      "bufferView": 8,
      "byteOffset": 9376,
      "componentType": 5126,
      "count": 29,
      "max": [
        -0.06978345662355423,
        0.37433499097824097,
        0.9870060682296753,
        0.28820306062698364
      ],
      "min": [
        -0.21550576388835907,
        -0.1707572042942047,
        0.9017945528030396,
        0.08881581574678421
      ],
      "type": "VEC4"
    },
    {
      "bufferView": 6,
      "byteOffset": 4416,
      "componentType": 5126,
      "count": 29,
      "max": [
        0.9333333373069763
      ],
      "min": [
        0.0
      ],
      "type": "SCALAR"
    },
    {
      "bufferView": 7,
      "byteOffset": 5868,
      "componentType": 5126,
      "count": 29,
      "max": [
        3.128272771835327,
        65.0262222290039,
        2.5322139263153076
      ],
      "min": [
        -0.5922380685806274,
        58.19384765625,
        0.14357586205005646
      ],
      "type": "VEC3"
    },
    {
      "bufferView": 6,
      "byteOffset": 4532,
      "componentType": 5126,
      "count": 29,
      "max": [
        0.9333333373069763
      ],
      "min": [
        0.0
      ],
      "type": "SCALAR"
    },
    {
      "bufferView": 8,
      "byteOffset": 9840,
      "componentType": 5126,
      "count": 29,
      "max": [
        -0.0031671563629060984,
        0.1077381893992424,
        0.04834349453449249,
        0.9997147917747498
      ],
      "min": [
        -0.049083080142736435,
        -0.06708312034606934,
        -0.042991284281015396,
        0.9929196238517761
      ],
      "type": "VEC4"
    }
  ],
  "animations": [
    {
      "channels": [
        {
          "sampler": 0,
          "target": {
            "node": 14,
            "path": "translation"
          }
        },
        {
          "sampler": 1,
          "target": {
            "node": 14,
            "path": "rotation"
          }
        },
        {
          "sampler": 2,
          "target": {
            "node": 13,
            "path": "translation"
          }
        },
        {
          "sampler": 3,
          "target": {
            "node": 13,
            "path": "rotation"
          }
        },
        {
          "sampler": 4,
          "target": {
            "node": 22,
            "path": "rotation"
          }
        },
        {
          "sampler": 5,
          "target": {
            "node": 21,
            "path": "rotation"
          }
        },
        {
          "sampler": 6,
          "target": {
            "node": 20,
            "path": "rotation"
          }
        },
        {
          "sampler": 7,
          "target": {
            "node": 19,
            "path": "translation"
          }
        },
        {
          "sampler": 8,
          "target": {
            "node": 19,
            "path": "rotation"
          }
        },
        {
          "sampler": 9,
          "target": {
            "node": 18,
            "path": "translation"
          }
        },
        {
          "sampler": 10,
          "target": {
            "node": 18,
            "path": "rotation"
          }
        },
        {
          "sampler": 11,
          "target": {
            "node": 17,
            "path": "translation"
          }
        },
        {
          "sampler": 12,
          "target": {
            "node": 17,
            "path": "rotation"
          }
        },
        {
          "sampler": 13,
          "target": {
            "node": 16,
            "path": "rotation"
          }
        },
        {
          "sampler": 14,
          "target": {
            "node": 30,
            "path": "rotation"
          }
        },
        {
          "sampler": 15,
          "target": {
            "node": 29,
            "path": "rotation"
          }
        },
        {
          "sampler": 16,
          "target": {
            "node": 28,
            "path": "rotation"
          }
        },
        {
          "sampler": 17,
          "target": {
            "node": 27,
            "path": "translation"
          }
        },
        {
          "sampler": 18,
          "target": {
            "node": 27,
            "path": "rotation"
          }
        },
        {
          "sampler": 19,
          "target": {
            "node": 26,
            "path": "translation"
          }
        },
        {
          "sampler": 20,
          "target": {
            "node": 26,
            "path": "rotation"
          }
        },
        {
          "sampler": 21,
          "target": {
            "node": 25,
            "path": "translation"
          }
        },
        {
          "sampler": 22,
          "target": {
            "node": 25,
            "path": "rotation"
          }
        },
        {
          "sampler": 23,
          "target": {
            "node": 24,
            "path": "rotation"
          }
        },
        {
          "sampler": 24,
          "target": {
            "node": 12,
            "path": "translation"
          }
        },
        {
          "sampler": 25,
          "target": {
            "node": 12,
            "path": "rotation"
          }
        },
        {
          "sampler": 26,
          "target": {
            "node": 11,
            "path": "translation"
          }
        },
        {
          "sampler": 27,
          "target": {
            "node": 11,
            "path": "rotation"
          }
        },
        {
          "sampler": 28,
          "target": {
            "node": 10,
            "path": "translation"
          }
        },
        {
          "sampler": 29,
          "target": {
            "node": 10,
            "path": "rotation"
          }
        },
        {
          "sampler": 30,
          "target": {
            "node": 35,
            "path": "translation"
          }
        },
        {
          "sampler": 31,
          "target": {
            "node": 35,
            "path": "rotation"
          }
        },
        {
          "sampler": 32,
          "target": {
            "node": 34,
            "path": "translation"
          }
        },
        {
          "sampler": 33,
          "target": {
            "node": 34,
            "path": "rotation"
          }
        },
        {
          "sampler": 34,
          "target": {
            "node": 33,
            "path": "translation"
          }
        },
        {
          "sampler": 35,
          "target": {
            "node": 33,
            "path": "rotation"
          }
        },
        {
          "sampler": 36,
          "target": {
            "node": 32,
            "path": "rotation"
          }
        },
        {
          "sampler": 37,
          "target": {
            "node": 40,
            "path": "translation"
          }
        },
        {
          "sampler": 38,
          "target": {
            "node": 40,
            "path": "rotation"
          }
        },
        {
          "sampler": 39,
          "target": {
            "node": 39,
            "path": "translation"
          }
        },
        {
          "sampler": 40,
          "target": {
            "node": 39,
            "path": "rotation"
          }
        },
        {
          "sampler": 41,
          "target": {
            "node": 38,
            "path": "translation"
          }
        },
        {
          "sampler": 42,
          "target": {
            "node": 38,
            "path": "rotation"
          }
        },
        {
          "sampler": 43,
          "target": {
            "node": 37,
            "path": "rotation"
          }
        },
        {
          "sampler": 44,
          "target": {
            "node": 9,
            "path": "translation"
          }
        },
        {
          "sampler": 45,
          "target": {
            "node": 9,
            "path": "rotation"
          }
        }
      ],
      "name": "mixamo.com",
      "samplers": [
        {
          "input": 13,
          "interpolation": "LINEAR",
          "output": 14
        },
        {
          "input": 15,
          "interpolation": "LINEAR",
          "output": 16
        },
        {
          "input": 17,
          "interpolation": "LINEAR",
          "output": 18
        },
        {
          "input": 19,
          "interpolation": "LINEAR",
          "output": 20
        },
        {
          "input": 21,
          "interpolation": "LINEAR",
          "output": 22
        },
        {
          "input": 23,
          "interpolation": "LINEAR",
          "output": 24
        },
        {
          "input": 25,
          "interpolation": "LINEAR",
          "output": 26
        },
        {
          "input": 27,
          "interpolation": "LINEAR",
          "output": 28
        },
        {
          "input": 29,
          "interpolation": "LINEAR",
          "output": 30
        },
        {
          "input": 31,
          "interpolation": "LINEAR",
          "output": 32
        },
        {
          "input": 33,
          "interpolation": "LINEAR",
          "output": 34
        },
        {
          "input": 35,
          "interpolation": "LINEAR",
          "output": 36
        },
        {
          "input": 37,
          "interpolation": "LINEAR",
          "output": 38
        },
        {
          "input": 39,
          "interpolation": "LINEAR",
          "output": 40
        },
        {
          "input": 41,
          "interpolation": "LINEAR",
          "output": 42
        },
        {
          "input": 43,
          "interpolation": "LINEAR",
          "output": 44
        },
        {
          "input": 45,
          "interpolation": "LINEAR",
          "output": 46
        },
        {
          "input": 47,
          "interpolation": "LINEAR",
          "output": 48
        },
        {
          "input": 49,
          "interpolation": "LINEAR",
          "output": 50
        },
        {
          "input": 51,
          "interpolation": "LINEAR",
          "output": 52
        },
        {
          "input": 53,
          "interpolation": "LINEAR",
          "output": 54
        },
        {
          "input": 55,
          "interpolation": "LINEAR",
          "output": 56
        },
        {
          "input": 57,
          "interpolation": "LINEAR",
          "output": 58
        },
        {
          "input": 59,
          "interpolation": "LINEAR",
          "output": 60
        },
        {
          "input": 61,
          "interpolation": "LINEAR",
          "output": 62
        },
        {
          "input": 63,
          "interpolation": "LINEAR",
          "output": 64
        },
        {
          "input": 65,
          "interpolation": "LINEAR",
          "output": 66
        },
        {
          "input": 67,
          "interpolation": "LINEAR",
          "output": 68
        },
        {
          "input": 69,
          "interpolation": "LINEAR",
          "output": 70
        },
        {
          "input": 71,
          "interpolation": "LINEAR",
          "output": 72
        },
        {
          "input": 73,
          "interpolation": "LINEAR",
          "output": 74
        },
        {
          "input": 75,
          "interpolation": "LINEAR",
          "output": 76
        },
        {
          "input": 77,
          "interpolation": "LINEAR",
          "output": 78
        },
        {
          "input": 79,
          "interpolation": "LINEAR",
          "output": 80
        },
        {
          "input": 81,
          "interpolation": "LINEAR",
          "output": 82
        },
        {
          "input": 83,
          "interpolation": "LINEAR",
          "output": 84
        },
        {
          "input": 85,
          "interpolation": "LINEAR",
          "output": 86
        },
        {
          "input": 87,
          "interpolation": "LINEAR",
          "output": 88
        },
        {
          "input": 89,
          "interpolation": "LINEAR",
          "output": 90
        },
        {
          "input": 91,
          "interpolation": "LINEAR",
          "output": 92
        },
        {
          "input": 93,
          "interpolation": "LINEAR",
          "output": 94
        },
        {
          "input": 95,
          "interpolation": "LINEAR",
          "output": 96
        },
        {
          "input": 97,
          "interpolation": "LINEAR",
          "output": 98
        },
        {
          "input": 99,
          "interpolation": "LINEAR",
          "output": 100
        },
        {
          "input": 101,
          "interpolation": "LINEAR",
          "output": 102
        },
        {
          "input": 103,
          "interpolation": "LINEAR",
          "output": 104
        }
      ]
    }
  ],
  "asset": {
    "extras": {
      "author": "vicente betoret ferrero (https://sketchfab.com/deathcow)",
      "license": "CC-BY-4.0 (http://creativecommons.org/licenses/by/4.0/)",
      "source": "https://sketchfab.com/3d-models/krusty-walk-simpsons-3c8f1a3934974e67ac637db75c5a9e76",
      "title": "Krusty Walk (simpsons)"
    },
    "generator": "Sketchfab-12.82.3",
    "version": "2.0"
  },
  "bufferViews": [
    {
      "buffer": 0,
      "byteLength": 8912,
      "byteStride": 8,
      "name": "shortBufferViews",
      "target": 34962
    },
    {
      "buffer": 0,
      "byteLength": 21192,
      "byteOffset": 8912,
      "name": "floatBufferViews",
      "target": 34963
    },
    {
      "buffer": 0,
      "byteLength": 8912,
      "byteOffset": 30104,
      "byteStride": 8,
      "name": "floatBufferViews",
      "target": 34962
    },
    {
      "buffer": 0,
      "byteLength": 26736,
      "byteOffset": 39016,
      "byteStride": 12,
      "name": "floatBufferViews",
      "target": 34962
    },
    {
      "buffer": 0,
      "byteLength": 17824,
      "byteOffset": 65752,
      "byteStride": 16,
      "name": "floatBufferViews",
      "target": 34962
    },
    {
      "buffer": 0,
      "byteLength": 2176,
      "byteOffset": 83576,
      "name": "floatBufferViews"
    },
    {
      "buffer": 0,
      "byteLength": 4648,
      "byteOffset": 85752,
      "name": "floatBufferViews"
    },
    {
      "buffer": 0,
      "byteLength": 6216,
      "byteOffset": 90400,
      "byteStride": 12,
      "name": "floatBufferViews"
    },
    {
      "buffer": 0,
      "byteLength": 10304,
      "byteOffset": 96616,
      "byteStride": 16,
      "name": "floatBufferViews"
    }
  ],
  "buffers": [
    {
      "byteLength": 106920,
      "uri": "scene.bin"
    }
  ],
  "images": [
    {
      "uri": "textures/char_swatches_lit_m_baseColor.png"
    },
    {
      "uri": "textures/Material_25_baseColor.png"
    }
  ],
  "materials": [
    {
      "doubleSided": true,
      "name": "char_swatches_lit_m",
      "pbrMetallicRoughness": {
        "baseColorTexture": {
          "index": 0
        },
        "metallicFactor": 0.0,
        "roughnessFactor": 0.8486386452543314
      }
    },
    {
      "doubleSided": true,
      "name": "Material_25",
      "pbrMetallicRoughness": {
        "baseColorTexture": {
          "index": 1
        },
        "metallicFactor": 0.0,
        "roughnessFactor": 0.8929713596497552
      }
    }
  ],
  "meshes": [
    {
      "name": "krusty_char_swatches_lit_m_0",
      "primitives": [
        {
          "attributes": {
            "JOINTS_0": 9,
            "NORMAL": 1,
            "POSITION": 0,
            "TEXCOORD_0": 2,
            "WEIGHTS_0": 10
          },
          "indices": 3,
          "material": 0,
          "mode": 4
        }
      ]
    },
    {
      "name": "krusty_Material #25_0",
      "primitives": [
        {
          "attributes": {
            "JOINTS_0": 11,
            "NORMAL": 5,
            "POSITION": 4,
            "TEXCOORD_0": 6,
            "WEIGHTS_0": 12
          },
          "indices": 7,
          "material": 1,
          "mode": 4
        }
      ]
    }
  ],
  "nodes": [
    {
      "children": [
        1
      ],
      "matrix": [
        0.5330106616020203,
        0.0,
        0.0,
        0.0,
        0.0,
        1.1835214177625014e-16,
        -0.5330106616020203,
        0.0,
        0.0,
        0.5330106616020203,
        1.1835214177625014e-16,
        0.0,
        0.0,
        0.0,
        0.0,
        1.0
      ],
      "name": "Sketchfab_model"
    },
    {
      "children": [
        2
      ],
      "matrix": [
        0.02539999969303608,
        0.0,
        0.0,
        0.0,
        0.0,
        0.0,
        0.02539999969303608,
        0.0,
        0.0,
        -0.02539999969303608,
        0.0,
        0.0,
        0.0,
        0.0,
        0.0,
        1.0
      ],
      "name": "Scary Clown Walk.fbx"
    },
    {
      "children": [
        3
      ],
      "name": "Object_2"
    },
    {
      "children": [
        4
      ],
      "name": "RootNode"
    },
    {
      "children": [
        5,
        7,
        8,
        6,
        42
      ],
      "name": "Object_4"
    },
    {
      "children": [
        9
      ],
      "name": "_rootJoint"
    },
    {
      "matrix": [
        -103.28946609615645,
        -1.2649311404029706e-14,
        0.30776923667900086,
        0.0,
        0.30776923667900086,
        -6.286992917542095e-15,
        103.28946609615645,
        0.0,
        -1.2630522126670432e-14,
        103.28992462158203,
        6.324655702014853e-15,
        0.0,
        0.0,
        0.0,
        0.0,
        1.0
      ],
      "name": "Object_6"
    },
    {
      "mesh": 0,
      "name": "Object_7",
      "skin": 0
    },
    {
      "mesh": 1,
      "name": "Object_8",
      "skin": 0
    },
    {
      "children": [
        10,
        32,
        37
      ],
      "name": "mixamorig:Hips_01",
      "translation": [
        -0.010579426772892475,
        66.63845825195313,
        -1.8771756887435913
      ]
    },
    {
      "children": [
        11
      ],
      "name": "mixamorig:Spine_02",
      "rotation": [
        -0.03370271250605583,
        -0.0,
        0.0,
        0.9994319081306458
      ],
      "translation": [
        0.0,
        11.354087829589844,
        -0.7666336297988892
      ]
    },
    {
      "children": [
        12
      ],
      "name": "mixamorig:Spine1_03",
      "rotation": [
        1.9536159356903227e-08,
        0.0,
        0.0,
        1.0
      ],
      "translation": [
        0.0,
        13.276590347290039,
        -8.881784197001252e-16
      ]
    },
    {
      "children": [
        13,
        16,
        24
      ],
      "name": "mixamorig:Spine2_04",
      "rotation": [
        6.938893903907228e-18,
        0.0,
        0.0,
        1.0
      ],
      "translation": [
        0.0,
        15.173255920410156,
        0.0
      ]
    },
    {
      "children": [
        14
      ],
      "name": "mixamorig:Neck_05",
      "rotation": [
        0.03370269387960434,
        0.0,
        0.0,
        0.9994319081306458
      ],
      "translation": [
        0.0,
        17.06990623474121,
        -3.3439206958973955e-08
      ]
    },
    {
      "children": [
        15
      ],
      "name": "mixamorig:Head_06",
      "translation": [
        0.0,
        15.248565673828125,
        -0.7793569564819336
      ]
    },
    {
      "name": "mixamorig:HeadTop_End_07",
      "translation": [
        0.0,
        49.16255187988281,
        -2.512706756591797
      ]
    },
    {
      "children": [
        17
      ],
      "name": "mixamorig:LeftShoulder_08",
      "rotation": [
        -0.5791513919830322,
        -0.3994627296924591,
        0.5947698354721069,
        -0.3889244496822357
      ],
      "translation": [
        6.718151569366455,
        14.339076042175293,
        -0.17822802066802979
      ]
    },
    {
      "children": [
        18
      ],
      "name": "mixamorig:LeftArm_09",
      "rotation": [
        -0.17924080789089203,
        0.012567173689603806,
        -0.0688033476471901,
        0.9813159108161926
      ],
      "translation": [
        0.0,
        14.310688018798828,
        2.842170943040401e-14
      ]
    },
    {
      "children": [
        19
      ],
      "name": "mixamorig:LeftForeArm_010",
      "rotation": [
        -0.018035398796200752,
        -0.002816109685227275,
        0.1542484313249588,
        0.9878634810447693
      ],
      "translation": [
        0.0,
        26.569875717163086,
        -1.4210854715202004e-14
      ]
    },
    {
      "children": [
        20
      ],
      "name": "mixamorig:LeftHand_011",
      "rotation": [
        0.05224516615271568,
        0.001970109064131975,
        0.037630610167980194,
        0.9979231953620911
      ],
      "translation": [
        0.0,
        21.77655601501465,
        1.4210854715202004e-14
      ]
    },
    {
      "children": [
        21
      ],
      "name": "mixamorig:LeftHandIndex1_012",
      "rotation": [
        -0.04183627665042877,
        0.0021750573068857193,
        -0.05187404900789261,
        0.9977746605873108
      ],
      "translation": [
        0.0,
        13.810688018798828,
        -2.842170943040401e-14
      ]
    },
    {
      "children": [
        22
      ],
      "name": "mixamorig:LeftHandIndex2_013",
      "rotation": [
        1.3010426069826053e-18,
        -8.673617379884035e-19,
        1.128474576789396e-36,
        1.0
      ],
      "translation": [
        3.552713678800501e-15,
        7.153672218322754,
        -2.842170943040401e-14
      ]
    },
    {
      "children": [
        23
      ],
      "name": "mixamorig:LeftHandIndex3_014",
      "rotation": [
        -4.336808689942018e-19,
        8.673617379884035e-19,
        -1.3877787807814457e-17,
        1.0
      ],
      "translation": [
        0.7783003449440002,
        4.588056564331055,
        1.090326189994812
      ]
    },
    {
      "name": "mixamorig:LeftHandIndex4_015",
      "rotation": [
        1.0842021724855044e-19,
        8.673617379884035e-19,
        -1.3877787807814457e-17,
        1.0
      ],
      "translation": [
        0.07397492229938507,
        4.477757453918457,
        0.5606590509414673
      ]
    },
    {
      "children": [
        25
      ],
      "name": "mixamorig:RightShoulder_016",
      "rotation": [
        0.578579843044281,
        -0.39986178278923035,
        0.5952771902084351,
        0.38858845829963684
      ],
      "translation": [
        -6.718151569366455,
        14.339903831481934,
        -0.19049058854579926
      ]
    },
    {
      "children": [
        26
      ],
      "name": "mixamorig:RightArm_017",
      "rotation": [
        -0.17919205129146576,
        -0.011345409788191319,
        0.06216083839535713,
        0.981782853603363
      ],
      "translation": [
        -8.881784197001252e-16,
        14.310688972473145,
        -1.4210854715202004e-14
      ]
    },
    {
      "children": [
        27
      ],
      "name": "mixamorig:RightForeArm_018",
      "rotation": [
        -0.017191050574183464,
        0.002729573054239154,
        -0.1567905694246292,
        0.987478494644165
      ],
      "translation": [
        -1.7763568394002505e-15,
        26.526411056518555,
        0.0
      ]
    },
    {
      "children": [
        28
      ],
      "name": "mixamorig:RightHand_019",
      "rotation": [
        0.05611371994018555,
        -0.00084768480155617,
        -0.01508102286607027,
        0.9983101487159729
      ],
      "translation": [
        -1.7763568394002505e-15,
        21.832550048828125,
        0.0
      ]
    },
    {
      "children": [
        29
      ],
      "name": "mixamorig:RightHandIndex1_020",
      "rotation": [
        -0.06389525532722473,
        -0.0027357973158359528,
        0.04269014298915863,
        0.9970393776893616
      ],
      "translation": [
        -1.7763568394002505e-15,
        14.771903991699219,
        2.842170943040401e-14
      ]
    },
    {
      "children": [
        30
      ],
      "name": "mixamorig:RightHandIndex2_021",
      "rotation": [
        3.0357660829594124e-18,
        4.2129717533470784e-35,
        1.3877787807814457e-17,
        1.0
      ],
      "translation": [
        3.552713678800501e-15,
        6.415332317352295,
        0.0
      ]
    },
    {
      "children": [
        31
      ],
      "name": "mixamorig:RightHandIndex3_022",
      "rotation": [
        1.0842021724855044e-18,
        -1.734723475976807e-18,
        1.3877787807814457e-17,
        1.0
      ],
      "translation": [
        0.050079163163900375,
        4.081908226013184,
        1.1121900081634521
      ]
    },
    {
      "name": "mixamorig:RightHandIndex4_023",
      "rotation": [
        8.673617379884035e-19,
        -1.734723475976807e-18,
        1.3877787807814457e-17,
        1.0
      ],
      "translation": [
        0.27573028206825256,
        4.47503662109375,
        0.9232663512229919
      ]
    },
    {
      "children": [
        33
      ],
      "name": "mixamorig:LeftUpLeg_024",
      "rotation": [
        -0.0016191789181903005,
        -0.03183170408010483,
        0.9982013702392578,
        -0.05077537149190903
      ],
      "translation": [
        11.948573112487793,
        -6.306667327880859,
        -0.9090667963027954
      ]
    },
    {
      "children": [
        34
      ],
      "name": "mixamorig:LeftLeg_025",
      "rotation": [
        -0.05994052439928055,
        0.0031277472153306007,
        -0.0520160049200058,
        0.9968409538269043
      ],
      "translation": [
        0.0,
        23.57819938659668,
        1.7763568394002505e-15
      ]
    },
    {
      "children": [
        35
      ],
      "name": "mixamorig:LeftFoot_026",
      "rotation": [
        0.6341122388839722,
        -0.020990336313843727,
        0.017224181443452835,
        0.7727641463279724
      ],
      "translation": [
        3.552713678800501e-15,
        15.753024101257324,
        0.0
      ]
    },
    {
      "children": [
        36
      ],
      "name": "mixamorig:LeftToeBase_027",
      "rotation": [
        0.1751624047756195,
        0.011410901322960854,
        0.06399757415056229,
        0.9823911786079407
      ],
      "translation": [
        3.552713678800501e-15,
        48.40227127075195,
        0.0
      ]
    },
    {
      "name": "mixamorig:LeftToe_End_028",
      "rotation": [
        -2.0816681711721685e-17,
        -2.389581588158052e-16,
        2.7755575615628914e-17,
        1.0
      ],
      "translation": [
        0.0,
        19.848840713500977,
        8.881784197001252e-16
      ]
    },
    {
      "children": [
        38
      ],
      "name": "mixamorig:RightUpLeg_00",
      "rotation": [
        0.001805855892598629,
        -0.035519249737262726,
        0.9980783462524414,
        0.050743915140628815
      ],
      "translation": [
        -11.948573112487793,
        -6.306667327880859,
        -0.3787447214126587
      ]
    },
    {
      "children": [
        39
      ],
      "name": "mixamorig:RightLeg_029",
      "rotation": [
        -0.05911261588335037,
        -0.0030829578172415495,
        0.051991868764162064,
        0.9968917965888977
      ],
      "translation": [
        7.105427357601002e-15,
        23.5898494720459,
        0.0
      ]
    },
    {
      "children": [
        40
      ],
      "name": "mixamorig:RightFoot_030",
      "rotation": [
        0.6378532648086548,
        0.020650219172239304,
        -0.01711311936378479,
        0.7696908116340637
      ],
      "translation": [
        1.7763568394002505e-15,
        15.770050048828125,
        0.0
      ]
    },
    {
      "children": [
        41
      ],
      "name": "mixamorig:RightToeBase_031",
      "rotation": [
        0.173490971326828,
        -0.011073625646531582,
        -0.06272870302200317,
        0.9827733039855957
      ],
      "translation": [
        -3.552713678800501e-15,
        48.88724136352539,
        3.552713678800501e-15
      ]
    },
    {
      "name": "mixamorig:RightToe_End_032",
      "rotation": [
        2.42861286636753e-17,
        1.0234868508263162e-16,
        4.163336342344337e-17,
        1.0
      ],
      "translation": [
        1.7763568394002505e-15,
        20.189176559448242,
        8.881784197001252e-16
      ]
    },
    {
      "name": "krusty",
      "rotation": [
        0.0010534713510423899,
        0.7071059942245483,
        0.7071059942245483,
        -0.0010534713510423899
      ],
      "scale": [
        103.28992462158203,
        103.28992462158203,
        103.28992462158203
      ]
    }
  ],
  "samplers": [
    {
      "magFilter": 9729,
      "minFilter": 9987,
      "wrapS": 10497,
      "wrapT": 10497
    }
  ],
  "scene": 0,
  "scenes": [
    {
      "name": "Sketchfab_Scene",
      "nodes": [
        0
      ]
    }
  ],
  "skins": [
    {
      "inverseBindMatrices": 8,
      "joints": [
        5,
        9,
        10,
        11,
        12,
        13,
        14,
        15,
        16,
        17,
        18,
        19,
        20,
        21,
        22,
        23,
        24,
        25,
        26,
        27,
        28,
        29,
        30,
        31,
        32,
        33,
        34,
        35,
        36,
        37,
        38,
        39,
        40,
        41
      ],
      "skeleton": 5
    }
  ],
  "textures": [
    {
      "sampler": 0,
      "source": 0
    },
    {
      "sampler": 0,
      "source": 1
    }
  ]
}
